{"glyphs":{"0":{"ha":833,"x_min":81,"x_max":792,"o":"m 353 -14 q 197 23 260 -14 q 107 127 133 60 q 94 285 81 194 l 165 729 q 228 888 181 821 q 350 991 275 954 q 518 1028 425 1028 q 675 991 613 1028 q 765 888 738 954 q 776 729 792 821 l 706 285 q 643 127 692 194 q 520 23 594 60 q 353 -14 446 -14 m 371 93 q 513 147 454 93 q 585 285 571 200 l 656 729 q 627 867 669 814 q 501 921 585 921 q 359 867 418 921 q 286 729 300 814 l 215 285 q 244 147 201 200 q 371 93 288 93 m 436 425 q 376 449 399 425 q 353 511 353 472 q 376 572 353 549 q 436 594 399 594 q 497 572 474 594 q 519 511 519 549 q 497 449 519 472 q 436 425 474 425 z "},"1":{"ha":833,"x_min":64,"x_max":707,"o":"m 64 0 l 82 114 l 357 114 l 483 910 l 175 704 l 197 843 l 454 1014 l 625 1014 l 482 114 l 707 114 l 689 0 l 64 0 z "},"2":{"ha":833,"x_min":67,"x_max":783,"o":"m 67 0 l 88 128 l 449 457 q 588 608 542 542 q 644 735 635 674 q 619 868 658 819 q 500 917 581 917 q 352 867 411 917 q 279 729 293 817 l 154 729 q 222 888 172 821 q 348 992 272 956 q 517 1028 424 1028 q 669 992 608 1028 q 757 892 731 957 q 769 736 783 826 q 697 563 756 650 q 515 368 638 476 l 228 114 l 688 114 l 669 0 l 67 0 z "},"3":{"ha":833,"x_min":67,"x_max":776,"o":"m 338 -14 q 183 23 246 -14 q 94 125 121 60 q 81 278 67 190 l 206 278 q 232 145 192 193 q 357 97 272 97 q 499 147 443 97 q 567 278 554 197 l 578 350 q 552 483 592 436 q 426 531 513 531 l 322 531 l 342 656 l 628 900 l 221 900 l 239 1014 l 776 1014 l 756 889 l 443 622 l 446 642 q 654 563 585 642 q 703 350 724 483 l 692 278 q 630 125 679 190 q 505 23 581 60 q 338 -14 429 -14 z "},"4":{"ha":833,"x_min":85,"x_max":751,"o":"m 508 0 l 543 222 l 85 222 l 117 418 l 613 1014 l 751 1014 l 238 392 l 228 336 l 561 336 l 601 583 l 726 583 l 633 0 l 508 0 z "},"5":{"ha":833,"x_min":89,"x_max":779,"o":"m 350 -14 q 158 50 226 -14 q 92 222 89 114 l 217 222 q 254 130 215 163 q 369 97 293 97 q 508 144 457 97 q 574 278 560 192 l 589 376 q 567 510 603 463 q 444 557 531 557 q 345 528 390 557 q 275 453 300 500 l 150 453 l 246 1014 l 779 1014 l 761 900 l 349 900 l 290 563 l 329 563 l 285 526 q 353 629 296 592 q 499 667 411 667 q 679 591 622 668 q 714 376 736 514 l 699 278 q 585 65 676 143 q 350 -14 493 -14 z "},"6":{"ha":833,"x_min":68,"x_max":743,"o":"m 354 -14 q 191 27 257 -14 q 97 142 125 68 q 83 313 68 215 q 128 463 94 389 q 215 604 163 536 l 535 1014 l 674 1014 l 313 553 l 318 549 q 399 608 350 588 q 506 629 449 629 q 644 590 589 629 q 721 481 699 551 q 728 313 743 410 q 660 142 713 215 q 530 27 608 68 q 354 -14 451 -14 m 371 97 q 524 156 460 97 q 603 313 588 215 q 573 469 618 410 q 439 528 528 528 q 287 469 350 528 q 208 313 224 410 q 238 156 193 215 q 371 97 282 97 z "},"7":{"ha":833,"x_min":169,"x_max":843,"o":"m 196 0 l 699 900 l 318 900 l 294 750 l 169 750 l 211 1014 l 843 1014 l 824 892 l 333 0 l 196 0 z "},"8":{"ha":833,"x_min":71,"x_max":776,"o":"m 353 -14 q 142 59 213 -14 q 90 256 71 132 q 165 411 106 346 q 339 528 224 476 l 485 593 q 591 669 550 622 q 640 774 632 717 q 614 879 651 840 q 501 918 576 918 q 376 878 426 918 q 315 772 326 839 q 332 669 307 717 q 410 594 357 622 l 535 531 q 677 413 638 479 q 701 256 717 347 q 642 113 689 174 q 521 19 594 51 q 353 -14 447 -14 m 371 97 q 512 141 456 97 q 579 258 568 185 q 565 367 589 318 q 486 444 540 415 l 363 510 q 220 626 260 564 q 194 776 181 689 q 250 911 207 854 q 362 999 293 968 q 518 1029 431 1029 q 665 999 606 1029 q 750 911 724 968 q 764 776 776 854 q 690 627 750 689 q 506 508 629 565 l 363 443 q 262 367 300 415 q 214 261 224 319 q 244 142 201 186 q 371 97 286 97 z "},"9":{"ha":833,"x_min":129,"x_max":804,"o":"m 199 0 l 560 461 l 554 465 q 473 406 522 426 q 367 385 424 385 q 229 424 285 385 q 151 534 174 463 q 144 701 129 606 q 211 873 160 800 q 342 987 263 946 q 517 1028 421 1028 q 681 987 614 1028 q 776 873 747 946 q 789 701 804 800 q 743 551 776 625 q 657 410 710 478 l 338 0 l 199 0 m 432 486 q 585 545 521 486 q 664 701 649 604 q 635 858 679 799 q 501 917 590 917 q 349 858 413 917 q 269 701 285 799 q 299 545 254 604 q 432 486 343 486 z "},"A":{"ha":833,"x_min":8,"x_max":703,"o":"m 8 0 l 433 1014 l 601 1014 l 703 0 l 581 0 l 557 269 l 250 269 l 140 0 l 8 0 m 292 375 l 547 375 l 518 688 q 508 836 511 776 q 504 914 504 896 q 477 836 499 896 q 419 689 456 776 l 292 375 z "},"Á":{"ha":833,"x_min":8,"x_max":768,"o":"m 8 0 l 433 1014 l 601 1014 l 703 0 l 581 0 l 557 269 l 250 269 l 140 0 l 8 0 m 292 375 l 547 375 l 518 688 q 508 836 511 776 q 504 914 504 896 q 477 836 499 896 q 419 689 456 776 l 292 375 m 449 1125 l 626 1319 l 768 1319 l 583 1125 l 449 1125 z "},"Ă":{"ha":833,"x_min":8,"x_max":786,"o":"m 8 0 l 433 1014 l 601 1014 l 703 0 l 581 0 l 557 269 l 250 269 l 140 0 l 8 0 m 292 375 l 547 375 l 518 688 q 508 836 511 776 q 504 914 504 896 q 477 836 499 896 q 419 689 456 776 l 292 375 m 532 1118 q 380 1174 432 1118 q 342 1319 328 1229 l 439 1319 q 459 1232 431 1265 q 543 1199 488 1199 q 639 1232 600 1199 q 686 1319 678 1265 l 786 1319 q 702 1174 772 1229 q 532 1118 632 1118 z "},"Ắ":{"ha":833,"x_min":8,"x_max":785,"o":"m 8 0 l 433 1014 l 601 1014 l 703 0 l 581 0 l 557 269 l 250 269 l 140 0 l 8 0 m 292 375 l 547 375 l 518 688 q 508 836 511 776 q 504 914 504 896 q 477 836 499 896 q 419 689 456 776 l 292 375 m 464 1250 l 636 1417 l 775 1417 l 596 1250 l 464 1250 m 493 1083 q 358 1132 404 1083 q 326 1264 313 1181 l 424 1264 q 439 1193 417 1219 q 506 1167 461 1167 l 574 1167 q 650 1193 619 1167 q 688 1264 681 1219 l 785 1264 q 711 1132 771 1181 q 561 1083 651 1083 l 493 1083 z "},"Ặ":{"ha":833,"x_min":8,"x_max":786,"o":"m 532 1118 q 380 1174 432 1118 q 342 1319 328 1229 l 439 1319 q 459 1232 431 1265 q 543 1199 488 1199 q 639 1232 600 1199 q 686 1319 678 1265 l 786 1319 q 702 1174 772 1229 q 532 1118 632 1118 m 8 0 l 433 1014 l 601 1014 l 703 0 l 581 0 l 557 269 l 250 269 l 140 0 l 8 0 m 292 375 l 547 375 l 518 688 q 508 836 511 776 q 504 914 504 896 q 477 836 499 896 q 419 689 456 776 l 292 375 m 322 -296 q 254 -272 276 -296 q 238 -208 232 -249 q 275 -142 244 -167 q 351 -118 306 -118 q 419 -142 397 -118 q 435 -208 442 -167 q 399 -272 429 -249 q 322 -296 368 -296 z "},"Ằ":{"ha":833,"x_min":8,"x_max":785,"o":"m 8 0 l 433 1014 l 601 1014 l 703 0 l 581 0 l 557 269 l 250 269 l 140 0 l 8 0 m 292 375 l 547 375 l 518 688 q 508 836 511 776 q 504 914 504 896 q 477 836 499 896 q 419 689 456 776 l 292 375 m 493 1083 q 358 1132 404 1083 q 326 1264 313 1181 l 424 1264 q 439 1193 417 1219 q 506 1167 461 1167 l 574 1167 q 650 1193 619 1167 q 688 1264 681 1219 l 785 1264 q 711 1132 771 1181 q 561 1083 651 1083 l 493 1083 m 518 1250 l 406 1417 l 533 1417 l 639 1250 l 518 1250 z "},"Ẳ":{"ha":833,"x_min":8,"x_max":785,"o":"m 8 0 l 433 1014 l 601 1014 l 703 0 l 581 0 l 557 269 l 250 269 l 140 0 l 8 0 m 292 375 l 547 375 l 518 688 q 508 836 511 776 q 504 914 504 896 q 477 836 499 896 q 419 689 456 776 l 292 375 m 481 1222 l 557 1300 q 568 1313 564 1307 q 574 1322 572 1318 q 561 1333 576 1333 l 463 1333 l 476 1417 l 611 1417 q 665 1399 647 1417 q 676 1350 682 1382 q 666 1313 674 1332 q 644 1278 658 1293 l 592 1222 l 481 1222 m 493 1083 q 358 1132 404 1083 q 326 1264 313 1181 l 424 1264 q 439 1193 417 1219 q 506 1167 461 1167 l 574 1167 q 650 1193 619 1167 q 688 1264 681 1219 l 785 1264 q 711 1132 771 1181 q 561 1083 651 1083 l 493 1083 z "},"Ẵ":{"ha":833,"x_min":8,"x_max":807,"o":"m 8 0 l 433 1014 l 601 1014 l 703 0 l 581 0 l 557 269 l 250 269 l 140 0 l 8 0 m 292 375 l 547 375 l 518 688 q 508 836 511 776 q 504 914 504 896 q 477 836 499 896 q 419 689 456 776 l 292 375 m 493 1083 q 358 1125 404 1083 q 325 1250 311 1167 l 422 1250 q 438 1186 415 1206 q 506 1167 461 1167 l 574 1167 q 649 1186 619 1167 q 686 1250 679 1206 l 783 1250 q 710 1125 769 1167 q 561 1083 651 1083 l 493 1083 m 665 1278 q 598 1288 624 1278 q 553 1310 572 1297 q 516 1333 535 1324 q 471 1343 497 1343 q 422 1301 429 1343 l 421 1292 l 331 1292 l 332 1301 q 379 1385 339 1354 q 476 1417 419 1417 q 544 1407 518 1417 q 588 1384 569 1397 q 623 1361 606 1371 q 667 1351 640 1351 q 699 1363 686 1351 q 715 1393 713 1375 l 717 1403 l 807 1403 l 806 1393 q 760 1309 799 1340 q 665 1278 722 1278 z "},"Ǎ":{"ha":833,"x_min":8,"x_max":815,"o":"m 8 0 l 433 1014 l 601 1014 l 703 0 l 581 0 l 557 269 l 250 269 l 140 0 l 8 0 m 292 375 l 547 375 l 518 688 q 508 836 511 776 q 504 914 504 896 q 477 836 499 896 q 419 689 456 776 l 292 375 m 476 1125 l 313 1319 l 447 1319 l 544 1211 l 672 1319 l 815 1319 l 592 1125 l 476 1125 z "},"Â":{"ha":833,"x_min":8,"x_max":785,"o":"m 8 0 l 433 1014 l 601 1014 l 703 0 l 581 0 l 557 269 l 250 269 l 140 0 l 8 0 m 292 375 l 547 375 l 518 688 q 508 836 511 776 q 504 914 504 896 q 477 836 499 896 q 419 689 456 776 l 292 375 m 282 1125 l 506 1319 l 621 1319 l 785 1125 l 650 1125 l 554 1233 l 425 1125 l 282 1125 z "},"Ấ":{"ha":833,"x_min":8,"x_max":1021,"o":"m 701 1250 l 874 1417 l 1021 1417 l 842 1250 l 701 1250 m 278 1083 l 500 1278 l 617 1278 l 779 1083 l 643 1083 l 549 1192 l 419 1083 l 278 1083 m 8 0 l 433 1014 l 601 1014 l 703 0 l 581 0 l 557 269 l 250 269 l 140 0 l 8 0 m 292 375 l 547 375 l 518 688 q 508 836 511 776 q 504 914 504 896 q 477 836 499 896 q 419 689 456 776 l 292 375 z "},"Ậ":{"ha":833,"x_min":8,"x_max":785,"o":"m 282 1125 l 506 1319 l 621 1319 l 785 1125 l 650 1125 l 554 1233 l 425 1125 l 282 1125 m 8 0 l 433 1014 l 601 1014 l 703 0 l 581 0 l 557 269 l 250 269 l 140 0 l 8 0 m 292 375 l 547 375 l 518 688 q 508 836 511 776 q 504 914 504 896 q 477 836 499 896 q 419 689 456 776 l 292 375 m 322 -296 q 254 -272 276 -296 q 238 -208 232 -249 q 275 -142 244 -167 q 351 -118 306 -118 q 419 -142 397 -118 q 435 -208 442 -167 q 399 -272 429 -249 q 322 -296 368 -296 z "},"Ầ":{"ha":833,"x_min":8,"x_max":885,"o":"m 8 0 l 433 1014 l 601 1014 l 703 0 l 581 0 l 557 269 l 250 269 l 140 0 l 8 0 m 292 375 l 547 375 l 518 688 q 508 836 511 776 q 504 914 504 896 q 477 836 499 896 q 419 689 456 776 l 292 375 m 758 1250 l 618 1417 l 751 1417 l 885 1250 l 758 1250 m 278 1083 l 500 1278 l 617 1278 l 779 1083 l 643 1083 l 549 1192 l 419 1083 l 278 1083 z "},"Ẩ":{"ha":833,"x_min":8,"x_max":921,"o":"m 710 1222 l 788 1288 q 798 1300 794 1293 q 803 1314 801 1307 q 785 1336 806 1336 l 699 1336 l 713 1417 l 831 1417 q 898 1393 875 1417 q 914 1331 921 1369 q 903 1297 911 1313 q 882 1271 894 1282 l 826 1222 l 710 1222 m 278 1083 l 500 1278 l 617 1278 l 779 1083 l 643 1083 l 549 1192 l 419 1083 l 278 1083 m 8 0 l 433 1014 l 601 1014 l 703 0 l 581 0 l 557 269 l 250 269 l 140 0 l 8 0 m 292 375 l 547 375 l 518 688 q 508 836 511 776 q 504 914 504 896 q 477 836 499 896 q 419 689 456 776 l 292 375 z "},"Ẫ":{"ha":833,"x_min":8,"x_max":807,"o":"m 8 0 l 433 1014 l 601 1014 l 703 0 l 581 0 l 557 269 l 250 269 l 140 0 l 8 0 m 292 375 l 547 375 l 518 688 q 508 836 511 776 q 504 914 504 896 q 477 836 499 896 q 419 689 456 776 l 292 375 m 665 1278 q 598 1288 624 1278 q 553 1310 572 1297 q 516 1333 535 1324 q 471 1343 497 1343 q 422 1301 429 1343 l 421 1292 l 331 1292 l 332 1301 q 379 1385 339 1354 q 476 1417 419 1417 q 544 1407 518 1417 q 588 1384 569 1397 q 623 1361 606 1371 q 667 1351 640 1351 q 699 1363 686 1351 q 715 1393 713 1375 l 717 1403 l 807 1403 l 806 1393 q 760 1309 799 1340 q 665 1278 722 1278 m 278 1083 l 463 1236 l 640 1236 l 778 1083 l 642 1083 l 547 1185 l 419 1083 l 278 1083 z "},"Ä":{"ha":833,"x_min":8,"x_max":799,"o":"m 8 0 l 433 1014 l 601 1014 l 703 0 l 581 0 l 557 269 l 250 269 l 140 0 l 8 0 m 292 375 l 547 375 l 518 688 q 508 836 511 776 q 504 914 504 896 q 477 836 499 896 q 419 689 456 776 l 292 375 m 689 1135 q 628 1158 649 1135 q 614 1222 608 1182 q 649 1288 621 1264 q 718 1313 678 1313 q 778 1288 758 1313 q 792 1222 799 1264 q 758 1158 786 1182 q 689 1135 729 1135 m 381 1135 q 320 1158 340 1135 q 306 1222 300 1182 q 341 1288 313 1264 q 410 1313 369 1313 q 470 1288 450 1313 q 483 1222 490 1264 q 449 1158 478 1182 q 381 1135 421 1135 z "},"Ạ":{"ha":833,"x_min":8,"x_max":703,"o":"m 8 0 l 433 1014 l 601 1014 l 703 0 l 581 0 l 557 269 l 250 269 l 140 0 l 8 0 m 292 375 l 547 375 l 518 688 q 508 836 511 776 q 504 914 504 896 q 477 836 499 896 q 419 689 456 776 l 292 375 m 322 -296 q 254 -272 276 -296 q 238 -208 232 -249 q 275 -142 244 -167 q 351 -118 306 -118 q 419 -142 397 -118 q 435 -208 442 -167 q 399 -272 429 -249 q 322 -296 368 -296 z "},"À":{"ha":833,"x_min":8,"x_max":703,"o":"m 8 0 l 433 1014 l 601 1014 l 703 0 l 581 0 l 557 269 l 250 269 l 140 0 l 8 0 m 292 375 l 547 375 l 518 688 q 508 836 511 776 q 504 914 504 896 q 477 836 499 896 q 419 689 456 776 l 292 375 m 492 1125 l 363 1319 l 493 1319 l 615 1125 l 492 1125 z "},"Ả":{"ha":833,"x_min":8,"x_max":703,"o":"m 8 0 l 433 1014 l 601 1014 l 703 0 l 581 0 l 557 269 l 250 269 l 140 0 l 8 0 m 292 375 l 547 375 l 518 688 q 508 836 511 776 q 504 914 504 896 q 477 836 499 896 q 419 689 456 776 l 292 375 m 456 1132 l 539 1219 q 557 1244 550 1232 q 565 1264 564 1256 q 531 1292 569 1292 l 422 1292 l 438 1382 l 583 1382 q 664 1355 636 1382 q 685 1279 692 1328 q 672 1239 682 1258 q 649 1204 663 1219 l 582 1132 l 456 1132 z "},"Ā":{"ha":833,"x_min":8,"x_max":779,"o":"m 8 0 l 433 1014 l 601 1014 l 703 0 l 581 0 l 557 269 l 250 269 l 140 0 l 8 0 m 292 375 l 547 375 l 518 688 q 508 836 511 776 q 504 914 504 896 q 477 836 499 896 q 419 689 456 776 l 292 375 m 318 1167 l 335 1271 l 779 1271 l 763 1167 l 318 1167 z "},"Ą":{"ha":833,"x_min":8,"x_max":719,"o":"m 599 -282 q 481 -245 522 -282 q 450 -153 440 -208 q 490 -72 457 -112 q 594 14 522 -32 l 699 14 l 681 1 q 602 -69 628 -37 q 571 -129 576 -100 q 584 -179 567 -160 q 636 -199 601 -199 l 719 -199 l 707 -282 l 599 -282 m 8 0 l 433 1014 l 601 1014 l 703 0 l 581 0 l 557 269 l 250 269 l 140 0 l 8 0 m 292 375 l 547 375 l 518 688 q 508 836 511 776 q 504 914 504 896 q 477 836 499 896 q 419 689 456 776 l 292 375 z "},"Å":{"ha":833,"x_min":8,"x_max":726,"o":"m 8 0 l 433 1014 l 601 1014 l 703 0 l 581 0 l 557 269 l 250 269 l 140 0 l 8 0 m 292 375 l 547 375 l 518 688 q 508 836 511 776 q 504 914 504 896 q 477 836 499 896 q 419 689 456 776 l 292 375 m 524 1064 q 410 1108 449 1064 q 382 1222 372 1151 q 446 1337 393 1293 q 574 1381 499 1381 q 688 1337 649 1381 q 715 1222 726 1293 q 652 1108 706 1151 q 524 1064 599 1064 m 536 1138 q 600 1160 574 1138 q 632 1222 626 1183 q 619 1285 639 1261 q 563 1308 600 1308 q 499 1285 525 1308 q 465 1222 472 1261 q 479 1160 460 1183 q 536 1138 499 1138 z "},"Ã":{"ha":833,"x_min":8,"x_max":785,"o":"m 8 0 l 433 1014 l 601 1014 l 703 0 l 581 0 l 557 269 l 250 269 l 140 0 l 8 0 m 292 375 l 547 375 l 518 688 q 508 836 511 776 q 504 914 504 896 q 477 836 499 896 q 419 689 456 776 l 292 375 m 632 1132 q 567 1147 590 1132 q 528 1181 543 1161 q 498 1215 513 1200 q 460 1229 483 1229 q 428 1217 442 1229 q 411 1181 414 1206 l 404 1139 l 314 1139 l 321 1181 q 371 1278 331 1243 q 467 1313 411 1313 q 532 1298 508 1313 q 571 1264 556 1283 q 601 1230 586 1244 q 639 1215 615 1215 q 671 1227 658 1215 q 688 1264 683 1239 l 694 1306 l 785 1306 l 778 1264 q 728 1167 768 1201 q 632 1132 689 1132 z "},"Æ":{"ha":833,"x_min":-19,"x_max":892,"o":"m -19 0 l 343 1014 l 892 1014 l 874 900 l 621 900 l 571 583 l 789 583 l 771 469 l 553 469 l 496 114 l 749 114 l 731 0 l 358 0 l 403 282 l 207 282 l 107 0 l -19 0 m 243 386 l 419 386 l 501 900 l 424 900 l 243 386 z "},"Ǽ":{"ha":833,"x_min":-19,"x_max":892,"o":"m -19 0 l 343 1014 l 892 1014 l 874 900 l 621 900 l 571 583 l 789 583 l 771 469 l 553 469 l 496 114 l 749 114 l 731 0 l 358 0 l 403 282 l 207 282 l 107 0 l -19 0 m 243 386 l 419 386 l 501 900 l 424 900 l 243 386 m 456 1125 l 633 1319 l 775 1319 l 590 1125 l 456 1125 z "},"B":{"ha":833,"x_min":68,"x_max":790,"o":"m 68 0 l 229 1014 l 517 1014 q 723 944 656 1014 q 771 751 790 875 q 722 631 760 682 q 627 551 685 579 q 494 525 569 524 l 497 546 q 632 515 578 547 q 710 424 686 483 q 719 282 733 364 q 660 132 706 196 q 542 34 614 68 q 376 0 469 0 l 68 0 m 208 113 l 381 113 q 526 159 468 113 q 597 286 583 206 q 567 422 610 369 q 438 474 525 474 l 265 474 l 208 113 m 282 582 l 446 582 q 580 625 526 582 q 646 742 633 668 q 618 858 657 815 q 499 901 579 901 l 333 901 l 282 582 z "},"C":{"ha":833,"x_min":92,"x_max":789,"o":"m 358 -14 q 205 21 267 -14 q 117 122 143 56 q 106 278 92 188 l 178 736 q 240 893 193 828 q 359 993 286 958 q 524 1028 432 1028 q 676 992 615 1028 q 763 892 736 957 q 775 736 789 826 l 650 736 q 626 869 664 822 q 506 915 588 915 q 370 869 424 915 q 303 738 317 824 l 231 278 q 256 145 217 192 q 376 99 294 99 q 511 145 458 99 q 578 278 564 192 l 703 278 q 642 123 689 189 q 522 22 594 57 q 358 -14 450 -14 z "},"Ć":{"ha":833,"x_min":92,"x_max":789,"o":"m 358 -14 q 205 21 267 -14 q 117 122 143 56 q 106 278 92 188 l 178 736 q 240 893 193 828 q 359 993 286 958 q 524 1028 432 1028 q 676 992 615 1028 q 763 892 736 957 q 775 736 789 826 l 650 736 q 626 869 664 822 q 506 915 588 915 q 370 869 424 915 q 303 738 317 824 l 231 278 q 256 145 217 192 q 376 99 294 99 q 511 145 458 99 q 578 278 564 192 l 703 278 q 642 123 689 189 q 522 22 594 57 q 358 -14 450 -14 m 456 1125 l 633 1319 l 775 1319 l 590 1125 l 456 1125 z "},"Č":{"ha":833,"x_min":92,"x_max":822,"o":"m 358 -14 q 205 21 267 -14 q 117 122 143 56 q 106 278 92 188 l 178 736 q 240 893 193 828 q 359 993 286 958 q 524 1028 432 1028 q 676 992 615 1028 q 763 892 736 957 q 775 736 789 826 l 650 736 q 626 869 664 822 q 506 915 588 915 q 370 869 424 915 q 303 738 317 824 l 231 278 q 256 145 217 192 q 376 99 294 99 q 511 145 458 99 q 578 278 564 192 l 703 278 q 642 123 689 189 q 522 22 594 57 q 358 -14 450 -14 m 483 1125 l 319 1319 l 454 1319 l 551 1211 l 679 1319 l 822 1319 l 599 1125 l 483 1125 z "},"Ç":{"ha":833,"x_min":92,"x_max":789,"o":"m 186 -282 l 199 -206 l 296 -206 q 347 -190 326 -206 q 371 -156 368 -174 q 340 -114 375 -132 q 235 -96 304 -96 l 304 36 l 383 36 l 340 -49 q 413 -67 376 -53 q 472 -106 450 -81 q 489 -167 494 -131 q 431 -248 482 -214 q 304 -282 379 -282 l 186 -282 m 358 -14 q 205 21 267 -14 q 117 122 143 56 q 106 278 92 188 l 178 736 q 240 893 193 828 q 359 993 286 958 q 524 1028 432 1028 q 676 992 615 1028 q 763 892 736 957 q 775 736 789 826 l 650 736 q 626 869 664 822 q 506 915 588 915 q 370 869 424 915 q 303 738 317 824 l 231 278 q 256 145 217 192 q 376 99 294 99 q 511 145 458 99 q 578 278 564 192 l 703 278 q 642 123 689 189 q 522 22 594 57 q 358 -14 450 -14 z "},"Ĉ":{"ha":833,"x_min":92,"x_max":792,"o":"m 358 -14 q 205 21 267 -14 q 117 122 143 56 q 106 278 92 188 l 178 736 q 240 893 193 828 q 359 993 286 958 q 524 1028 432 1028 q 676 992 615 1028 q 763 892 736 957 q 775 736 789 826 l 650 736 q 626 869 664 822 q 506 915 588 915 q 370 869 424 915 q 303 738 317 824 l 231 278 q 256 145 217 192 q 376 99 294 99 q 511 145 458 99 q 578 278 564 192 l 703 278 q 642 123 689 189 q 522 22 594 57 q 358 -14 450 -14 m 289 1125 l 513 1319 l 628 1319 l 792 1125 l 657 1125 l 561 1233 l 432 1125 l 289 1125 z "},"Ċ":{"ha":833,"x_min":92,"x_max":789,"o":"m 358 -14 q 205 21 267 -14 q 117 122 143 56 q 106 278 92 188 l 178 736 q 240 893 193 828 q 359 993 286 958 q 524 1028 432 1028 q 676 992 615 1028 q 763 892 736 957 q 775 736 789 826 l 650 736 q 626 869 664 822 q 506 915 588 915 q 370 869 424 915 q 303 738 317 824 l 231 278 q 256 145 217 192 q 376 99 294 99 q 511 145 458 99 q 578 278 564 192 l 703 278 q 642 123 689 189 q 522 22 594 57 q 358 -14 450 -14 m 542 1133 q 474 1158 496 1133 q 457 1222 451 1182 q 494 1287 464 1263 q 571 1311 525 1311 q 639 1287 617 1311 q 654 1222 661 1263 q 618 1158 649 1182 q 542 1133 588 1133 z "},"D":{"ha":833,"x_min":67,"x_max":778,"o":"m 67 0 l 228 1014 l 490 1014 q 655 976 589 1014 q 749 871 721 939 q 763 710 778 803 l 699 306 q 634 144 685 213 q 506 38 583 75 q 329 0 428 0 l 67 0 m 210 111 l 347 111 q 499 163 439 111 q 574 306 560 214 l 638 710 q 608 851 653 800 q 472 903 564 903 l 335 903 l 210 111 z "},"Ð":{"ha":833,"x_min":14,"x_max":778,"o":"m 14 465 l 14 569 l 403 569 l 403 465 l 14 465 m 67 0 l 228 1014 l 490 1014 q 655 976 589 1014 q 749 871 721 939 q 763 710 778 803 l 699 306 q 634 144 685 213 q 506 38 583 75 q 329 0 428 0 l 67 0 m 210 111 l 347 111 q 499 163 439 111 q 574 306 560 214 l 638 710 q 608 851 653 800 q 472 903 564 903 l 335 903 l 210 111 z "},"Ď":{"ha":833,"x_min":67,"x_max":815,"o":"m 67 0 l 228 1014 l 490 1014 q 655 976 589 1014 q 749 871 721 939 q 763 710 778 803 l 699 306 q 634 144 685 213 q 506 38 583 75 q 329 0 428 0 l 67 0 m 210 111 l 347 111 q 499 163 439 111 q 574 306 560 214 l 638 710 q 608 851 653 800 q 472 903 564 903 l 335 903 l 210 111 m 476 1125 l 313 1319 l 447 1319 l 544 1211 l 672 1319 l 815 1319 l 592 1125 l 476 1125 z "},"Đ":{"ha":833,"x_min":14,"x_max":778,"o":"m 14 465 l 14 569 l 403 569 l 403 465 l 14 465 m 67 0 l 228 1014 l 490 1014 q 655 976 589 1014 q 749 871 721 939 q 763 710 778 803 l 699 306 q 634 144 685 213 q 506 38 583 75 q 329 0 428 0 l 67 0 m 210 111 l 347 111 q 499 163 439 111 q 574 306 560 214 l 638 710 q 608 851 653 800 q 472 903 564 903 l 335 903 l 210 111 z "},"E":{"ha":833,"x_min":78,"x_max":822,"o":"m 78 0 l 239 1014 l 822 1014 l 804 900 l 344 900 l 294 586 l 706 586 l 688 474 l 276 474 l 219 114 l 679 114 l 661 0 l 78 0 z "},"É":{"ha":833,"x_min":78,"x_max":822,"o":"m 78 0 l 239 1014 l 822 1014 l 804 900 l 344 900 l 294 586 l 706 586 l 688 474 l 276 474 l 219 114 l 679 114 l 661 0 l 78 0 m 476 1125 l 654 1319 l 796 1319 l 611 1125 l 476 1125 z "},"Ĕ":{"ha":833,"x_min":78,"x_max":822,"o":"m 78 0 l 239 1014 l 822 1014 l 804 900 l 344 900 l 294 586 l 706 586 l 688 474 l 276 474 l 219 114 l 679 114 l 661 0 l 78 0 m 560 1118 q 408 1174 460 1118 q 369 1319 356 1229 l 467 1319 q 487 1232 458 1265 q 571 1199 515 1199 q 667 1232 628 1199 q 714 1319 706 1265 l 814 1319 q 730 1174 800 1229 q 560 1118 660 1118 z "},"Ě":{"ha":833,"x_min":78,"x_max":843,"o":"m 78 0 l 239 1014 l 822 1014 l 804 900 l 344 900 l 294 586 l 706 586 l 688 474 l 276 474 l 219 114 l 679 114 l 661 0 l 78 0 m 504 1125 l 340 1319 l 475 1319 l 572 1211 l 700 1319 l 843 1319 l 619 1125 l 504 1125 z "},"Ê":{"ha":833,"x_min":78,"x_max":822,"o":"m 78 0 l 239 1014 l 822 1014 l 804 900 l 344 900 l 294 586 l 706 586 l 688 474 l 276 474 l 219 114 l 679 114 l 661 0 l 78 0 m 310 1125 l 533 1319 l 649 1319 l 813 1125 l 678 1125 l 582 1233 l 453 1125 l 310 1125 z "},"Ế":{"ha":833,"x_min":78,"x_max":1021,"o":"m 78 0 l 239 1014 l 822 1014 l 804 900 l 344 900 l 294 586 l 706 586 l 688 474 l 276 474 l 219 114 l 679 114 l 661 0 l 78 0 m 701 1250 l 874 1417 l 1021 1417 l 842 1250 l 701 1250 m 278 1083 l 500 1278 l 617 1278 l 779 1083 l 643 1083 l 549 1192 l 419 1083 l 278 1083 z "},"Ệ":{"ha":833,"x_min":78,"x_max":822,"o":"m 282 1125 l 506 1319 l 621 1319 l 785 1125 l 650 1125 l 554 1233 l 425 1125 l 282 1125 m 78 0 l 239 1014 l 822 1014 l 804 900 l 344 900 l 294 586 l 706 586 l 688 474 l 276 474 l 219 114 l 679 114 l 661 0 l 78 0 m 336 -296 q 268 -272 290 -296 q 251 -208 246 -249 q 289 -142 258 -167 q 365 -118 319 -118 q 433 -142 411 -118 q 449 -208 456 -167 q 413 -272 443 -249 q 336 -296 382 -296 z "},"Ề":{"ha":833,"x_min":78,"x_max":885,"o":"m 78 0 l 239 1014 l 822 1014 l 804 900 l 344 900 l 294 586 l 706 586 l 688 474 l 276 474 l 219 114 l 679 114 l 661 0 l 78 0 m 758 1250 l 618 1417 l 751 1417 l 885 1250 l 758 1250 m 278 1083 l 500 1278 l 617 1278 l 779 1083 l 643 1083 l 549 1192 l 419 1083 l 278 1083 z "},"Ể":{"ha":833,"x_min":78,"x_max":921,"o":"m 78 0 l 239 1014 l 822 1014 l 804 900 l 344 900 l 294 586 l 706 586 l 688 474 l 276 474 l 219 114 l 679 114 l 661 0 l 78 0 m 710 1222 l 788 1288 q 798 1300 794 1293 q 803 1314 801 1307 q 785 1336 806 1336 l 699 1336 l 713 1417 l 831 1417 q 898 1393 875 1417 q 914 1331 921 1369 q 903 1297 911 1313 q 882 1271 894 1282 l 826 1222 l 710 1222 m 278 1083 l 500 1278 l 617 1278 l 779 1083 l 643 1083 l 549 1192 l 419 1083 l 278 1083 z "},"Ễ":{"ha":833,"x_min":78,"x_max":822,"o":"m 78 0 l 239 1014 l 822 1014 l 804 900 l 344 900 l 294 586 l 706 586 l 688 474 l 276 474 l 219 114 l 679 114 l 661 0 l 78 0 m 665 1278 q 598 1288 624 1278 q 553 1310 572 1297 q 516 1333 535 1324 q 471 1343 497 1343 q 422 1301 429 1343 l 421 1292 l 331 1292 l 332 1301 q 379 1385 339 1354 q 476 1417 419 1417 q 544 1407 518 1417 q 588 1384 569 1397 q 623 1361 606 1371 q 667 1351 640 1351 q 699 1363 686 1351 q 715 1393 713 1375 l 717 1403 l 807 1403 l 806 1393 q 760 1309 799 1340 q 665 1278 722 1278 m 278 1083 l 463 1236 l 640 1236 l 778 1083 l 642 1083 l 547 1185 l 419 1083 l 278 1083 z "},"Ë":{"ha":833,"x_min":78,"x_max":826,"o":"m 78 0 l 239 1014 l 822 1014 l 804 900 l 344 900 l 294 586 l 706 586 l 688 474 l 276 474 l 219 114 l 679 114 l 661 0 l 78 0 m 717 1135 q 656 1158 676 1135 q 642 1222 636 1182 q 677 1288 649 1264 q 746 1313 706 1313 q 806 1288 786 1313 q 819 1222 826 1264 q 785 1158 814 1182 q 717 1135 757 1135 m 408 1135 q 348 1158 368 1135 q 333 1222 328 1182 q 369 1288 340 1264 q 438 1313 397 1313 q 498 1288 478 1313 q 511 1222 518 1264 q 477 1158 506 1182 q 408 1135 449 1135 z "},"Ė":{"ha":833,"x_min":78,"x_max":822,"o":"m 78 0 l 239 1014 l 822 1014 l 804 900 l 344 900 l 294 586 l 706 586 l 688 474 l 276 474 l 219 114 l 679 114 l 661 0 l 78 0 m 563 1133 q 494 1158 517 1133 q 478 1222 472 1182 q 515 1287 485 1263 q 592 1311 546 1311 q 660 1287 638 1311 q 675 1222 682 1263 q 639 1158 669 1182 q 563 1133 608 1133 z "},"Ẹ":{"ha":833,"x_min":78,"x_max":822,"o":"m 78 0 l 239 1014 l 822 1014 l 804 900 l 344 900 l 294 586 l 706 586 l 688 474 l 276 474 l 219 114 l 679 114 l 661 0 l 78 0 m 336 -296 q 268 -272 290 -296 q 251 -208 246 -249 q 289 -142 258 -167 q 365 -118 319 -118 q 433 -142 411 -118 q 449 -208 456 -167 q 413 -272 443 -249 q 336 -296 382 -296 z "},"È":{"ha":833,"x_min":78,"x_max":822,"o":"m 78 0 l 239 1014 l 822 1014 l 804 900 l 344 900 l 294 586 l 706 586 l 688 474 l 276 474 l 219 114 l 679 114 l 661 0 l 78 0 m 519 1125 l 390 1319 l 521 1319 l 643 1125 l 519 1125 z "},"Ẻ":{"ha":833,"x_min":78,"x_max":822,"o":"m 78 0 l 239 1014 l 822 1014 l 804 900 l 344 900 l 294 586 l 706 586 l 688 474 l 276 474 l 219 114 l 679 114 l 661 0 l 78 0 m 464 1111 l 547 1199 q 565 1223 558 1211 q 574 1243 572 1235 q 539 1271 578 1271 l 431 1271 l 446 1361 l 592 1361 q 672 1334 644 1361 q 693 1258 700 1307 q 681 1218 690 1238 q 657 1183 671 1199 l 590 1111 l 464 1111 z "},"Ē":{"ha":833,"x_min":78,"x_max":822,"o":"m 78 0 l 239 1014 l 822 1014 l 804 900 l 344 900 l 294 586 l 706 586 l 688 474 l 276 474 l 219 114 l 679 114 l 661 0 l 78 0 m 346 1167 l 363 1271 l 807 1271 l 790 1167 l 346 1167 z "},"Ę":{"ha":833,"x_min":78,"x_max":822,"o":"m 515 -282 q 398 -245 439 -282 q 367 -153 357 -208 q 406 -72 374 -112 q 511 14 439 -32 l 615 14 l 597 1 q 519 -69 544 -37 q 488 -129 493 -100 q 501 -179 483 -160 q 553 -199 518 -199 l 636 -199 l 624 -282 l 515 -282 m 78 0 l 239 1014 l 822 1014 l 804 900 l 344 900 l 294 586 l 706 586 l 688 474 l 276 474 l 219 114 l 679 114 l 661 0 l 78 0 z "},"Ẽ":{"ha":833,"x_min":78,"x_max":822,"o":"m 78 0 l 239 1014 l 822 1014 l 804 900 l 344 900 l 294 586 l 706 586 l 688 474 l 276 474 l 219 114 l 679 114 l 661 0 l 78 0 m 660 1132 q 594 1147 618 1132 q 556 1181 571 1161 q 526 1215 540 1200 q 488 1229 511 1229 q 456 1217 469 1229 q 439 1181 442 1206 l 432 1139 l 342 1139 l 349 1181 q 399 1278 358 1243 q 494 1313 439 1313 q 560 1298 536 1313 q 599 1264 583 1283 q 628 1230 614 1244 q 667 1215 643 1215 q 699 1227 686 1215 q 715 1264 711 1239 l 722 1306 l 813 1306 l 806 1264 q 756 1167 796 1201 q 660 1132 717 1132 z "},"F":{"ha":833,"x_min":71,"x_max":829,"o":"m 71 0 l 232 1015 l 829 1015 l 811 901 l 336 901 l 282 564 l 721 564 l 703 450 l 267 450 l 196 0 l 71 0 z "},"G":{"ha":833,"x_min":92,"x_max":789,"o":"m 358 -14 q 205 21 267 -14 q 117 122 143 56 q 106 278 92 188 l 178 736 q 240 893 193 828 q 359 993 286 958 q 524 1028 432 1028 q 676 992 615 1028 q 763 892 736 957 q 775 736 789 826 l 650 736 q 626 869 664 822 q 506 915 588 915 q 370 869 424 915 q 303 738 317 824 l 231 278 q 256 144 217 192 q 376 97 294 97 q 511 144 458 97 q 578 278 564 192 l 597 403 l 392 403 l 410 517 l 740 517 l 703 278 q 642 123 689 189 q 522 22 594 57 q 358 -14 450 -14 z "},"Ǵ":{"ha":833,"x_min":92,"x_max":789,"o":"m 358 -14 q 205 21 267 -14 q 117 122 143 56 q 106 278 92 188 l 178 736 q 240 893 193 828 q 359 993 286 958 q 524 1028 432 1028 q 676 992 615 1028 q 763 892 736 957 q 775 736 789 826 l 650 736 q 626 869 664 822 q 506 915 588 915 q 370 869 424 915 q 303 738 317 824 l 231 278 q 256 144 217 192 q 376 97 294 97 q 511 144 458 97 q 578 278 564 192 l 597 403 l 392 403 l 410 517 l 740 517 l 703 278 q 642 123 689 189 q 522 22 594 57 q 358 -14 450 -14 m 449 1125 l 626 1319 l 768 1319 l 583 1125 l 449 1125 z "},"Ğ":{"ha":833,"x_min":92,"x_max":789,"o":"m 358 -14 q 205 21 267 -14 q 117 122 143 56 q 106 278 92 188 l 178 736 q 240 893 193 828 q 359 993 286 958 q 524 1028 432 1028 q 676 992 615 1028 q 763 892 736 957 q 775 736 789 826 l 650 736 q 626 869 664 822 q 506 915 588 915 q 370 869 424 915 q 303 738 317 824 l 231 278 q 256 144 217 192 q 376 97 294 97 q 511 144 458 97 q 578 278 564 192 l 597 403 l 392 403 l 410 517 l 740 517 l 703 278 q 642 123 689 189 q 522 22 594 57 q 358 -14 450 -14 m 532 1118 q 380 1174 432 1118 q 342 1319 328 1229 l 439 1319 q 459 1232 431 1265 q 543 1199 488 1199 q 639 1232 600 1199 q 686 1319 678 1265 l 786 1319 q 702 1174 772 1229 q 532 1118 632 1118 z "},"Ǧ":{"ha":833,"x_min":92,"x_max":815,"o":"m 358 -14 q 205 21 267 -14 q 117 122 143 56 q 106 278 92 188 l 178 736 q 240 893 193 828 q 359 993 286 958 q 524 1028 432 1028 q 676 992 615 1028 q 763 892 736 957 q 775 736 789 826 l 650 736 q 626 869 664 822 q 506 915 588 915 q 370 869 424 915 q 303 738 317 824 l 231 278 q 256 144 217 192 q 376 97 294 97 q 511 144 458 97 q 578 278 564 192 l 597 403 l 392 403 l 410 517 l 740 517 l 703 278 q 642 123 689 189 q 522 22 594 57 q 358 -14 450 -14 m 476 1125 l 313 1319 l 447 1319 l 544 1211 l 672 1319 l 815 1319 l 592 1125 l 476 1125 z "},"Ĝ":{"ha":833,"x_min":92,"x_max":789,"o":"m 358 -14 q 205 21 267 -14 q 117 122 143 56 q 106 278 92 188 l 178 736 q 240 893 193 828 q 359 993 286 958 q 524 1028 432 1028 q 676 992 615 1028 q 763 892 736 957 q 775 736 789 826 l 650 736 q 626 869 664 822 q 506 915 588 915 q 370 869 424 915 q 303 738 317 824 l 231 278 q 256 144 217 192 q 376 97 294 97 q 511 144 458 97 q 578 278 564 192 l 597 403 l 392 403 l 410 517 l 740 517 l 703 278 q 642 123 689 189 q 522 22 594 57 q 358 -14 450 -14 m 282 1125 l 506 1319 l 621 1319 l 785 1125 l 650 1125 l 554 1233 l 425 1125 l 282 1125 z "},"Ģ":{"ha":833,"x_min":92,"x_max":789,"o":"m 358 -14 q 205 21 267 -14 q 117 122 143 56 q 106 278 92 188 l 178 736 q 240 893 193 828 q 359 993 286 958 q 524 1028 432 1028 q 676 992 615 1028 q 763 892 736 957 q 775 736 789 826 l 650 736 q 626 869 664 822 q 506 915 588 915 q 370 869 424 915 q 303 738 317 824 l 231 278 q 256 144 217 192 q 376 97 294 97 q 511 144 458 97 q 578 278 564 192 l 597 403 l 392 403 l 410 517 l 740 517 l 703 278 q 642 123 689 189 q 522 22 594 57 q 358 -14 450 -14 m 158 -333 l 322 -132 l 463 -132 l 285 -333 l 158 -333 z "},"Ġ":{"ha":833,"x_min":92,"x_max":789,"o":"m 358 -14 q 205 21 267 -14 q 117 122 143 56 q 106 278 92 188 l 178 736 q 240 893 193 828 q 359 993 286 958 q 524 1028 432 1028 q 676 992 615 1028 q 763 892 736 957 q 775 736 789 826 l 650 736 q 626 869 664 822 q 506 915 588 915 q 370 869 424 915 q 303 738 317 824 l 231 278 q 256 144 217 192 q 376 97 294 97 q 511 144 458 97 q 578 278 564 192 l 597 403 l 392 403 l 410 517 l 740 517 l 703 278 q 642 123 689 189 q 522 22 594 57 q 358 -14 450 -14 m 535 1133 q 467 1158 489 1133 q 450 1222 444 1182 q 488 1287 457 1263 q 564 1311 518 1311 q 632 1287 610 1311 q 647 1222 654 1263 q 611 1158 642 1182 q 535 1133 581 1133 z "},"H":{"ha":833,"x_min":68,"x_max":804,"o":"m 68 0 l 229 1014 l 354 1014 l 285 581 l 610 581 l 679 1014 l 804 1014 l 643 0 l 518 0 l 592 467 l 267 467 l 193 0 l 68 0 z "},"Ħ":{"ha":833,"x_min":68,"x_max":890,"o":"m 69 729 l 86 833 l 890 833 l 874 729 l 69 729 m 68 0 l 229 1014 l 354 1014 l 285 581 l 610 581 l 679 1014 l 804 1014 l 643 0 l 518 0 l 592 467 l 267 467 l 193 0 l 68 0 z "},"Ĥ":{"ha":833,"x_min":68,"x_max":804,"o":"m 68 0 l 229 1014 l 354 1014 l 285 581 l 610 581 l 679 1014 l 804 1014 l 643 0 l 518 0 l 592 467 l 267 467 l 193 0 l 68 0 m 282 1125 l 506 1319 l 621 1319 l 785 1125 l 650 1125 l 554 1233 l 425 1125 l 282 1125 z "},"I":{"ha":833,"x_min":85,"x_max":788,"o":"m 85 0 l 103 114 l 310 114 l 435 900 l 228 900 l 246 1014 l 788 1014 l 769 900 l 563 900 l 438 114 l 644 114 l 626 0 l 85 0 z "},"Í":{"ha":833,"x_min":85,"x_max":788,"o":"m 85 0 l 103 114 l 310 114 l 435 900 l 228 900 l 246 1014 l 788 1014 l 769 900 l 563 900 l 438 114 l 644 114 l 626 0 l 85 0 m 449 1125 l 626 1319 l 768 1319 l 583 1125 l 449 1125 z "},"Ĭ":{"ha":833,"x_min":85,"x_max":788,"o":"m 85 0 l 103 114 l 310 114 l 435 900 l 228 900 l 246 1014 l 788 1014 l 769 900 l 563 900 l 438 114 l 644 114 l 626 0 l 85 0 m 532 1118 q 380 1174 432 1118 q 342 1319 328 1229 l 439 1319 q 459 1232 431 1265 q 543 1199 488 1199 q 639 1232 600 1199 q 686 1319 678 1265 l 786 1319 q 702 1174 772 1229 q 532 1118 632 1118 z "},"Î":{"ha":833,"x_min":85,"x_max":788,"o":"m 85 0 l 103 114 l 310 114 l 435 900 l 228 900 l 246 1014 l 788 1014 l 769 900 l 563 900 l 438 114 l 644 114 l 626 0 l 85 0 m 282 1125 l 506 1319 l 621 1319 l 785 1125 l 650 1125 l 554 1233 l 425 1125 l 282 1125 z "},"Ï":{"ha":833,"x_min":85,"x_max":799,"o":"m 85 0 l 103 114 l 310 114 l 435 900 l 228 900 l 246 1014 l 788 1014 l 769 900 l 563 900 l 438 114 l 644 114 l 626 0 l 85 0 m 689 1135 q 628 1158 649 1135 q 614 1222 608 1182 q 649 1288 621 1264 q 718 1313 678 1313 q 778 1288 758 1313 q 792 1222 799 1264 q 758 1158 786 1182 q 689 1135 729 1135 m 381 1135 q 320 1158 340 1135 q 306 1222 300 1182 q 341 1288 313 1264 q 410 1313 369 1313 q 470 1288 450 1313 q 483 1222 490 1264 q 449 1158 478 1182 q 381 1135 421 1135 z "},"İ":{"ha":833,"x_min":85,"x_max":788,"o":"m 85 0 l 103 114 l 310 114 l 435 900 l 228 900 l 246 1014 l 788 1014 l 769 900 l 563 900 l 438 114 l 644 114 l 626 0 l 85 0 m 535 1133 q 467 1158 489 1133 q 450 1222 444 1182 q 488 1287 457 1263 q 564 1311 518 1311 q 632 1287 610 1311 q 647 1222 654 1263 q 611 1158 642 1182 q 535 1133 581 1133 z "},"Ị":{"ha":833,"x_min":85,"x_max":788,"o":"m 85 0 l 103 114 l 310 114 l 435 900 l 228 900 l 246 1014 l 788 1014 l 769 900 l 563 900 l 438 114 l 644 114 l 626 0 l 85 0 m 308 -296 q 240 -272 263 -296 q 224 -208 218 -249 q 261 -142 231 -167 q 338 -118 292 -118 q 406 -142 383 -118 q 421 -208 428 -167 q 385 -272 415 -249 q 308 -296 354 -296 z "},"Ì":{"ha":833,"x_min":85,"x_max":788,"o":"m 85 0 l 103 114 l 310 114 l 435 900 l 228 900 l 246 1014 l 788 1014 l 769 900 l 563 900 l 438 114 l 644 114 l 626 0 l 85 0 m 492 1125 l 363 1319 l 493 1319 l 615 1125 l 492 1125 z "},"Ỉ":{"ha":833,"x_min":85,"x_max":788,"o":"m 85 0 l 103 114 l 310 114 l 435 900 l 228 900 l 246 1014 l 788 1014 l 769 900 l 563 900 l 438 114 l 644 114 l 626 0 l 85 0 m 489 1111 l 572 1199 q 590 1223 583 1211 q 599 1243 597 1235 q 564 1271 603 1271 l 456 1271 l 471 1361 l 617 1361 q 697 1334 669 1361 q 718 1258 725 1307 q 706 1218 715 1238 q 682 1183 696 1199 l 615 1111 l 489 1111 z "},"Ī":{"ha":833,"x_min":85,"x_max":788,"o":"m 85 0 l 103 114 l 310 114 l 435 900 l 228 900 l 246 1014 l 788 1014 l 769 900 l 563 900 l 438 114 l 644 114 l 626 0 l 85 0 m 318 1167 l 335 1271 l 779 1271 l 763 1167 l 318 1167 z "},"Į":{"ha":833,"x_min":85,"x_max":788,"o":"m 321 -282 q 203 -245 244 -282 q 172 -153 163 -208 q 212 -72 179 -112 q 317 14 244 -32 l 421 14 l 403 1 q 324 -69 350 -37 q 293 -129 299 -100 q 306 -179 289 -160 q 358 -199 324 -199 l 442 -199 l 429 -282 l 321 -282 m 85 0 l 103 114 l 310 114 l 435 900 l 228 900 l 246 1014 l 788 1014 l 769 900 l 563 900 l 438 114 l 644 114 l 626 0 l 85 0 z "},"Ĩ":{"ha":833,"x_min":85,"x_max":788,"o":"m 85 0 l 103 114 l 310 114 l 435 900 l 228 900 l 246 1014 l 788 1014 l 769 900 l 563 900 l 438 114 l 644 114 l 626 0 l 85 0 m 632 1132 q 567 1147 590 1132 q 528 1181 543 1161 q 498 1215 513 1200 q 460 1229 483 1229 q 428 1217 442 1229 q 411 1181 414 1206 l 404 1139 l 314 1139 l 321 1181 q 371 1278 331 1243 q 467 1313 411 1313 q 532 1298 508 1313 q 571 1264 556 1283 q 601 1230 586 1244 q 639 1215 615 1215 q 671 1227 658 1215 q 688 1264 683 1239 l 694 1306 l 785 1306 l 778 1264 q 728 1167 768 1201 q 632 1132 689 1132 z "},"J":{"ha":833,"x_min":25,"x_max":788,"o":"m 311 -14 q 95 68 165 -14 q 47 292 25 150 l 172 292 q 199 148 158 199 q 329 97 240 97 q 476 148 418 97 q 547 292 533 199 l 644 900 l 401 900 l 419 1014 l 788 1014 l 672 292 q 609 128 658 197 q 484 23 560 60 q 311 -14 408 -14 z "},"Ĵ":{"ha":833,"x_min":25,"x_max":868,"o":"m 311 -14 q 95 68 165 -14 q 47 292 25 150 l 172 292 q 199 148 158 199 q 329 97 240 97 q 476 148 418 97 q 547 292 533 199 l 644 900 l 401 900 l 419 1014 l 788 1014 l 672 292 q 609 128 658 197 q 484 23 560 60 q 311 -14 408 -14 m 365 1125 l 589 1319 l 704 1319 l 868 1125 l 733 1125 l 638 1233 l 508 1125 l 365 1125 z "},"K":{"ha":833,"x_min":67,"x_max":864,"o":"m 67 0 l 228 1014 l 353 1014 l 283 579 l 431 579 l 725 1014 l 864 1014 l 535 522 l 717 0 l 578 0 l 417 469 l 267 469 l 192 0 l 67 0 z "},"Ķ":{"ha":833,"x_min":67,"x_max":864,"o":"m 67 0 l 228 1014 l 353 1014 l 283 579 l 431 579 l 725 1014 l 864 1014 l 535 522 l 717 0 l 578 0 l 417 469 l 267 469 l 192 0 l 67 0 m 153 -333 l 317 -132 l 457 -132 l 279 -333 l 153 -333 z "},"L":{"ha":833,"x_min":99,"x_max":700,"o":"m 99 0 l 260 1014 l 385 1014 l 242 114 l 700 114 l 682 0 l 99 0 z "},"Ĺ":{"ha":833,"x_min":99,"x_max":700,"o":"m 99 0 l 260 1014 l 385 1014 l 242 114 l 700 114 l 682 0 l 99 0 m 256 1125 l 433 1319 l 575 1319 l 390 1125 l 256 1125 z "},"Ľ":{"ha":833,"x_min":99,"x_max":726,"o":"m 99 0 l 260 1014 l 385 1014 l 242 114 l 700 114 l 682 0 l 99 0 m 554 764 l 608 1014 l 726 1014 l 658 764 l 554 764 z "},"Ļ":{"ha":833,"x_min":99,"x_max":700,"o":"m 99 0 l 260 1014 l 385 1014 l 242 114 l 700 114 l 682 0 l 99 0 m 181 -333 l 344 -132 l 485 -132 l 307 -333 l 181 -333 z "},"Ŀ":{"ha":833,"x_min":99,"x_max":700,"o":"m 99 0 l 260 1014 l 385 1014 l 242 114 l 700 114 l 682 0 l 99 0 z "},"Ł":{"ha":833,"x_min":17,"x_max":700,"o":"m 17 314 l 35 431 l 604 783 l 586 667 l 17 314 m 99 0 l 260 1014 l 385 1014 l 242 114 l 700 114 l 682 0 l 99 0 z "},"M":{"ha":833,"x_min":44,"x_max":828,"o":"m 44 0 l 206 1014 l 367 1014 l 419 686 q 433 598 426 642 q 442 531 439 554 q 469 598 451 554 q 508 688 488 642 l 661 1014 l 828 1014 l 667 0 l 544 0 l 603 368 q 630 511 614 433 q 665 669 646 589 q 703 822 685 749 q 738 951 722 896 l 494 444 l 363 444 l 276 951 q 270 826 275 897 q 259 674 265 754 q 244 515 253 594 q 225 368 236 436 l 167 0 l 44 0 z "},"N":{"ha":833,"x_min":64,"x_max":808,"o":"m 64 0 l 225 1014 l 390 1014 l 564 146 q 571 231 567 181 q 582 338 575 282 q 597 444 589 394 l 688 1014 l 808 1014 l 647 0 l 482 0 l 310 868 q 302 784 307 835 q 290 677 297 733 q 275 569 283 621 l 185 0 l 64 0 z "},"Ń":{"ha":833,"x_min":64,"x_max":808,"o":"m 64 0 l 225 1014 l 390 1014 l 564 146 q 571 231 567 181 q 582 338 575 282 q 597 444 589 394 l 688 1014 l 808 1014 l 647 0 l 482 0 l 310 868 q 302 784 307 835 q 290 677 297 733 q 275 569 283 621 l 185 0 l 64 0 m 449 1125 l 626 1319 l 768 1319 l 583 1125 l 449 1125 z "},"Ň":{"ha":833,"x_min":64,"x_max":815,"o":"m 64 0 l 225 1014 l 390 1014 l 564 146 q 571 231 567 181 q 582 338 575 282 q 597 444 589 394 l 688 1014 l 808 1014 l 647 0 l 482 0 l 310 868 q 302 784 307 835 q 290 677 297 733 q 275 569 283 621 l 185 0 l 64 0 m 476 1125 l 313 1319 l 447 1319 l 544 1211 l 672 1319 l 815 1319 l 592 1125 l 476 1125 z "},"Ņ":{"ha":833,"x_min":64,"x_max":808,"o":"m 64 0 l 225 1014 l 390 1014 l 564 146 q 571 231 567 181 q 582 338 575 282 q 597 444 589 394 l 688 1014 l 808 1014 l 647 0 l 482 0 l 310 868 q 302 784 307 835 q 290 677 297 733 q 275 569 283 621 l 185 0 l 64 0 m 150 -333 l 314 -132 l 460 -132 l 282 -333 l 150 -333 z "},"Ŋ":{"ha":833,"x_min":64,"x_max":808,"o":"m 232 -250 l 250 -136 l 340 -136 q 464 -94 414 -136 q 525 21 514 -51 l 310 868 q 302 784 307 835 q 290 677 297 733 q 275 569 283 621 l 185 0 l 64 0 l 225 1014 l 389 1014 l 581 249 q 588 335 583 283 q 599 444 593 386 q 614 551 606 501 l 688 1014 l 808 1014 l 650 21 q 592 -122 638 -61 q 478 -217 547 -183 q 322 -250 408 -250 l 232 -250 z "},"Ñ":{"ha":833,"x_min":64,"x_max":808,"o":"m 64 0 l 225 1014 l 390 1014 l 564 146 q 571 231 567 181 q 582 338 575 282 q 597 444 589 394 l 688 1014 l 808 1014 l 647 0 l 482 0 l 310 868 q 302 784 307 835 q 290 677 297 733 q 275 569 283 621 l 185 0 l 64 0 m 632 1132 q 567 1147 590 1132 q 528 1181 543 1161 q 498 1215 513 1200 q 460 1229 483 1229 q 428 1217 442 1229 q 411 1181 414 1206 l 404 1139 l 314 1139 l 321 1181 q 371 1278 331 1243 q 467 1313 411 1313 q 532 1298 508 1313 q 571 1264 556 1283 q 601 1230 586 1244 q 639 1215 615 1215 q 671 1227 658 1215 q 688 1264 683 1239 l 694 1306 l 785 1306 l 778 1264 q 728 1167 768 1201 q 632 1132 689 1132 z "},"O":{"ha":833,"x_min":92,"x_max":782,"o":"m 353 -14 q 202 21 263 -14 q 117 122 142 56 q 106 278 92 188 l 178 736 q 239 893 193 828 q 356 993 285 958 q 518 1028 428 1028 q 670 993 610 1028 q 756 893 731 958 q 767 738 782 828 l 694 278 q 634 122 681 188 q 516 21 588 56 q 353 -14 444 -14 m 371 99 q 504 145 453 99 q 569 278 556 192 l 642 736 q 619 869 656 822 q 500 915 582 915 q 368 869 419 915 q 303 736 317 822 l 231 278 q 253 145 217 192 q 371 99 290 99 z "},"Ó":{"ha":833,"x_min":92,"x_max":782,"o":"m 353 -14 q 202 21 263 -14 q 117 122 142 56 q 106 278 92 188 l 178 736 q 239 893 193 828 q 356 993 285 958 q 518 1028 428 1028 q 670 993 610 1028 q 756 893 731 958 q 767 738 782 828 l 694 278 q 634 122 681 188 q 516 21 588 56 q 353 -14 444 -14 m 371 99 q 504 145 453 99 q 569 278 556 192 l 642 736 q 619 869 656 822 q 500 915 582 915 q 368 869 419 915 q 303 736 317 822 l 231 278 q 253 145 217 192 q 371 99 290 99 m 449 1125 l 626 1319 l 768 1319 l 583 1125 l 449 1125 z "},"Ŏ":{"ha":833,"x_min":92,"x_max":786,"o":"m 353 -14 q 202 21 263 -14 q 117 122 142 56 q 106 278 92 188 l 178 736 q 239 893 193 828 q 356 993 285 958 q 518 1028 428 1028 q 670 993 610 1028 q 756 893 731 958 q 767 738 782 828 l 694 278 q 634 122 681 188 q 516 21 588 56 q 353 -14 444 -14 m 371 99 q 504 145 453 99 q 569 278 556 192 l 642 736 q 619 869 656 822 q 500 915 582 915 q 368 869 419 915 q 303 736 317 822 l 231 278 q 253 145 217 192 q 371 99 290 99 m 532 1118 q 380 1174 432 1118 q 342 1319 328 1229 l 439 1319 q 459 1232 431 1265 q 543 1199 488 1199 q 639 1232 600 1199 q 686 1319 678 1265 l 786 1319 q 702 1174 772 1229 q 532 1118 632 1118 z "},"Ô":{"ha":833,"x_min":92,"x_max":785,"o":"m 353 -14 q 202 21 263 -14 q 117 122 142 56 q 106 278 92 188 l 178 736 q 239 893 193 828 q 356 993 285 958 q 518 1028 428 1028 q 670 993 610 1028 q 756 893 731 958 q 767 738 782 828 l 694 278 q 634 122 681 188 q 516 21 588 56 q 353 -14 444 -14 m 371 99 q 504 145 453 99 q 569 278 556 192 l 642 736 q 619 869 656 822 q 500 915 582 915 q 368 869 419 915 q 303 736 317 822 l 231 278 q 253 145 217 192 q 371 99 290 99 m 282 1125 l 506 1319 l 621 1319 l 785 1125 l 650 1125 l 554 1233 l 425 1125 l 282 1125 z "},"Ố":{"ha":833,"x_min":92,"x_max":1021,"o":"m 353 -14 q 202 21 263 -14 q 117 122 142 56 q 106 278 92 188 l 178 736 q 239 893 193 828 q 356 993 285 958 q 518 1028 428 1028 q 670 993 610 1028 q 756 893 731 958 q 767 738 782 828 l 694 278 q 634 122 681 188 q 516 21 588 56 q 353 -14 444 -14 m 371 99 q 504 145 453 99 q 569 278 556 192 l 642 736 q 619 869 656 822 q 500 915 582 915 q 368 869 419 915 q 303 736 317 822 l 231 278 q 253 145 217 192 q 371 99 290 99 m 701 1250 l 874 1417 l 1021 1417 l 842 1250 l 701 1250 m 278 1083 l 500 1278 l 617 1278 l 779 1083 l 643 1083 l 549 1192 l 419 1083 l 278 1083 z "},"Ộ":{"ha":833,"x_min":92,"x_max":785,"o":"m 282 1125 l 506 1319 l 621 1319 l 785 1125 l 650 1125 l 554 1233 l 425 1125 l 282 1125 m 353 -14 q 202 21 263 -14 q 117 122 142 56 q 106 278 92 188 l 178 736 q 239 893 193 828 q 356 993 285 958 q 518 1028 428 1028 q 670 993 610 1028 q 756 893 731 958 q 767 738 782 828 l 694 278 q 634 122 681 188 q 516 21 588 56 q 353 -14 444 -14 m 371 99 q 504 145 453 99 q 569 278 556 192 l 642 736 q 619 869 656 822 q 500 915 582 915 q 368 869 419 915 q 303 736 317 822 l 231 278 q 253 145 217 192 q 371 99 290 99 m 308 -296 q 240 -272 263 -296 q 224 -208 218 -249 q 261 -142 231 -167 q 338 -118 292 -118 q 406 -142 383 -118 q 421 -208 428 -167 q 385 -272 415 -249 q 308 -296 354 -296 z "},"Ồ":{"ha":833,"x_min":92,"x_max":885,"o":"m 353 -14 q 202 21 263 -14 q 117 122 142 56 q 106 278 92 188 l 178 736 q 239 893 193 828 q 356 993 285 958 q 518 1028 428 1028 q 670 993 610 1028 q 756 893 731 958 q 767 738 782 828 l 694 278 q 634 122 681 188 q 516 21 588 56 q 353 -14 444 -14 m 371 99 q 504 145 453 99 q 569 278 556 192 l 642 736 q 619 869 656 822 q 500 915 582 915 q 368 869 419 915 q 303 736 317 822 l 231 278 q 253 145 217 192 q 371 99 290 99 m 758 1250 l 618 1417 l 751 1417 l 885 1250 l 758 1250 m 278 1083 l 500 1278 l 617 1278 l 779 1083 l 643 1083 l 549 1192 l 419 1083 l 278 1083 z "},"Ổ":{"ha":833,"x_min":92,"x_max":921,"o":"m 353 -14 q 202 21 263 -14 q 117 122 142 56 q 106 278 92 188 l 178 736 q 239 893 193 828 q 356 993 285 958 q 518 1028 428 1028 q 670 993 610 1028 q 756 893 731 958 q 767 738 782 828 l 694 278 q 634 122 681 188 q 516 21 588 56 q 353 -14 444 -14 m 371 99 q 504 145 453 99 q 569 278 556 192 l 642 736 q 619 869 656 822 q 500 915 582 915 q 368 869 419 915 q 303 736 317 822 l 231 278 q 253 145 217 192 q 371 99 290 99 m 710 1222 l 788 1288 q 798 1300 794 1293 q 803 1314 801 1307 q 785 1336 806 1336 l 699 1336 l 713 1417 l 831 1417 q 898 1393 875 1417 q 914 1331 921 1369 q 903 1297 911 1313 q 882 1271 894 1282 l 826 1222 l 710 1222 m 278 1083 l 500 1278 l 617 1278 l 779 1083 l 643 1083 l 549 1192 l 419 1083 l 278 1083 z "},"Ỗ":{"ha":833,"x_min":92,"x_max":807,"o":"m 353 -14 q 202 21 263 -14 q 117 122 142 56 q 106 278 92 188 l 178 736 q 239 893 193 828 q 356 993 285 958 q 518 1028 428 1028 q 670 993 610 1028 q 756 893 731 958 q 767 738 782 828 l 694 278 q 634 122 681 188 q 516 21 588 56 q 353 -14 444 -14 m 371 99 q 504 145 453 99 q 569 278 556 192 l 642 736 q 619 869 656 822 q 500 915 582 915 q 368 869 419 915 q 303 736 317 822 l 231 278 q 253 145 217 192 q 371 99 290 99 m 665 1278 q 598 1288 624 1278 q 553 1310 572 1297 q 516 1333 535 1324 q 471 1343 497 1343 q 422 1301 429 1343 l 421 1292 l 331 1292 l 332 1301 q 379 1385 339 1354 q 476 1417 419 1417 q 544 1407 518 1417 q 588 1384 569 1397 q 623 1361 606 1371 q 667 1351 640 1351 q 699 1363 686 1351 q 715 1393 713 1375 l 717 1403 l 807 1403 l 806 1393 q 760 1309 799 1340 q 665 1278 722 1278 m 278 1083 l 463 1236 l 640 1236 l 778 1083 l 642 1083 l 547 1185 l 419 1083 l 278 1083 z "},"Ö":{"ha":833,"x_min":92,"x_max":799,"o":"m 353 -14 q 202 21 263 -14 q 117 122 142 56 q 106 278 92 188 l 178 736 q 239 893 193 828 q 356 993 285 958 q 518 1028 428 1028 q 670 993 610 1028 q 756 893 731 958 q 767 738 782 828 l 694 278 q 634 122 681 188 q 516 21 588 56 q 353 -14 444 -14 m 371 99 q 504 145 453 99 q 569 278 556 192 l 642 736 q 619 869 656 822 q 500 915 582 915 q 368 869 419 915 q 303 736 317 822 l 231 278 q 253 145 217 192 q 371 99 290 99 m 689 1135 q 628 1158 649 1135 q 614 1222 608 1182 q 649 1288 621 1264 q 718 1313 678 1313 q 778 1288 758 1313 q 792 1222 799 1264 q 758 1158 786 1182 q 689 1135 729 1135 m 381 1135 q 320 1158 340 1135 q 306 1222 300 1182 q 341 1288 313 1264 q 410 1313 369 1313 q 470 1288 450 1313 q 483 1222 490 1264 q 449 1158 478 1182 q 381 1135 421 1135 z "},"Ọ":{"ha":833,"x_min":92,"x_max":782,"o":"m 353 -14 q 202 21 263 -14 q 117 122 142 56 q 106 278 92 188 l 178 736 q 239 893 193 828 q 356 993 285 958 q 518 1028 428 1028 q 670 993 610 1028 q 756 893 731 958 q 767 738 782 828 l 694 278 q 634 122 681 188 q 516 21 588 56 q 353 -14 444 -14 m 371 99 q 504 145 453 99 q 569 278 556 192 l 642 736 q 619 869 656 822 q 500 915 582 915 q 368 869 419 915 q 303 736 317 822 l 231 278 q 253 145 217 192 q 371 99 290 99 m 322 -296 q 254 -272 276 -296 q 238 -208 232 -249 q 275 -142 244 -167 q 351 -118 306 -118 q 419 -142 397 -118 q 435 -208 442 -167 q 399 -272 429 -249 q 322 -296 368 -296 z "},"Ò":{"ha":833,"x_min":92,"x_max":782,"o":"m 353 -14 q 202 21 263 -14 q 117 122 142 56 q 106 278 92 188 l 178 736 q 239 893 193 828 q 356 993 285 958 q 518 1028 428 1028 q 670 993 610 1028 q 756 893 731 958 q 767 738 782 828 l 694 278 q 634 122 681 188 q 516 21 588 56 q 353 -14 444 -14 m 371 99 q 504 145 453 99 q 569 278 556 192 l 642 736 q 619 869 656 822 q 500 915 582 915 q 368 869 419 915 q 303 736 317 822 l 231 278 q 253 145 217 192 q 371 99 290 99 m 492 1125 l 363 1319 l 493 1319 l 615 1125 l 492 1125 z "},"Ỏ":{"ha":833,"x_min":92,"x_max":782,"o":"m 353 -14 q 202 21 263 -14 q 117 122 142 56 q 106 278 92 188 l 178 736 q 239 893 193 828 q 356 993 285 958 q 518 1028 428 1028 q 670 993 610 1028 q 756 893 731 958 q 767 738 782 828 l 694 278 q 634 122 681 188 q 516 21 588 56 q 353 -14 444 -14 m 371 99 q 504 145 453 99 q 569 278 556 192 l 642 736 q 619 869 656 822 q 500 915 582 915 q 368 869 419 915 q 303 736 317 822 l 231 278 q 253 145 217 192 q 371 99 290 99 m 489 1111 l 572 1199 q 590 1223 583 1211 q 599 1243 597 1235 q 564 1271 603 1271 l 456 1271 l 471 1361 l 617 1361 q 697 1334 669 1361 q 718 1258 725 1307 q 706 1218 715 1238 q 682 1183 696 1199 l 615 1111 l 489 1111 z "},"Ơ":{"ha":833,"x_min":92,"x_max":853,"o":"m 635 882 l 649 972 l 676 972 q 714 985 699 972 q 732 1021 729 999 l 749 1125 l 853 1125 l 836 1014 q 781 918 826 954 q 669 882 736 882 l 635 882 m 353 -14 q 202 21 263 -14 q 117 122 142 56 q 106 278 92 188 l 178 736 q 239 893 193 828 q 356 993 285 958 q 518 1028 428 1028 q 670 993 610 1028 q 756 893 731 958 q 767 738 782 828 l 694 278 q 634 122 681 188 q 516 21 588 56 q 353 -14 444 -14 m 371 99 q 504 145 453 99 q 569 278 556 192 l 642 736 q 619 869 656 822 q 500 915 582 915 q 368 869 419 915 q 303 736 317 822 l 231 278 q 253 145 217 192 q 371 99 290 99 z "},"Ớ":{"ha":833,"x_min":92,"x_max":853,"o":"m 635 882 l 649 972 l 676 972 q 714 985 699 972 q 732 1021 729 999 l 749 1125 l 853 1125 l 836 1014 q 781 918 826 954 q 669 882 736 882 l 635 882 m 353 -14 q 202 21 263 -14 q 117 122 142 56 q 106 278 92 188 l 178 736 q 239 893 193 828 q 356 993 285 958 q 518 1028 428 1028 q 670 993 610 1028 q 756 893 731 958 q 767 738 782 828 l 694 278 q 634 122 681 188 q 516 21 588 56 q 353 -14 444 -14 m 371 99 q 504 145 453 99 q 569 278 556 192 l 642 736 q 619 869 656 822 q 500 915 582 915 q 368 869 419 915 q 303 736 317 822 l 231 278 q 253 145 217 192 q 371 99 290 99 m 435 1125 l 613 1319 l 754 1319 l 569 1125 l 435 1125 z "},"Ợ":{"ha":833,"x_min":92,"x_max":853,"o":"m 635 882 l 649 972 l 676 972 q 714 985 699 972 q 732 1021 729 999 l 749 1125 l 853 1125 l 836 1014 q 781 918 826 954 q 669 882 736 882 l 635 882 m 353 -14 q 202 21 263 -14 q 117 122 142 56 q 106 278 92 188 l 178 736 q 239 893 193 828 q 356 993 285 958 q 518 1028 428 1028 q 670 993 610 1028 q 756 893 731 958 q 767 738 782 828 l 694 278 q 634 122 681 188 q 516 21 588 56 q 353 -14 444 -14 m 371 99 q 504 145 453 99 q 569 278 556 192 l 642 736 q 619 869 656 822 q 500 915 582 915 q 368 869 419 915 q 303 736 317 822 l 231 278 q 253 145 217 192 q 371 99 290 99 m 322 -296 q 254 -272 276 -296 q 238 -208 232 -249 q 275 -142 244 -167 q 351 -118 306 -118 q 419 -142 397 -118 q 435 -208 442 -167 q 399 -272 429 -249 q 322 -296 368 -296 z "},"Ờ":{"ha":833,"x_min":92,"x_max":853,"o":"m 635 882 l 649 972 l 676 972 q 714 985 699 972 q 732 1021 729 999 l 749 1125 l 853 1125 l 836 1014 q 781 918 826 954 q 669 882 736 882 l 635 882 m 353 -14 q 202 21 263 -14 q 117 122 142 56 q 106 278 92 188 l 178 736 q 239 893 193 828 q 356 993 285 958 q 518 1028 428 1028 q 670 993 610 1028 q 756 893 731 958 q 767 738 782 828 l 694 278 q 634 122 681 188 q 516 21 588 56 q 353 -14 444 -14 m 371 99 q 504 145 453 99 q 569 278 556 192 l 642 736 q 619 869 656 822 q 500 915 582 915 q 368 869 419 915 q 303 736 317 822 l 231 278 q 253 145 217 192 q 371 99 290 99 m 478 1125 l 349 1319 l 479 1319 l 601 1125 l 478 1125 z "},"Ở":{"ha":833,"x_min":92,"x_max":853,"o":"m 635 882 l 649 972 l 676 972 q 714 985 699 972 q 732 1021 729 999 l 749 1125 l 853 1125 l 836 1014 q 781 918 826 954 q 669 882 736 882 l 635 882 m 353 -14 q 202 21 263 -14 q 117 122 142 56 q 106 278 92 188 l 178 736 q 239 893 193 828 q 356 993 285 958 q 518 1028 428 1028 q 670 993 610 1028 q 756 893 731 958 q 767 738 782 828 l 694 278 q 634 122 681 188 q 516 21 588 56 q 353 -14 444 -14 m 371 99 q 504 145 453 99 q 569 278 556 192 l 642 736 q 619 869 656 822 q 500 915 582 915 q 368 869 419 915 q 303 736 317 822 l 231 278 q 253 145 217 192 q 371 99 290 99 m 464 1111 l 547 1199 q 565 1223 558 1211 q 574 1243 572 1235 q 539 1271 578 1271 l 431 1271 l 446 1361 l 592 1361 q 672 1334 644 1361 q 693 1258 700 1307 q 681 1218 690 1238 q 657 1183 671 1199 l 590 1111 l 464 1111 z "},"Ỡ":{"ha":833,"x_min":92,"x_max":853,"o":"m 635 882 l 649 972 l 676 972 q 714 985 699 972 q 732 1021 729 999 l 749 1125 l 853 1125 l 836 1014 q 781 918 826 954 q 669 882 736 882 l 635 882 m 353 -14 q 202 21 263 -14 q 117 122 142 56 q 106 278 92 188 l 178 736 q 239 893 193 828 q 356 993 285 958 q 518 1028 428 1028 q 670 993 610 1028 q 756 893 731 958 q 767 738 782 828 l 694 278 q 634 122 681 188 q 516 21 588 56 q 353 -14 444 -14 m 371 99 q 504 145 453 99 q 569 278 556 192 l 642 736 q 619 869 656 822 q 500 915 582 915 q 368 869 419 915 q 303 736 317 822 l 231 278 q 253 145 217 192 q 371 99 290 99 m 618 1132 q 553 1147 576 1132 q 514 1181 529 1161 q 484 1215 499 1200 q 446 1229 469 1229 q 414 1217 428 1229 q 397 1181 400 1206 l 390 1139 l 300 1139 l 307 1181 q 357 1278 317 1243 q 453 1313 397 1313 q 518 1298 494 1313 q 557 1264 542 1283 q 587 1230 572 1244 q 625 1215 601 1215 q 657 1227 644 1215 q 674 1264 669 1239 l 681 1306 l 771 1306 l 764 1264 q 715 1167 754 1201 q 618 1132 675 1132 z "},"Ő":{"ha":833,"x_min":92,"x_max":885,"o":"m 353 -14 q 202 21 263 -14 q 117 122 142 56 q 106 278 92 188 l 178 736 q 239 893 193 828 q 356 993 285 958 q 518 1028 428 1028 q 670 993 610 1028 q 756 893 731 958 q 767 738 782 828 l 694 278 q 634 122 681 188 q 516 21 588 56 q 353 -14 444 -14 m 371 99 q 504 145 453 99 q 569 278 556 192 l 642 736 q 619 869 656 822 q 500 915 582 915 q 368 869 419 915 q 303 736 317 822 l 231 278 q 253 145 217 192 q 371 99 290 99 m 569 1125 l 753 1319 l 885 1319 l 694 1125 l 569 1125 m 317 1125 l 500 1319 l 632 1319 l 442 1125 l 317 1125 z "},"Ō":{"ha":833,"x_min":92,"x_max":782,"o":"m 353 -14 q 202 21 263 -14 q 117 122 142 56 q 106 278 92 188 l 178 736 q 239 893 193 828 q 356 993 285 958 q 518 1028 428 1028 q 670 993 610 1028 q 756 893 731 958 q 767 738 782 828 l 694 278 q 634 122 681 188 q 516 21 588 56 q 353 -14 444 -14 m 371 99 q 504 145 453 99 q 569 278 556 192 l 642 736 q 619 869 656 822 q 500 915 582 915 q 368 869 419 915 q 303 736 317 822 l 231 278 q 253 145 217 192 q 371 99 290 99 m 318 1167 l 335 1271 l 779 1271 l 763 1167 l 318 1167 z "},"Ǫ":{"ha":833,"x_min":92,"x_max":782,"o":"m 421 -282 q 303 -245 344 -282 q 272 -153 263 -208 q 288 -110 275 -133 q 322 -62 300 -87 q 371 -14 343 -37 q 362 -14 367 -14 q 353 -14 357 -14 q 202 21 263 -14 q 117 122 142 56 q 106 278 92 188 l 178 736 q 239 893 193 828 q 356 993 285 958 q 518 1028 428 1028 q 670 993 610 1028 q 756 893 731 958 q 767 738 782 828 l 694 278 q 642 133 681 196 q 542 35 603 71 l 496 1 q 422 -69 444 -37 q 393 -129 399 -100 q 406 -179 389 -160 q 458 -199 424 -199 l 542 -199 l 529 -282 l 421 -282 m 371 99 q 504 145 453 99 q 569 278 556 192 l 642 736 q 619 869 656 822 q 500 915 582 915 q 368 869 419 915 q 303 736 317 822 l 231 278 q 253 145 217 192 q 371 99 290 99 z "},"Ø":{"ha":833,"x_min":-21,"x_max":889,"o":"m -21 -56 l 769 1042 l 889 1042 l 99 -56 l -21 -56 m 353 -14 q 202 21 263 -14 q 117 122 142 56 q 106 278 92 188 l 178 736 q 239 893 193 828 q 356 993 285 958 q 518 1028 428 1028 q 669 993 610 1028 q 755 893 729 958 q 767 738 781 828 l 694 278 q 634 122 681 188 q 516 21 588 56 q 353 -14 444 -14 m 371 99 q 504 145 453 99 q 569 278 556 192 l 642 736 q 619 869 656 822 q 500 915 582 915 q 368 869 419 915 q 303 736 317 822 l 231 278 q 253 145 217 192 q 371 99 290 99 z "},"Ǿ":{"ha":833,"x_min":-21,"x_max":889,"o":"m -21 -56 l 769 1042 l 889 1042 l 99 -56 l -21 -56 m 353 -14 q 202 21 263 -14 q 117 122 142 56 q 106 278 92 188 l 178 736 q 239 893 193 828 q 356 993 285 958 q 518 1028 428 1028 q 669 993 610 1028 q 755 893 729 958 q 767 738 781 828 l 694 278 q 634 122 681 188 q 516 21 588 56 q 353 -14 444 -14 m 371 99 q 504 145 453 99 q 569 278 556 192 l 642 736 q 619 869 656 822 q 500 915 582 915 q 368 869 419 915 q 303 736 317 822 l 231 278 q 253 145 217 192 q 371 99 290 99 m 449 1125 l 626 1319 l 768 1319 l 583 1125 l 449 1125 z "},"Õ":{"ha":833,"x_min":92,"x_max":785,"o":"m 353 -14 q 202 21 263 -14 q 117 122 142 56 q 106 278 92 188 l 178 736 q 239 893 193 828 q 356 993 285 958 q 518 1028 428 1028 q 670 993 610 1028 q 756 893 731 958 q 767 738 782 828 l 694 278 q 634 122 681 188 q 516 21 588 56 q 353 -14 444 -14 m 371 99 q 504 145 453 99 q 569 278 556 192 l 642 736 q 619 869 656 822 q 500 915 582 915 q 368 869 419 915 q 303 736 317 822 l 231 278 q 253 145 217 192 q 371 99 290 99 m 632 1132 q 567 1147 590 1132 q 528 1181 543 1161 q 498 1215 513 1200 q 460 1229 483 1229 q 428 1217 442 1229 q 411 1181 414 1206 l 404 1139 l 314 1139 l 321 1181 q 371 1278 331 1243 q 467 1313 411 1313 q 532 1298 508 1313 q 571 1264 556 1283 q 601 1230 586 1244 q 639 1215 615 1215 q 671 1227 658 1215 q 688 1264 683 1239 l 694 1306 l 785 1306 l 778 1264 q 728 1167 768 1201 q 632 1132 689 1132 z "},"Œ":{"ha":833,"x_min":22,"x_max":899,"o":"m 207 -14 q 97 18 140 -14 q 38 110 54 50 q 35 250 22 169 l 115 764 q 164 905 129 846 q 252 996 199 964 q 372 1028 306 1028 q 450 1008 421 1028 q 492 959 479 988 q 506 903 506 931 l 513 903 l 531 1014 l 899 1014 l 881 900 l 635 900 l 583 581 l 794 581 l 776 467 l 565 467 l 510 114 l 756 114 l 738 0 l 369 0 l 388 111 l 381 111 q 349 56 372 85 q 291 6 326 26 q 207 -14 256 -14 m 260 97 q 358 138 318 97 q 410 250 399 179 l 490 764 q 475 876 501 835 q 390 917 449 917 q 292 876 332 917 q 240 764 251 835 l 160 250 q 175 138 149 179 q 260 97 201 97 z "},"P":{"ha":833,"x_min":67,"x_max":831,"o":"m 67 0 l 228 1014 l 554 1014 q 713 977 649 1014 q 803 874 776 940 q 817 715 831 807 q 753 558 803 625 q 629 453 704 490 q 460 417 554 417 l 258 417 l 192 0 l 67 0 m 275 529 l 476 529 q 616 580 558 529 q 688 715 674 631 q 660 851 701 801 q 536 901 618 901 l 335 901 l 275 529 z "},"Þ":{"ha":833,"x_min":64,"x_max":806,"o":"m 64 0 l 225 1014 l 350 1014 l 317 806 l 529 806 q 735 729 665 806 q 786 528 806 653 q 726 381 774 443 q 606 284 679 318 q 442 250 533 250 l 229 250 l 189 0 l 64 0 m 246 361 l 458 361 q 592 406 539 361 q 657 528 644 451 q 630 650 669 606 q 511 694 590 694 l 299 694 l 246 361 z "},"Q":{"ha":833,"x_min":81,"x_max":792,"o":"m 489 -250 l 381 -4 l 397 -10 q 375 -12 386 -11 q 353 -14 364 -14 q 197 23 260 -14 q 107 127 133 60 q 94 285 81 194 l 165 729 q 228 888 181 821 q 350 991 275 954 q 518 1028 425 1028 q 675 991 613 1028 q 765 888 738 954 q 776 729 792 821 l 706 285 q 628 107 689 181 q 475 6 567 33 l 483 69 l 625 -250 l 489 -250 m 371 97 q 510 149 453 97 q 581 285 567 200 l 651 729 q 624 866 665 815 q 501 917 583 917 q 362 866 419 917 q 290 729 304 815 l 219 285 q 247 149 206 200 q 371 97 289 97 z "},"R":{"ha":833,"x_min":67,"x_max":810,"o":"m 67 0 l 228 1014 l 542 1014 q 694 977 632 1014 q 783 875 756 940 q 796 722 810 810 q 747 588 785 647 q 649 489 708 528 q 517 436 590 450 l 532 499 l 696 0 l 554 0 l 422 431 l 260 431 l 192 0 l 67 0 m 278 543 l 467 543 q 599 592 544 543 q 667 722 654 642 q 641 853 681 804 q 524 901 601 901 l 335 901 l 278 543 z "},"Ŕ":{"ha":833,"x_min":67,"x_max":810,"o":"m 67 0 l 228 1014 l 542 1014 q 694 977 632 1014 q 783 875 756 940 q 796 722 810 810 q 747 588 785 647 q 649 489 708 528 q 517 436 590 450 l 532 499 l 696 0 l 554 0 l 422 431 l 260 431 l 192 0 l 67 0 m 278 543 l 467 543 q 599 592 544 543 q 667 722 654 642 q 641 853 681 804 q 524 901 601 901 l 335 901 l 278 543 m 449 1125 l 626 1319 l 768 1319 l 583 1125 l 449 1125 z "},"Ř":{"ha":833,"x_min":67,"x_max":815,"o":"m 67 0 l 228 1014 l 542 1014 q 694 977 632 1014 q 783 875 756 940 q 796 722 810 810 q 747 588 785 647 q 649 489 708 528 q 517 436 590 450 l 532 499 l 696 0 l 554 0 l 422 431 l 260 431 l 192 0 l 67 0 m 278 543 l 467 543 q 599 592 544 543 q 667 722 654 642 q 641 853 681 804 q 524 901 601 901 l 335 901 l 278 543 m 476 1125 l 313 1319 l 447 1319 l 544 1211 l 672 1319 l 815 1319 l 592 1125 l 476 1125 z "},"Ŗ":{"ha":833,"x_min":67,"x_max":810,"o":"m 67 0 l 228 1014 l 542 1014 q 694 977 632 1014 q 783 875 756 940 q 796 722 810 810 q 747 588 785 647 q 649 489 708 528 q 517 436 590 450 l 532 499 l 696 0 l 554 0 l 422 431 l 260 431 l 192 0 l 67 0 m 278 543 l 467 543 q 599 592 544 543 q 667 722 654 642 q 641 853 681 804 q 524 901 601 901 l 335 901 l 278 543 m 150 -333 l 314 -132 l 460 -132 l 282 -333 l 150 -333 z "},"S":{"ha":833,"x_min":63,"x_max":797,"o":"m 358 -14 q 136 60 210 -14 q 81 264 63 135 l 206 264 q 238 143 193 188 q 376 99 283 99 q 520 142 464 99 q 589 261 576 185 q 573 372 599 326 q 492 436 547 418 l 361 479 q 218 585 264 511 q 186 758 172 658 q 246 901 200 840 q 364 995 292 961 q 526 1029 436 1029 q 728 955 660 1029 q 779 757 797 881 l 654 757 q 628 874 667 832 q 508 917 590 917 q 376 878 428 917 q 314 769 325 839 q 330 658 304 706 q 413 592 356 611 l 544 547 q 685 440 640 515 q 714 264 729 365 q 652 118 701 181 q 527 21 603 56 q 358 -14 451 -14 z "},"Ś":{"ha":833,"x_min":63,"x_max":797,"o":"m 358 -14 q 136 60 210 -14 q 81 264 63 135 l 206 264 q 238 143 193 188 q 376 99 283 99 q 520 142 464 99 q 589 261 576 185 q 573 372 599 326 q 492 436 547 418 l 361 479 q 218 585 264 511 q 186 758 172 658 q 246 901 200 840 q 364 995 292 961 q 526 1029 436 1029 q 728 955 660 1029 q 779 757 797 881 l 654 757 q 628 874 667 832 q 508 917 590 917 q 376 878 428 917 q 314 769 325 839 q 330 658 304 706 q 413 592 356 611 l 544 547 q 685 440 640 515 q 714 264 729 365 q 652 118 701 181 q 527 21 603 56 q 358 -14 451 -14 m 449 1125 l 626 1319 l 768 1319 l 583 1125 l 449 1125 z "},"Š":{"ha":833,"x_min":63,"x_max":815,"o":"m 358 -14 q 136 60 210 -14 q 81 264 63 135 l 206 264 q 238 143 193 188 q 376 99 283 99 q 520 142 464 99 q 589 261 576 185 q 573 372 599 326 q 492 436 547 418 l 361 479 q 218 585 264 511 q 186 758 172 658 q 246 901 200 840 q 364 995 292 961 q 526 1029 436 1029 q 728 955 660 1029 q 779 757 797 881 l 654 757 q 628 874 667 832 q 508 917 590 917 q 376 878 428 917 q 314 769 325 839 q 330 658 304 706 q 413 592 356 611 l 544 547 q 685 440 640 515 q 714 264 729 365 q 652 118 701 181 q 527 21 603 56 q 358 -14 451 -14 m 476 1125 l 313 1319 l 447 1319 l 544 1211 l 672 1319 l 815 1319 l 592 1125 l 476 1125 z "},"Ş":{"ha":833,"x_min":63,"x_max":797,"o":"m 179 -282 l 192 -206 l 289 -206 q 340 -190 319 -206 q 364 -156 361 -174 q 333 -114 368 -132 q 228 -96 297 -96 l 297 36 l 376 36 l 333 -49 q 406 -67 369 -53 q 465 -106 443 -81 q 482 -167 488 -131 q 424 -248 475 -214 q 297 -282 372 -282 l 179 -282 m 358 -14 q 136 60 210 -14 q 81 264 63 135 l 206 264 q 238 143 193 188 q 376 99 283 99 q 520 142 464 99 q 589 261 576 185 q 573 372 599 326 q 492 436 547 418 l 361 479 q 218 585 264 511 q 186 758 172 658 q 246 901 200 840 q 364 995 292 961 q 526 1029 436 1029 q 728 955 660 1029 q 779 757 797 881 l 654 757 q 628 874 667 832 q 508 917 590 917 q 376 878 428 917 q 314 769 325 839 q 330 658 304 706 q 413 592 356 611 l 544 547 q 685 440 640 515 q 714 264 729 365 q 652 118 701 181 q 527 21 603 56 q 358 -14 451 -14 z "},"Ŝ":{"ha":833,"x_min":63,"x_max":797,"o":"m 358 -14 q 136 60 210 -14 q 81 264 63 135 l 206 264 q 238 143 193 188 q 376 99 283 99 q 520 142 464 99 q 589 261 576 185 q 573 372 599 326 q 492 436 547 418 l 361 479 q 218 585 264 511 q 186 758 172 658 q 246 901 200 840 q 364 995 292 961 q 526 1029 436 1029 q 728 955 660 1029 q 779 757 797 881 l 654 757 q 628 874 667 832 q 508 917 590 917 q 376 878 428 917 q 314 769 325 839 q 330 658 304 706 q 413 592 356 611 l 544 547 q 685 440 640 515 q 714 264 729 365 q 652 118 701 181 q 527 21 603 56 q 358 -14 451 -14 m 282 1125 l 506 1319 l 621 1319 l 785 1125 l 650 1125 l 554 1233 l 425 1125 l 282 1125 z "},"Ș":{"ha":833,"x_min":63,"x_max":797,"o":"m 358 -14 q 136 60 210 -14 q 81 264 63 135 l 206 264 q 238 143 193 188 q 376 99 283 99 q 520 142 464 99 q 589 261 576 185 q 573 372 599 326 q 492 436 547 418 l 361 479 q 218 585 264 511 q 186 758 172 658 q 246 901 200 840 q 364 995 292 961 q 526 1029 436 1029 q 728 955 660 1029 q 779 757 797 881 l 654 757 q 628 874 667 832 q 508 917 590 917 q 376 878 428 917 q 314 769 325 839 q 330 658 304 706 q 413 592 356 611 l 544 547 q 685 440 640 515 q 714 264 729 365 q 652 118 701 181 q 527 21 603 56 q 358 -14 451 -14 m 150 -333 l 314 -132 l 460 -132 l 282 -333 l 150 -333 z "},"ẞ":{"ha":833,"x_min":67,"x_max":835,"o":"m 67 0 l 182 728 q 242 878 196 814 q 360 978 289 943 q 519 1014 432 1014 l 835 1014 l 815 892 l 513 550 l 518 588 q 697 510 638 590 q 736 299 757 431 q 674 142 722 210 q 553 38 626 75 q 390 0 481 0 l 297 0 l 315 114 l 394 114 q 534 164 478 114 q 604 299 590 214 q 577 431 618 382 q 453 479 536 479 l 390 479 l 407 588 l 679 900 l 501 900 q 372 854 425 900 q 307 728 319 808 l 192 0 l 67 0 z "},"Ə":{"ha":833,"x_min":94,"x_max":786,"o":"m 353 -14 q 203 22 263 -14 q 119 124 144 58 q 108 278 94 190 l 151 556 l 610 556 l 639 738 q 618 870 653 824 q 501 917 583 917 q 370 869 421 917 q 306 736 319 822 l 181 736 q 240 892 194 826 q 356 992 285 957 q 518 1028 428 1028 q 722 950 657 1028 q 764 736 786 872 l 692 278 q 632 124 678 190 q 515 22 586 58 q 353 -14 443 -14 m 369 90 q 504 139 456 90 q 567 278 553 188 l 594 458 l 251 458 l 264 469 l 233 278 q 252 139 219 188 q 369 90 285 90 z "},"T":{"ha":833,"x_min":158,"x_max":857,"o":"m 293 0 l 436 901 l 158 901 l 176 1015 l 857 1015 l 839 901 l 561 901 l 418 0 l 293 0 z "},"Ŧ":{"ha":833,"x_min":157,"x_max":857,"o":"m 157 410 l 174 514 l 701 514 l 685 410 l 157 410 m 293 0 l 436 901 l 158 901 l 176 1015 l 857 1015 l 839 901 l 561 901 l 418 0 l 293 0 z "},"Ť":{"ha":833,"x_min":158,"x_max":857,"o":"m 293 0 l 436 901 l 158 901 l 176 1015 l 857 1015 l 839 901 l 561 901 l 418 0 l 293 0 m 476 1125 l 313 1319 l 447 1319 l 544 1211 l 672 1319 l 815 1319 l 592 1125 l 476 1125 z "},"Ţ":{"ha":833,"x_min":158,"x_max":857,"o":"m 239 -282 l 251 -206 l 349 -206 q 400 -190 379 -206 q 424 -156 421 -174 q 392 -114 428 -132 q 288 -96 357 -96 l 357 36 l 418 0 l 393 -49 q 466 -67 429 -53 q 525 -106 503 -81 q 542 -167 547 -131 q 483 -248 535 -214 q 357 -282 432 -282 l 239 -282 m 293 0 l 436 901 l 158 901 l 176 1015 l 857 1015 l 839 901 l 561 901 l 418 0 l 293 0 z "},"Ț":{"ha":833,"x_min":101,"x_max":857,"o":"m 293 0 l 436 901 l 158 901 l 176 1015 l 857 1015 l 839 901 l 561 901 l 418 0 l 293 0 m 101 -333 l 265 -132 l 411 -132 l 233 -333 l 101 -333 z "},"U":{"ha":833,"x_min":86,"x_max":808,"o":"m 353 -14 q 149 65 211 -14 q 108 278 86 143 l 225 1014 l 350 1014 l 233 278 q 253 146 219 194 q 371 97 286 97 q 503 146 454 97 q 567 278 553 194 l 683 1014 l 808 1014 l 692 278 q 633 122 678 188 q 519 21 589 56 q 353 -14 449 -14 z "},"Ú":{"ha":833,"x_min":86,"x_max":808,"o":"m 353 -14 q 149 65 211 -14 q 108 278 86 143 l 225 1014 l 350 1014 l 233 278 q 253 146 219 194 q 371 97 286 97 q 503 146 454 97 q 567 278 553 194 l 683 1014 l 808 1014 l 692 278 q 633 122 678 188 q 519 21 589 56 q 353 -14 449 -14 m 449 1125 l 626 1319 l 768 1319 l 583 1125 l 449 1125 z "},"Ŭ":{"ha":833,"x_min":86,"x_max":808,"o":"m 353 -14 q 149 65 211 -14 q 108 278 86 143 l 225 1014 l 350 1014 l 233 278 q 253 146 219 194 q 371 97 286 97 q 503 146 454 97 q 567 278 553 194 l 683 1014 l 808 1014 l 692 278 q 633 122 678 188 q 519 21 589 56 q 353 -14 449 -14 m 532 1118 q 380 1174 432 1118 q 342 1319 328 1229 l 439 1319 q 459 1232 431 1265 q 543 1199 488 1199 q 639 1232 600 1199 q 686 1319 678 1265 l 786 1319 q 702 1174 772 1229 q 532 1118 632 1118 z "},"Û":{"ha":833,"x_min":86,"x_max":808,"o":"m 353 -14 q 149 65 211 -14 q 108 278 86 143 l 225 1014 l 350 1014 l 233 278 q 253 146 219 194 q 371 97 286 97 q 503 146 454 97 q 567 278 553 194 l 683 1014 l 808 1014 l 692 278 q 633 122 678 188 q 519 21 589 56 q 353 -14 449 -14 m 282 1125 l 506 1319 l 621 1319 l 785 1125 l 650 1125 l 554 1233 l 425 1125 l 282 1125 z "},"Ü":{"ha":833,"x_min":86,"x_max":808,"o":"m 353 -14 q 149 65 211 -14 q 108 278 86 143 l 225 1014 l 350 1014 l 233 278 q 253 146 219 194 q 371 97 286 97 q 503 146 454 97 q 567 278 553 194 l 683 1014 l 808 1014 l 692 278 q 633 122 678 188 q 519 21 589 56 q 353 -14 449 -14 m 689 1135 q 628 1158 649 1135 q 614 1222 608 1182 q 649 1288 621 1264 q 718 1313 678 1313 q 778 1288 758 1313 q 792 1222 799 1264 q 758 1158 786 1182 q 689 1135 729 1135 m 381 1135 q 320 1158 340 1135 q 306 1222 300 1182 q 341 1288 313 1264 q 410 1313 369 1313 q 470 1288 450 1313 q 483 1222 490 1264 q 449 1158 478 1182 q 381 1135 421 1135 z "},"Ụ":{"ha":833,"x_min":86,"x_max":808,"o":"m 353 -14 q 149 65 211 -14 q 108 278 86 143 l 225 1014 l 350 1014 l 233 278 q 253 146 219 194 q 371 97 286 97 q 503 146 454 97 q 567 278 553 194 l 683 1014 l 808 1014 l 692 278 q 633 122 678 188 q 519 21 589 56 q 353 -14 449 -14 m 308 -296 q 240 -272 263 -296 q 224 -208 218 -249 q 261 -142 231 -167 q 338 -118 292 -118 q 406 -142 383 -118 q 421 -208 428 -167 q 385 -272 415 -249 q 308 -296 354 -296 z "},"Ù":{"ha":833,"x_min":86,"x_max":808,"o":"m 353 -14 q 149 65 211 -14 q 108 278 86 143 l 225 1014 l 350 1014 l 233 278 q 253 146 219 194 q 371 97 286 97 q 503 146 454 97 q 567 278 553 194 l 683 1014 l 808 1014 l 692 278 q 633 122 678 188 q 519 21 589 56 q 353 -14 449 -14 m 492 1125 l 363 1319 l 493 1319 l 615 1125 l 492 1125 z "},"Ủ":{"ha":833,"x_min":86,"x_max":808,"o":"m 353 -14 q 149 65 211 -14 q 108 278 86 143 l 225 1014 l 350 1014 l 233 278 q 253 146 219 194 q 371 97 286 97 q 503 146 454 97 q 567 278 553 194 l 683 1014 l 808 1014 l 692 278 q 633 122 678 188 q 519 21 589 56 q 353 -14 449 -14 m 464 1111 l 547 1199 q 565 1223 558 1211 q 574 1243 572 1235 q 539 1271 578 1271 l 431 1271 l 446 1361 l 592 1361 q 672 1334 644 1361 q 693 1258 700 1307 q 681 1218 690 1238 q 657 1183 671 1199 l 590 1111 l 464 1111 z "},"Ư":{"ha":833,"x_min":86,"x_max":950,"o":"m 689 924 l 704 1014 l 774 1014 q 811 1027 796 1014 q 829 1063 826 1040 l 846 1167 l 950 1167 l 932 1056 q 877 960 922 996 q 765 924 832 924 l 689 924 m 353 -14 q 149 65 211 -14 q 108 278 86 143 l 225 1014 l 350 1014 l 233 278 q 253 146 219 194 q 371 97 286 97 q 503 146 454 97 q 567 278 553 194 l 683 1014 l 808 1014 l 692 278 q 633 122 678 188 q 519 21 589 56 q 353 -14 449 -14 z "},"Ứ":{"ha":833,"x_min":86,"x_max":950,"o":"m 689 924 l 704 1014 l 774 1014 q 811 1027 796 1014 q 829 1063 826 1040 l 846 1167 l 950 1167 l 932 1056 q 877 960 922 996 q 765 924 832 924 l 689 924 m 353 -14 q 149 65 211 -14 q 108 278 86 143 l 225 1014 l 350 1014 l 233 278 q 253 146 219 194 q 371 97 286 97 q 503 146 454 97 q 567 278 553 194 l 683 1014 l 808 1014 l 692 278 q 633 122 678 188 q 519 21 589 56 q 353 -14 449 -14 m 449 1125 l 626 1319 l 768 1319 l 583 1125 l 449 1125 z "},"Ự":{"ha":833,"x_min":86,"x_max":950,"o":"m 322 -296 q 254 -272 276 -296 q 238 -208 232 -249 q 275 -142 244 -167 q 351 -118 306 -118 q 419 -142 397 -118 q 435 -208 442 -167 q 399 -272 429 -249 q 322 -296 368 -296 m 689 924 l 704 1014 l 774 1014 q 811 1027 796 1014 q 829 1063 826 1040 l 846 1167 l 950 1167 l 932 1056 q 877 960 922 996 q 765 924 832 924 l 689 924 m 353 -14 q 149 65 211 -14 q 108 278 86 143 l 225 1014 l 350 1014 l 233 278 q 253 146 219 194 q 371 97 286 97 q 503 146 454 97 q 567 278 553 194 l 683 1014 l 808 1014 l 692 278 q 633 122 678 188 q 519 21 589 56 q 353 -14 449 -14 z "},"Ừ":{"ha":833,"x_min":86,"x_max":950,"o":"m 689 924 l 704 1014 l 774 1014 q 811 1027 796 1014 q 829 1063 826 1040 l 846 1167 l 950 1167 l 932 1056 q 877 960 922 996 q 765 924 832 924 l 689 924 m 353 -14 q 149 65 211 -14 q 108 278 86 143 l 225 1014 l 350 1014 l 233 278 q 253 146 219 194 q 371 97 286 97 q 503 146 454 97 q 567 278 553 194 l 683 1014 l 808 1014 l 692 278 q 633 122 678 188 q 519 21 589 56 q 353 -14 449 -14 m 492 1125 l 363 1319 l 493 1319 l 615 1125 l 492 1125 z "},"Ử":{"ha":833,"x_min":86,"x_max":950,"o":"m 689 924 l 704 1014 l 774 1014 q 811 1027 796 1014 q 829 1063 826 1040 l 846 1167 l 950 1167 l 932 1056 q 877 960 922 996 q 765 924 832 924 l 689 924 m 353 -14 q 149 65 211 -14 q 108 278 86 143 l 225 1014 l 350 1014 l 233 278 q 253 146 219 194 q 371 97 286 97 q 503 146 454 97 q 567 278 553 194 l 683 1014 l 808 1014 l 692 278 q 633 122 678 188 q 519 21 589 56 q 353 -14 449 -14 m 464 1111 l 547 1199 q 565 1223 558 1211 q 574 1243 572 1235 q 539 1271 578 1271 l 431 1271 l 446 1361 l 592 1361 q 672 1334 644 1361 q 693 1258 700 1307 q 681 1218 690 1238 q 657 1183 671 1199 l 590 1111 l 464 1111 z "},"Ữ":{"ha":833,"x_min":86,"x_max":950,"o":"m 689 924 l 704 1014 l 774 1014 q 811 1027 796 1014 q 829 1063 826 1040 l 846 1167 l 950 1167 l 932 1056 q 877 960 922 996 q 765 924 832 924 l 689 924 m 353 -14 q 149 65 211 -14 q 108 278 86 143 l 225 1014 l 350 1014 l 233 278 q 253 146 219 194 q 371 97 286 97 q 503 146 454 97 q 567 278 553 194 l 683 1014 l 808 1014 l 692 278 q 633 122 678 188 q 519 21 589 56 q 353 -14 449 -14 m 632 1132 q 567 1147 590 1132 q 528 1181 543 1161 q 498 1215 513 1200 q 460 1229 483 1229 q 428 1217 442 1229 q 411 1181 414 1206 l 404 1139 l 314 1139 l 321 1181 q 371 1278 331 1243 q 467 1313 411 1313 q 532 1298 508 1313 q 571 1264 556 1283 q 601 1230 586 1244 q 639 1215 615 1215 q 671 1227 658 1215 q 688 1264 683 1239 l 694 1306 l 785 1306 l 778 1264 q 728 1167 768 1201 q 632 1132 689 1132 z "},"Ű":{"ha":833,"x_min":86,"x_max":885,"o":"m 353 -14 q 149 65 211 -14 q 108 278 86 143 l 225 1014 l 350 1014 l 233 278 q 253 146 219 194 q 371 97 286 97 q 503 146 454 97 q 567 278 553 194 l 683 1014 l 808 1014 l 692 278 q 633 122 678 188 q 519 21 589 56 q 353 -14 449 -14 m 569 1125 l 753 1319 l 885 1319 l 694 1125 l 569 1125 m 317 1125 l 500 1319 l 632 1319 l 442 1125 l 317 1125 z "},"Ū":{"ha":833,"x_min":86,"x_max":808,"o":"m 353 -14 q 149 65 211 -14 q 108 278 86 143 l 225 1014 l 350 1014 l 233 278 q 253 146 219 194 q 371 97 286 97 q 503 146 454 97 q 567 278 553 194 l 683 1014 l 808 1014 l 692 278 q 633 122 678 188 q 519 21 589 56 q 353 -14 449 -14 m 318 1167 l 335 1271 l 779 1271 l 763 1167 l 318 1167 z "},"Ų":{"ha":833,"x_min":94,"x_max":808,"o":"m 421 -282 q 303 -245 344 -282 q 272 -153 263 -208 q 288 -110 275 -133 q 322 -62 300 -87 q 371 -14 343 -37 q 362 -14 367 -14 q 353 -14 357 -14 q 203 21 263 -14 q 119 122 143 56 q 108 278 94 188 l 225 1014 l 350 1014 l 233 278 q 255 145 219 192 q 371 99 290 99 q 503 145 453 99 q 567 278 553 192 l 683 1014 l 808 1014 l 692 278 q 640 133 678 196 q 542 35 603 71 l 496 1 q 422 -69 444 -37 q 393 -129 399 -100 q 406 -179 389 -160 q 458 -199 424 -199 l 542 -199 l 529 -282 l 421 -282 z "},"Ů":{"ha":833,"x_min":86,"x_max":808,"o":"m 353 -14 q 149 65 211 -14 q 108 278 86 143 l 225 1014 l 350 1014 l 233 278 q 253 146 219 194 q 371 97 286 97 q 503 146 454 97 q 567 278 553 194 l 683 1014 l 808 1014 l 692 278 q 633 122 678 188 q 519 21 589 56 q 353 -14 449 -14 m 524 1064 q 410 1108 449 1064 q 382 1222 372 1151 q 446 1337 393 1293 q 574 1381 499 1381 q 688 1337 649 1381 q 715 1222 726 1293 q 652 1108 706 1151 q 524 1064 599 1064 m 536 1138 q 600 1160 574 1138 q 632 1222 626 1183 q 619 1285 639 1261 q 563 1308 600 1308 q 499 1285 525 1308 q 465 1222 472 1261 q 479 1160 460 1183 q 536 1138 499 1138 z "},"Ũ":{"ha":833,"x_min":86,"x_max":808,"o":"m 353 -14 q 149 65 211 -14 q 108 278 86 143 l 225 1014 l 350 1014 l 233 278 q 253 146 219 194 q 371 97 286 97 q 503 146 454 97 q 567 278 553 194 l 683 1014 l 808 1014 l 692 278 q 633 122 678 188 q 519 21 589 56 q 353 -14 449 -14 m 632 1132 q 567 1147 590 1132 q 528 1181 543 1161 q 498 1215 513 1200 q 460 1229 483 1229 q 428 1217 442 1229 q 411 1181 414 1206 l 404 1139 l 314 1139 l 321 1181 q 371 1278 331 1243 q 467 1313 411 1313 q 532 1298 508 1313 q 571 1264 556 1283 q 601 1230 586 1244 q 639 1215 615 1215 q 671 1227 658 1215 q 688 1264 683 1239 l 694 1306 l 785 1306 l 778 1264 q 728 1167 768 1201 q 632 1132 689 1132 z "},"V":{"ha":833,"x_min":169,"x_max":864,"o":"m 269 0 l 169 1014 l 296 1014 l 358 325 q 369 191 365 253 q 372 97 372 129 q 403 191 382 129 q 454 325 425 253 l 735 1014 l 864 1014 l 440 0 l 269 0 z "},"W":{"ha":833,"x_min":90,"x_max":899,"o":"m 90 0 l 135 1014 l 251 1014 l 208 264 q 204 201 207 233 q 199 139 201 168 q 193 90 196 110 q 206 139 199 110 q 222 201 213 168 q 239 264 231 233 l 453 1014 l 585 1014 l 551 264 q 549 201 550 233 q 546 139 547 168 q 543 90 544 110 q 555 139 549 110 q 569 201 561 168 q 586 264 578 233 l 785 1014 l 899 1014 l 618 0 l 461 0 l 496 764 q 499 826 497 796 q 503 883 501 857 q 506 926 504 910 q 494 883 501 910 q 479 826 488 857 q 461 764 471 796 l 247 0 l 90 0 z "},"Ẃ":{"ha":833,"x_min":90,"x_max":899,"o":"m 90 0 l 135 1014 l 251 1014 l 208 264 q 204 201 207 233 q 199 139 201 168 q 193 90 196 110 q 206 139 199 110 q 222 201 213 168 q 239 264 231 233 l 453 1014 l 585 1014 l 551 264 q 549 201 550 233 q 546 139 547 168 q 543 90 544 110 q 555 139 549 110 q 569 201 561 168 q 586 264 578 233 l 785 1014 l 899 1014 l 618 0 l 461 0 l 496 764 q 499 826 497 796 q 503 883 501 857 q 506 926 504 910 q 494 883 501 910 q 479 826 488 857 q 461 764 471 796 l 247 0 l 90 0 m 449 1125 l 626 1319 l 768 1319 l 583 1125 l 449 1125 z "},"Ŵ":{"ha":833,"x_min":90,"x_max":899,"o":"m 90 0 l 135 1014 l 251 1014 l 208 264 q 204 201 207 233 q 199 139 201 168 q 193 90 196 110 q 206 139 199 110 q 222 201 213 168 q 239 264 231 233 l 453 1014 l 585 1014 l 551 264 q 549 201 550 233 q 546 139 547 168 q 543 90 544 110 q 555 139 549 110 q 569 201 561 168 q 586 264 578 233 l 785 1014 l 899 1014 l 618 0 l 461 0 l 496 764 q 499 826 497 796 q 503 883 501 857 q 506 926 504 910 q 494 883 501 910 q 479 826 488 857 q 461 764 471 796 l 247 0 l 90 0 m 282 1125 l 506 1319 l 621 1319 l 785 1125 l 650 1125 l 554 1233 l 425 1125 l 282 1125 z "},"Ẅ":{"ha":833,"x_min":90,"x_max":899,"o":"m 90 0 l 135 1014 l 251 1014 l 208 264 q 204 201 207 233 q 199 139 201 168 q 193 90 196 110 q 206 139 199 110 q 222 201 213 168 q 239 264 231 233 l 453 1014 l 585 1014 l 551 264 q 549 201 550 233 q 546 139 547 168 q 543 90 544 110 q 555 139 549 110 q 569 201 561 168 q 586 264 578 233 l 785 1014 l 899 1014 l 618 0 l 461 0 l 496 764 q 499 826 497 796 q 503 883 501 857 q 506 926 504 910 q 494 883 501 910 q 479 826 488 857 q 461 764 471 796 l 247 0 l 90 0 m 689 1135 q 628 1158 649 1135 q 614 1222 608 1182 q 649 1288 621 1264 q 718 1313 678 1313 q 778 1288 758 1313 q 792 1222 799 1264 q 758 1158 786 1182 q 689 1135 729 1135 m 381 1135 q 320 1158 340 1135 q 306 1222 300 1182 q 341 1288 313 1264 q 410 1313 369 1313 q 470 1288 450 1313 q 483 1222 490 1264 q 449 1158 478 1182 q 381 1135 421 1135 z "},"Ẁ":{"ha":833,"x_min":90,"x_max":899,"o":"m 90 0 l 135 1014 l 251 1014 l 208 264 q 204 201 207 233 q 199 139 201 168 q 193 90 196 110 q 206 139 199 110 q 222 201 213 168 q 239 264 231 233 l 453 1014 l 585 1014 l 551 264 q 549 201 550 233 q 546 139 547 168 q 543 90 544 110 q 555 139 549 110 q 569 201 561 168 q 586 264 578 233 l 785 1014 l 899 1014 l 618 0 l 461 0 l 496 764 q 499 826 497 796 q 503 883 501 857 q 506 926 504 910 q 494 883 501 910 q 479 826 488 857 q 461 764 471 796 l 247 0 l 90 0 m 492 1125 l 363 1319 l 493 1319 l 615 1125 l 492 1125 z "},"X":{"ha":833,"x_min":-6,"x_max":863,"o":"m -6 0 l 367 517 l 171 1014 l 310 1014 l 419 714 q 438 663 428 690 q 454 621 449 636 q 480 663 464 636 q 513 714 496 690 l 719 1014 l 863 1014 l 510 519 l 717 0 l 579 0 l 456 322 q 437 373 446 346 q 424 417 428 400 q 397 374 414 400 q 364 324 379 347 l 139 0 l -6 0 z "},"Y":{"ha":833,"x_min":149,"x_max":885,"o":"m 293 0 l 353 379 l 149 1014 l 275 1014 l 410 597 q 427 538 421 563 q 435 503 433 514 q 453 538 440 514 q 489 597 467 563 l 753 1014 l 885 1014 l 478 379 l 418 0 l 293 0 z "},"Ý":{"ha":833,"x_min":149,"x_max":885,"o":"m 293 0 l 353 379 l 149 1014 l 275 1014 l 410 597 q 427 538 421 563 q 435 503 433 514 q 453 538 440 514 q 489 597 467 563 l 753 1014 l 885 1014 l 478 379 l 418 0 l 293 0 m 449 1125 l 626 1319 l 768 1319 l 583 1125 l 449 1125 z "},"Ŷ":{"ha":833,"x_min":149,"x_max":885,"o":"m 293 0 l 353 379 l 149 1014 l 275 1014 l 410 597 q 427 538 421 563 q 435 503 433 514 q 453 538 440 514 q 489 597 467 563 l 753 1014 l 885 1014 l 478 379 l 418 0 l 293 0 m 282 1125 l 506 1319 l 621 1319 l 785 1125 l 650 1125 l 554 1233 l 425 1125 l 282 1125 z "},"Ÿ":{"ha":833,"x_min":149,"x_max":885,"o":"m 293 0 l 353 379 l 149 1014 l 275 1014 l 410 597 q 427 538 421 563 q 435 503 433 514 q 453 538 440 514 q 489 597 467 563 l 753 1014 l 885 1014 l 478 379 l 418 0 l 293 0 m 689 1135 q 628 1158 649 1135 q 614 1222 608 1182 q 649 1288 621 1264 q 718 1313 678 1313 q 778 1288 758 1313 q 792 1222 799 1264 q 758 1158 786 1182 q 689 1135 729 1135 m 381 1135 q 320 1158 340 1135 q 306 1222 300 1182 q 341 1288 313 1264 q 410 1313 369 1313 q 470 1288 450 1313 q 483 1222 490 1264 q 449 1158 478 1182 q 381 1135 421 1135 z "},"Ỵ":{"ha":833,"x_min":149,"x_max":885,"o":"m 293 0 l 353 379 l 149 1014 l 275 1014 l 410 597 q 427 538 421 563 q 435 503 433 514 q 453 538 440 514 q 489 597 467 563 l 753 1014 l 885 1014 l 478 379 l 418 0 l 293 0 m 322 -296 q 254 -272 276 -296 q 238 -208 232 -249 q 275 -142 244 -167 q 351 -118 306 -118 q 419 -142 397 -118 q 435 -208 442 -167 q 399 -272 429 -249 q 322 -296 368 -296 z "},"Ỳ":{"ha":833,"x_min":149,"x_max":885,"o":"m 293 0 l 353 379 l 149 1014 l 275 1014 l 410 597 q 427 538 421 563 q 435 503 433 514 q 453 538 440 514 q 489 597 467 563 l 753 1014 l 885 1014 l 478 379 l 418 0 l 293 0 m 492 1125 l 363 1319 l 493 1319 l 615 1125 l 492 1125 z "},"Ỷ":{"ha":833,"x_min":149,"x_max":885,"o":"m 293 0 l 353 379 l 149 1014 l 275 1014 l 410 597 q 427 538 421 563 q 435 503 433 514 q 453 538 440 514 q 489 597 467 563 l 753 1014 l 885 1014 l 478 379 l 418 0 l 293 0 m 464 1111 l 547 1199 q 565 1223 558 1211 q 574 1243 572 1235 q 539 1271 578 1271 l 431 1271 l 446 1361 l 592 1361 q 672 1334 644 1361 q 693 1258 700 1307 q 681 1218 690 1238 q 657 1183 671 1199 l 590 1111 l 464 1111 z "},"Ȳ":{"ha":833,"x_min":149,"x_max":885,"o":"m 293 0 l 353 379 l 149 1014 l 275 1014 l 410 597 q 427 538 421 563 q 435 503 433 514 q 453 538 440 514 q 489 597 467 563 l 753 1014 l 885 1014 l 478 379 l 418 0 l 293 0 m 318 1167 l 335 1271 l 779 1271 l 763 1167 l 318 1167 z "},"Ỹ":{"ha":833,"x_min":149,"x_max":885,"o":"m 293 0 l 353 379 l 149 1014 l 275 1014 l 410 597 q 427 538 421 563 q 435 503 433 514 q 453 538 440 514 q 489 597 467 563 l 753 1014 l 885 1014 l 478 379 l 418 0 l 293 0 m 632 1132 q 567 1147 590 1132 q 528 1181 543 1161 q 498 1215 513 1200 q 460 1229 483 1229 q 428 1217 442 1229 q 411 1181 414 1206 l 404 1139 l 314 1139 l 321 1181 q 371 1278 331 1243 q 467 1313 411 1313 q 532 1298 508 1313 q 571 1264 556 1283 q 601 1230 586 1244 q 639 1215 615 1215 q 671 1227 658 1215 q 688 1264 683 1239 l 694 1306 l 785 1306 l 778 1264 q 728 1167 768 1201 q 632 1132 689 1132 z "},"Z":{"ha":833,"x_min":57,"x_max":801,"o":"m 57 0 l 76 125 l 653 900 l 207 900 l 225 1014 l 801 1014 l 781 889 l 206 114 l 672 114 l 654 0 l 57 0 z "},"Ź":{"ha":833,"x_min":57,"x_max":801,"o":"m 57 0 l 76 125 l 653 900 l 207 900 l 225 1014 l 801 1014 l 781 889 l 206 114 l 672 114 l 654 0 l 57 0 m 449 1125 l 626 1319 l 768 1319 l 583 1125 l 449 1125 z "},"Ž":{"ha":833,"x_min":57,"x_max":815,"o":"m 57 0 l 76 125 l 653 900 l 207 900 l 225 1014 l 801 1014 l 781 889 l 206 114 l 672 114 l 654 0 l 57 0 m 476 1125 l 313 1319 l 447 1319 l 544 1211 l 672 1319 l 815 1319 l 592 1125 l 476 1125 z "},"Ż":{"ha":833,"x_min":57,"x_max":801,"o":"m 57 0 l 76 125 l 653 900 l 207 900 l 225 1014 l 801 1014 l 781 889 l 206 114 l 672 114 l 654 0 l 57 0 m 535 1133 q 467 1158 489 1133 q 450 1222 444 1182 q 488 1287 457 1263 q 564 1311 518 1311 q 632 1287 610 1311 q 647 1222 654 1263 q 611 1158 642 1182 q 535 1133 581 1133 z "},"a":{"ha":833,"x_min":85,"x_max":767,"o":"m 310 -14 q 140 63 196 -14 q 106 269 85 139 l 140 493 q 195 645 154 582 q 298 743 236 708 q 436 778 360 778 q 579 726 531 778 q 614 589 628 675 l 593 618 l 621 618 l 642 764 l 767 764 l 646 0 l 521 0 l 544 146 l 519 146 l 549 175 q 469 37 535 88 q 310 -14 404 -14 m 369 94 q 499 143 447 94 q 565 278 551 192 l 597 486 q 575 621 613 572 q 460 669 538 669 q 330 622 381 669 q 264 486 279 575 l 232 278 q 254 142 218 189 q 369 94 290 94 z "},"á":{"ha":833,"x_min":85,"x_max":767,"o":"m 310 -14 q 140 63 196 -14 q 106 269 85 139 l 140 493 q 195 645 154 582 q 298 743 236 708 q 436 778 360 778 q 579 726 531 778 q 614 589 628 675 l 593 618 l 621 618 l 642 764 l 767 764 l 646 0 l 521 0 l 544 146 l 519 146 l 549 175 q 469 37 535 88 q 310 -14 404 -14 m 369 94 q 499 143 447 94 q 565 278 551 192 l 597 486 q 575 621 613 572 q 460 669 538 669 q 330 622 381 669 q 264 486 279 575 l 232 278 q 254 142 218 189 q 369 94 290 94 m 419 896 l 597 1090 l 739 1090 l 554 896 l 419 896 z "},"ă":{"ha":833,"x_min":85,"x_max":767,"o":"m 310 -14 q 140 63 196 -14 q 106 269 85 139 l 140 493 q 195 645 154 582 q 298 743 236 708 q 436 778 360 778 q 579 726 531 778 q 614 589 628 675 l 593 618 l 621 618 l 642 764 l 767 764 l 646 0 l 521 0 l 544 146 l 519 146 l 549 175 q 469 37 535 88 q 310 -14 404 -14 m 369 94 q 499 143 447 94 q 565 278 551 192 l 597 486 q 575 621 613 572 q 460 669 538 669 q 330 622 381 669 q 264 486 279 575 l 232 278 q 254 142 218 189 q 369 94 290 94 m 503 889 q 351 944 403 889 q 313 1090 299 1000 l 410 1090 q 430 1003 401 1036 q 514 969 458 969 q 610 1003 571 969 q 657 1090 649 1036 l 757 1090 q 673 944 743 1000 q 503 889 603 889 z "},"ắ":{"ha":833,"x_min":85,"x_max":767,"o":"m 310 -14 q 140 63 196 -14 q 106 269 85 139 l 140 493 q 195 645 154 582 q 298 743 236 708 q 436 778 360 778 q 579 726 531 778 q 614 589 628 675 l 593 618 l 621 618 l 642 764 l 767 764 l 646 0 l 521 0 l 544 146 l 519 146 l 549 175 q 469 37 535 88 q 310 -14 404 -14 m 369 94 q 499 143 447 94 q 565 278 551 192 l 597 486 q 575 621 613 572 q 460 669 538 669 q 330 622 381 669 q 264 486 279 575 l 232 278 q 254 142 218 189 q 369 94 290 94 m 496 889 q 335 939 393 889 q 289 1069 276 989 l 385 1069 q 411 998 378 1024 q 508 972 444 972 q 615 998 574 972 q 663 1069 656 1024 l 761 1069 q 716 975 753 1015 q 622 912 679 935 q 496 889 565 889 m 433 1056 l 622 1236 l 760 1236 l 564 1056 l 433 1056 z "},"ặ":{"ha":833,"x_min":85,"x_max":767,"o":"m 501 889 q 349 944 401 889 q 311 1090 297 1000 l 408 1090 q 428 1003 400 1036 q 513 969 457 969 q 608 1003 569 969 q 656 1090 647 1036 l 756 1090 q 672 944 742 1000 q 501 889 601 889 m 310 -14 q 140 63 196 -14 q 106 269 85 139 l 140 493 q 195 645 154 582 q 298 743 236 708 q 436 778 360 778 q 579 726 531 778 q 614 589 628 675 l 593 618 l 621 618 l 642 764 l 767 764 l 646 0 l 521 0 l 544 146 l 519 146 l 549 175 q 469 37 535 88 q 310 -14 404 -14 m 369 94 q 499 143 447 94 q 565 278 551 192 l 597 486 q 575 621 613 572 q 460 669 538 669 q 330 622 381 669 q 264 486 279 575 l 232 278 q 254 142 218 189 q 369 94 290 94 m 315 -296 q 247 -272 269 -296 q 231 -208 225 -249 q 268 -142 238 -167 q 344 -118 299 -118 q 413 -142 390 -118 q 428 -208 435 -167 q 392 -272 422 -249 q 315 -296 361 -296 z "},"ằ":{"ha":833,"x_min":85,"x_max":767,"o":"m 310 -14 q 140 63 196 -14 q 106 269 85 139 l 140 493 q 195 645 154 582 q 298 743 236 708 q 436 778 360 778 q 579 726 531 778 q 614 589 628 675 l 593 618 l 621 618 l 642 764 l 767 764 l 646 0 l 521 0 l 544 146 l 519 146 l 549 175 q 469 37 535 88 q 310 -14 404 -14 m 369 94 q 499 143 447 94 q 565 278 551 192 l 597 486 q 575 621 613 572 q 460 669 538 669 q 330 622 381 669 q 264 486 279 575 l 232 278 q 254 142 218 189 q 369 94 290 94 m 496 889 q 335 939 393 889 q 289 1069 276 989 l 385 1069 q 411 999 378 1024 q 508 974 444 974 q 615 999 574 974 q 663 1069 656 1024 l 761 1069 q 716 975 753 1015 q 622 912 679 935 q 496 889 565 889 m 486 1056 l 349 1236 l 478 1236 l 608 1056 l 486 1056 z "},"ẳ":{"ha":833,"x_min":85,"x_max":767,"o":"m 310 -14 q 140 63 196 -14 q 106 269 85 139 l 140 493 q 195 645 154 582 q 298 743 236 708 q 436 778 360 778 q 579 726 531 778 q 614 589 628 675 l 593 618 l 621 618 l 642 764 l 767 764 l 646 0 l 521 0 l 544 146 l 519 146 l 549 175 q 469 37 535 88 q 310 -14 404 -14 m 369 94 q 499 143 447 94 q 565 278 551 192 l 597 486 q 575 621 613 572 q 460 669 538 669 q 330 622 381 669 q 264 486 279 575 l 232 278 q 254 142 218 189 q 369 94 290 94 m 496 889 q 335 939 393 889 q 289 1069 276 989 l 386 1069 q 413 999 379 1024 q 510 974 446 974 q 616 999 575 974 q 664 1069 657 1024 l 761 1069 q 716 975 753 1015 q 622 912 679 935 q 496 889 565 889 m 449 1056 l 525 1140 q 543 1175 542 1158 q 511 1208 547 1208 l 443 1208 l 456 1292 l 546 1292 q 637 1265 606 1292 q 661 1193 668 1238 q 649 1158 658 1175 q 626 1125 640 1140 l 567 1056 l 449 1056 z "},"ẵ":{"ha":833,"x_min":85,"x_max":781,"o":"m 310 -14 q 140 63 196 -14 q 106 269 85 139 l 140 493 q 195 645 154 582 q 298 743 236 708 q 436 778 360 778 q 579 726 531 778 q 614 589 628 675 l 593 618 l 621 618 l 642 764 l 767 764 l 646 0 l 521 0 l 544 146 l 519 146 l 549 175 q 469 37 535 88 q 310 -14 404 -14 m 369 94 q 499 143 447 94 q 565 278 551 192 l 597 486 q 575 621 613 572 q 460 669 538 669 q 330 622 381 669 q 264 486 279 575 l 232 278 q 254 142 218 189 q 369 94 290 94 m 497 896 q 344 946 397 896 q 304 1076 290 996 l 393 1076 q 415 1002 385 1029 q 507 975 446 975 q 609 1002 569 975 q 657 1076 649 1029 l 749 1076 q 706 982 740 1022 q 617 919 671 942 q 497 896 564 896 m 626 1128 q 563 1141 585 1128 q 526 1172 540 1154 q 498 1202 513 1189 q 458 1215 483 1215 q 410 1174 417 1215 l 404 1139 l 314 1139 l 318 1167 q 368 1256 326 1222 q 468 1289 410 1289 q 533 1276 510 1289 q 569 1245 556 1263 q 597 1215 582 1228 q 636 1201 611 1201 q 669 1213 657 1201 q 685 1243 682 1224 l 690 1278 l 781 1278 l 776 1250 q 726 1161 768 1194 q 626 1128 685 1128 z "},"ǎ":{"ha":833,"x_min":85,"x_max":788,"o":"m 310 -14 q 140 63 196 -14 q 106 269 85 139 l 140 493 q 195 645 154 582 q 298 743 236 708 q 436 778 360 778 q 579 726 531 778 q 614 589 628 675 l 593 618 l 621 618 l 642 764 l 767 764 l 646 0 l 521 0 l 544 146 l 519 146 l 549 175 q 469 37 535 88 q 310 -14 404 -14 m 369 94 q 499 143 447 94 q 565 278 551 192 l 597 486 q 575 621 613 572 q 460 669 538 669 q 330 622 381 669 q 264 486 279 575 l 232 278 q 254 142 218 189 q 369 94 290 94 m 449 896 l 285 1090 l 419 1090 l 517 982 l 644 1090 l 788 1090 l 564 896 l 449 896 z "},"â":{"ha":833,"x_min":85,"x_max":767,"o":"m 310 -14 q 140 63 196 -14 q 106 269 85 139 l 140 493 q 195 645 154 582 q 298 743 236 708 q 436 778 360 778 q 579 726 531 778 q 614 589 628 675 l 593 618 l 621 618 l 642 764 l 767 764 l 646 0 l 521 0 l 544 146 l 519 146 l 549 175 q 469 37 535 88 q 310 -14 404 -14 m 369 94 q 499 143 447 94 q 565 278 551 192 l 597 486 q 575 621 613 572 q 460 669 538 669 q 330 622 381 669 q 264 486 279 575 l 232 278 q 254 142 218 189 q 369 94 290 94 m 253 896 l 476 1090 l 592 1090 l 756 896 l 621 896 l 525 1004 l 396 896 l 253 896 z "},"ấ":{"ha":833,"x_min":85,"x_max":1006,"o":"m 310 -14 q 140 63 196 -14 q 106 269 85 139 l 140 493 q 195 645 154 582 q 298 743 236 708 q 436 778 360 778 q 579 726 531 778 q 614 589 628 675 l 593 618 l 621 618 l 642 764 l 767 764 l 646 0 l 521 0 l 544 146 l 519 146 l 549 175 q 469 37 535 88 q 310 -14 404 -14 m 369 94 q 499 143 447 94 q 565 278 551 192 l 597 486 q 575 621 613 572 q 460 669 538 669 q 330 622 381 669 q 264 486 279 575 l 232 278 q 254 142 218 189 q 369 94 290 94 m 671 1056 l 861 1250 l 1006 1250 l 808 1056 l 671 1056 m 246 896 l 469 1090 l 585 1090 l 749 896 l 614 896 l 518 1004 l 389 896 l 246 896 z "},"ậ":{"ha":833,"x_min":85,"x_max":767,"o":"m 253 896 l 476 1090 l 592 1090 l 756 896 l 621 896 l 525 1004 l 396 896 l 253 896 m 310 -14 q 140 63 196 -14 q 106 269 85 139 l 140 493 q 195 645 154 582 q 298 743 236 708 q 436 778 360 778 q 579 726 531 778 q 614 589 628 675 l 593 618 l 621 618 l 642 764 l 767 764 l 646 0 l 521 0 l 544 146 l 519 146 l 549 175 q 469 37 535 88 q 310 -14 404 -14 m 369 94 q 499 143 447 94 q 565 278 551 192 l 597 486 q 575 621 613 572 q 460 669 538 669 q 330 622 381 669 q 264 486 279 575 l 232 278 q 254 142 218 189 q 369 94 290 94 m 315 -296 q 247 -272 269 -296 q 231 -208 225 -249 q 268 -142 238 -167 q 344 -118 299 -118 q 413 -142 390 -118 q 428 -208 435 -167 q 392 -272 422 -249 q 315 -296 361 -296 z "},"ầ":{"ha":833,"x_min":85,"x_max":878,"o":"m 310 -14 q 140 63 196 -14 q 106 269 85 139 l 140 493 q 195 645 154 582 q 298 743 236 708 q 436 778 360 778 q 579 726 531 778 q 614 589 628 675 l 593 618 l 621 618 l 642 764 l 767 764 l 646 0 l 521 0 l 544 146 l 519 146 l 549 175 q 469 37 535 88 q 310 -14 404 -14 m 369 94 q 499 143 447 94 q 565 278 551 192 l 597 486 q 575 621 613 572 q 460 669 538 669 q 330 622 381 669 q 264 486 279 575 l 232 278 q 254 142 218 189 q 369 94 290 94 m 751 1056 l 601 1250 l 735 1250 l 878 1056 l 751 1056 m 246 896 l 469 1090 l 585 1090 l 749 896 l 614 896 l 518 1004 l 389 896 l 246 896 z "},"ẩ":{"ha":833,"x_min":85,"x_max":899,"o":"m 310 -14 q 140 63 196 -14 q 106 269 85 139 l 140 493 q 195 645 154 582 q 298 743 236 708 q 436 778 360 778 q 579 726 531 778 q 614 589 628 675 l 593 618 l 621 618 l 642 764 l 767 764 l 646 0 l 521 0 l 544 146 l 519 146 l 549 175 q 469 37 535 88 q 310 -14 404 -14 m 369 94 q 499 143 447 94 q 565 278 551 192 l 597 486 q 575 621 613 572 q 460 669 538 669 q 330 622 381 669 q 264 486 279 575 l 232 278 q 254 142 218 189 q 369 94 290 94 m 679 1056 l 756 1140 q 774 1175 772 1158 q 742 1208 778 1208 l 674 1208 l 686 1292 l 776 1292 q 867 1265 836 1292 q 892 1193 899 1238 q 857 1125 886 1158 l 797 1056 l 679 1056 m 246 896 l 469 1090 l 585 1090 l 749 896 l 614 896 l 518 1004 l 389 896 l 246 896 z "},"ẫ":{"ha":833,"x_min":85,"x_max":781,"o":"m 310 -14 q 140 63 196 -14 q 106 269 85 139 l 140 493 q 195 645 154 582 q 298 743 236 708 q 436 778 360 778 q 579 726 531 778 q 614 589 628 675 l 593 618 l 621 618 l 642 764 l 767 764 l 646 0 l 521 0 l 544 146 l 519 146 l 549 175 q 469 37 535 88 q 310 -14 404 -14 m 369 94 q 499 143 447 94 q 565 278 551 192 l 597 486 q 575 621 613 572 q 460 669 538 669 q 330 622 381 669 q 264 486 279 575 l 232 278 q 254 142 218 189 q 369 94 290 94 m 626 1128 q 560 1141 583 1128 q 522 1172 536 1154 q 495 1202 508 1189 q 458 1215 482 1215 q 410 1174 417 1215 l 404 1139 l 314 1139 l 318 1167 q 368 1256 326 1222 q 468 1289 410 1289 q 536 1276 513 1289 q 573 1245 560 1263 q 599 1215 586 1228 q 636 1201 613 1201 q 685 1243 678 1201 l 690 1278 l 781 1278 l 776 1250 q 726 1161 768 1194 q 626 1128 685 1128 m 246 896 l 469 1090 l 585 1090 l 749 896 l 614 896 l 518 1004 l 389 896 l 246 896 z "},"ä":{"ha":833,"x_min":85,"x_max":769,"o":"m 310 -14 q 140 63 196 -14 q 106 269 85 139 l 140 493 q 195 645 154 582 q 298 743 236 708 q 436 778 360 778 q 579 726 531 778 q 614 589 628 675 l 593 618 l 621 618 l 642 764 l 767 764 l 646 0 l 521 0 l 544 146 l 519 146 l 549 175 q 469 37 535 88 q 310 -14 404 -14 m 369 94 q 499 143 447 94 q 565 278 551 192 l 597 486 q 575 621 613 572 q 460 669 538 669 q 330 622 381 669 q 264 486 279 575 l 232 278 q 254 142 218 189 q 369 94 290 94 m 660 901 q 599 925 619 901 q 585 989 579 949 q 619 1055 592 1031 q 688 1079 647 1079 q 749 1055 728 1079 q 763 989 769 1031 q 728 925 757 949 q 660 901 700 901 m 351 901 q 291 925 311 901 q 276 989 271 949 q 311 1055 283 1031 q 379 1079 339 1079 q 440 1055 419 1079 q 454 989 461 1031 q 420 925 449 949 q 351 901 392 901 z "},"ạ":{"ha":833,"x_min":85,"x_max":767,"o":"m 310 -14 q 140 63 196 -14 q 106 269 85 139 l 140 493 q 195 645 154 582 q 298 743 236 708 q 436 778 360 778 q 579 726 531 778 q 614 589 628 675 l 593 618 l 621 618 l 642 764 l 767 764 l 646 0 l 521 0 l 544 146 l 519 146 l 549 175 q 469 37 535 88 q 310 -14 404 -14 m 369 94 q 499 143 447 94 q 565 278 551 192 l 597 486 q 575 621 613 572 q 460 669 538 669 q 330 622 381 669 q 264 486 279 575 l 232 278 q 254 142 218 189 q 369 94 290 94 m 315 -296 q 247 -272 269 -296 q 231 -208 225 -249 q 268 -142 238 -167 q 344 -118 299 -118 q 413 -142 390 -118 q 428 -208 435 -167 q 392 -272 422 -249 q 315 -296 361 -296 z "},"à":{"ha":833,"x_min":85,"x_max":767,"o":"m 310 -14 q 140 63 196 -14 q 106 269 85 139 l 140 493 q 195 645 154 582 q 298 743 236 708 q 436 778 360 778 q 579 726 531 778 q 614 589 628 675 l 593 618 l 621 618 l 642 764 l 767 764 l 646 0 l 521 0 l 544 146 l 519 146 l 549 175 q 469 37 535 88 q 310 -14 404 -14 m 369 94 q 499 143 447 94 q 565 278 551 192 l 597 486 q 575 621 613 572 q 460 669 538 669 q 330 622 381 669 q 264 486 279 575 l 232 278 q 254 142 218 189 q 369 94 290 94 m 463 896 l 333 1090 l 464 1090 l 586 896 l 463 896 z "},"ả":{"ha":833,"x_min":85,"x_max":767,"o":"m 310 -14 q 140 63 196 -14 q 106 269 85 139 l 140 493 q 195 645 154 582 q 298 743 236 708 q 436 778 360 778 q 579 726 531 778 q 614 589 628 675 l 593 618 l 621 618 l 642 764 l 767 764 l 646 0 l 521 0 l 544 146 l 519 146 l 549 175 q 469 37 535 88 q 310 -14 404 -14 m 369 94 q 499 143 447 94 q 565 278 551 192 l 597 486 q 575 621 613 572 q 460 669 538 669 q 330 622 381 669 q 264 486 279 575 l 232 278 q 254 142 218 189 q 369 94 290 94 m 438 896 l 521 983 q 539 1008 532 996 q 547 1028 546 1019 q 513 1056 551 1056 l 404 1056 l 419 1146 l 565 1146 q 646 1119 618 1146 q 667 1043 674 1092 q 654 1003 664 1022 q 631 968 644 983 l 564 896 l 438 896 z "},"ā":{"ha":833,"x_min":85,"x_max":767,"o":"m 310 -14 q 140 63 196 -14 q 106 269 85 139 l 140 493 q 195 645 154 582 q 298 743 236 708 q 436 778 360 778 q 579 726 531 778 q 614 589 628 675 l 593 618 l 621 618 l 642 764 l 767 764 l 646 0 l 521 0 l 544 146 l 519 146 l 549 175 q 469 37 535 88 q 310 -14 404 -14 m 369 94 q 499 143 447 94 q 565 278 551 192 l 597 486 q 575 621 613 572 q 460 669 538 669 q 330 622 381 669 q 264 486 279 575 l 232 278 q 254 142 218 189 q 369 94 290 94 m 288 931 l 304 1035 l 749 1035 l 732 931 l 288 931 z "},"ą":{"ha":833,"x_min":85,"x_max":767,"o":"m 563 -282 q 445 -245 486 -282 q 414 -153 404 -208 q 453 -72 421 -112 q 558 14 486 -32 l 644 0 q 566 -69 592 -39 q 535 -129 540 -100 q 548 -179 531 -160 q 600 -199 565 -199 l 683 -199 l 671 -282 l 563 -282 m 310 -14 q 140 63 196 -14 q 106 269 85 139 l 140 493 q 195 645 154 582 q 298 743 236 708 q 436 778 360 778 q 579 726 531 778 q 614 589 628 675 l 593 618 l 621 618 l 642 764 l 767 764 l 646 0 l 521 0 l 544 146 l 519 146 l 549 175 q 469 37 535 88 q 310 -14 404 -14 m 369 94 q 499 143 447 94 q 565 278 551 192 l 597 486 q 575 621 613 572 q 460 669 538 669 q 330 622 381 669 q 264 486 279 575 l 232 278 q 254 142 218 189 q 369 94 290 94 z "},"å":{"ha":833,"x_min":85,"x_max":767,"o":"m 310 -14 q 140 63 196 -14 q 106 269 85 139 l 140 493 q 195 645 154 582 q 298 743 236 708 q 436 778 360 778 q 579 726 531 778 q 614 589 628 675 l 593 618 l 621 618 l 642 764 l 767 764 l 646 0 l 521 0 l 544 146 l 519 146 l 549 175 q 469 37 535 88 q 310 -14 404 -14 m 369 94 q 499 143 447 94 q 565 278 551 192 l 597 486 q 575 621 613 572 q 460 669 538 669 q 330 622 381 669 q 264 486 279 575 l 232 278 q 254 142 218 189 q 369 94 290 94 m 496 844 q 383 888 421 844 q 354 1003 344 932 q 418 1117 365 1074 q 546 1161 471 1161 q 660 1117 621 1161 q 688 1003 699 1074 q 624 888 678 932 q 496 844 571 844 m 508 918 q 572 941 546 918 q 604 1003 599 964 q 592 1065 611 1042 q 535 1089 572 1089 q 471 1065 497 1089 q 438 1003 444 1042 q 451 941 432 964 q 508 918 471 918 z "},"ã":{"ha":833,"x_min":85,"x_max":767,"o":"m 310 -14 q 140 63 196 -14 q 106 269 85 139 l 140 493 q 195 645 154 582 q 298 743 236 708 q 436 778 360 778 q 579 726 531 778 q 614 589 628 675 l 593 618 l 621 618 l 642 764 l 767 764 l 646 0 l 521 0 l 544 146 l 519 146 l 549 175 q 469 37 535 88 q 310 -14 404 -14 m 369 94 q 499 143 447 94 q 565 278 551 192 l 597 486 q 575 621 613 572 q 460 669 538 669 q 330 622 381 669 q 264 486 279 575 l 232 278 q 254 142 218 189 q 369 94 290 94 m 603 903 q 538 917 561 903 q 499 951 514 932 q 469 985 483 971 q 431 1000 454 1000 q 399 988 413 1000 q 381 951 385 976 l 375 910 l 285 910 l 290 951 q 342 1049 301 1014 q 438 1083 382 1083 q 503 1069 479 1083 q 541 1035 526 1054 q 570 1001 556 1015 q 608 986 585 986 q 641 998 628 986 q 658 1035 654 1010 l 665 1076 l 756 1076 l 749 1035 q 699 938 739 972 q 603 903 660 903 z "},"æ":{"ha":833,"x_min":3,"x_max":828,"o":"m 172 -14 q 44 39 86 -14 q 17 181 3 92 l 29 264 q 108 401 43 350 q 271 451 174 451 l 374 451 l 390 554 q 382 643 400 615 q 315 671 364 671 q 249 647 276 671 q 215 583 222 624 l 97 583 q 170 724 111 671 q 313 778 229 778 q 399 760 367 778 q 447 716 432 742 q 463 667 463 690 l 468 667 q 499 716 476 690 q 558 760 521 742 q 646 778 594 778 q 784 718 740 778 q 811 556 828 658 l 779 354 l 471 354 l 449 208 q 461 125 440 157 q 524 93 482 93 q 598 117 568 93 q 635 181 628 140 l 753 181 q 674 40 739 93 q 519 -14 610 -14 q 437 4 468 -14 q 392 48 406 22 q 378 97 378 74 l 372 97 q 340 48 365 74 q 274 4 315 22 q 172 -14 232 -14 m 218 93 q 295 125 263 93 q 336 208 328 157 l 358 354 l 258 354 q 188 330 215 354 q 154 264 161 306 l 142 181 q 156 117 135 140 q 218 93 176 93 m 486 451 l 676 451 l 693 556 q 681 640 701 608 q 614 671 660 671 q 541 640 571 671 q 503 556 511 608 l 486 451 z "},"ǽ":{"ha":833,"x_min":3,"x_max":828,"o":"m 172 -14 q 44 39 86 -14 q 17 181 3 92 l 29 264 q 108 401 43 350 q 271 451 174 451 l 374 451 l 390 554 q 382 643 400 615 q 315 671 364 671 q 249 647 276 671 q 215 583 222 624 l 97 583 q 170 724 111 671 q 313 778 229 778 q 399 760 367 778 q 447 716 432 742 q 463 667 463 690 l 468 667 q 499 716 476 690 q 558 760 521 742 q 646 778 594 778 q 784 718 740 778 q 811 556 828 658 l 779 354 l 471 354 l 449 208 q 461 125 440 157 q 524 93 482 93 q 598 117 568 93 q 635 181 628 140 l 753 181 q 674 40 739 93 q 519 -14 610 -14 q 437 4 468 -14 q 392 48 406 22 q 378 97 378 74 l 372 97 q 340 48 365 74 q 274 4 315 22 q 172 -14 232 -14 m 218 93 q 295 125 263 93 q 336 208 328 157 l 358 354 l 258 354 q 188 330 215 354 q 154 264 161 306 l 142 181 q 156 117 135 140 q 218 93 176 93 m 486 451 l 676 451 l 693 556 q 681 640 701 608 q 614 671 660 671 q 541 640 571 671 q 503 556 511 608 l 486 451 m 413 896 l 590 1090 l 732 1090 l 547 896 l 413 896 z "},"b":{"ha":833,"x_min":67,"x_max":749,"o":"m 397 -14 q 254 37 303 -14 q 219 175 206 88 l 240 146 l 215 146 l 192 0 l 67 0 l 228 1014 l 353 1014 l 317 792 l 286 618 l 314 618 l 285 589 q 365 726 299 675 q 524 778 431 778 q 694 701 639 778 q 728 493 749 625 l 693 269 q 638 119 679 182 q 535 21 597 56 q 397 -14 474 -14 m 374 94 q 504 142 453 94 q 569 278 556 189 l 601 486 q 580 622 617 575 q 464 669 543 669 q 335 621 388 669 q 268 486 283 572 l 236 278 q 260 143 222 192 q 374 94 297 94 z "},"c":{"ha":833,"x_min":92,"x_max":756,"o":"m 358 -14 q 205 21 267 -14 q 117 122 143 56 q 106 278 92 188 l 138 486 q 199 643 153 578 q 319 743 246 708 q 485 778 393 778 q 686 707 617 778 q 740 514 756 636 l 615 514 q 583 627 622 588 q 467 667 544 667 q 331 620 385 667 q 264 488 278 574 l 231 278 q 256 144 217 192 q 376 97 294 97 q 506 138 454 97 q 574 250 557 178 l 699 250 q 583 57 675 128 q 358 -14 490 -14 z "},"ć":{"ha":833,"x_min":92,"x_max":756,"o":"m 358 -14 q 205 21 267 -14 q 117 122 143 56 q 106 278 92 188 l 138 486 q 199 643 153 578 q 319 743 246 708 q 485 778 393 778 q 686 707 617 778 q 740 514 756 636 l 615 514 q 583 627 622 588 q 467 667 544 667 q 331 620 385 667 q 264 488 278 574 l 231 278 q 256 144 217 192 q 376 97 294 97 q 506 138 454 97 q 574 250 557 178 l 699 250 q 583 57 675 128 q 358 -14 490 -14 m 418 896 l 596 1090 l 738 1090 l 553 896 l 418 896 z "},"č":{"ha":833,"x_min":92,"x_max":786,"o":"m 358 -14 q 205 21 267 -14 q 117 122 143 56 q 106 278 92 188 l 138 486 q 199 643 153 578 q 319 743 246 708 q 485 778 393 778 q 686 707 617 778 q 740 514 756 636 l 615 514 q 583 627 622 588 q 467 667 544 667 q 331 620 385 667 q 264 488 278 574 l 231 278 q 256 144 217 192 q 376 97 294 97 q 506 138 454 97 q 574 250 557 178 l 699 250 q 583 57 675 128 q 358 -14 490 -14 m 447 896 l 283 1090 l 418 1090 l 515 982 l 643 1090 l 786 1090 l 563 896 l 447 896 z "},"ç":{"ha":833,"x_min":92,"x_max":756,"o":"m 185 -282 l 197 -206 l 294 -206 q 346 -190 325 -206 q 369 -156 367 -174 q 338 -114 374 -132 q 233 -96 303 -96 l 303 36 l 382 36 l 339 -49 q 412 -67 375 -53 q 471 -106 449 -81 q 488 -167 493 -131 q 429 -248 481 -214 q 303 -282 378 -282 l 185 -282 m 358 -14 q 205 21 267 -14 q 117 122 143 56 q 106 278 92 188 l 138 486 q 199 643 153 578 q 319 743 246 708 q 485 778 393 778 q 686 707 617 778 q 740 514 756 636 l 615 514 q 583 627 622 588 q 467 667 544 667 q 331 620 385 667 q 264 488 278 574 l 231 278 q 256 144 217 192 q 376 97 294 97 q 506 138 454 97 q 574 250 557 178 l 699 250 q 583 57 675 128 q 358 -14 490 -14 z "},"ĉ":{"ha":833,"x_min":92,"x_max":756,"o":"m 358 -14 q 205 21 267 -14 q 117 122 143 56 q 106 278 92 188 l 138 486 q 199 643 153 578 q 319 743 246 708 q 485 778 393 778 q 686 707 617 778 q 740 514 756 636 l 615 514 q 583 627 622 588 q 467 667 544 667 q 331 620 385 667 q 264 488 278 574 l 231 278 q 256 144 217 192 q 376 97 294 97 q 506 138 454 97 q 574 250 557 178 l 699 250 q 583 57 675 128 q 358 -14 490 -14 m 246 896 l 469 1090 l 585 1090 l 749 896 l 614 896 l 518 1004 l 389 896 l 246 896 z "},"ċ":{"ha":833,"x_min":92,"x_max":756,"o":"m 358 -14 q 205 21 267 -14 q 117 122 143 56 q 106 278 92 188 l 138 486 q 199 643 153 578 q 319 743 246 708 q 485 778 393 778 q 686 707 617 778 q 740 514 756 636 l 615 514 q 583 627 622 588 q 467 667 544 667 q 331 620 385 667 q 264 488 278 574 l 231 278 q 256 144 217 192 q 376 97 294 97 q 506 138 454 97 q 574 250 557 178 l 699 250 q 583 57 675 128 q 358 -14 490 -14 m 499 901 q 431 925 453 901 q 414 989 408 949 q 451 1055 421 1031 q 526 1079 481 1079 q 595 1055 572 1079 q 611 989 618 1031 q 575 925 606 949 q 499 901 544 901 z "},"d":{"ha":833,"x_min":85,"x_max":807,"o":"m 310 -14 q 140 63 196 -14 q 106 269 85 139 l 140 493 q 195 645 154 582 q 298 743 236 708 q 436 778 360 778 q 579 726 531 778 q 614 589 628 675 l 593 618 l 621 618 l 646 792 l 682 1014 l 807 1014 l 646 0 l 521 0 l 544 146 l 519 146 l 549 175 q 469 37 535 88 q 310 -14 404 -14 m 369 94 q 499 143 447 94 q 565 278 551 192 l 597 486 q 575 621 613 572 q 460 669 538 669 q 330 622 381 669 q 264 486 279 575 l 232 278 q 254 142 218 189 q 369 94 290 94 z "},"ð":{"ha":833,"x_min":69,"x_max":740,"o":"m 351 -14 q 192 25 257 -14 q 98 135 126 64 q 83 299 69 206 q 146 460 99 392 q 265 567 193 529 q 425 606 338 606 q 495 593 465 606 q 544 563 525 581 q 571 528 564 544 l 590 528 q 569 578 586 542 q 524 667 553 615 l 454 790 l 210 689 l 228 801 l 406 879 l 329 1014 l 461 1014 l 508 928 l 740 1021 l 724 907 l 557 839 l 647 685 q 719 499 699 599 q 724 310 739 399 q 657 140 708 213 q 527 26 606 67 q 351 -14 449 -14 m 369 97 q 521 153 458 97 q 597 299 583 208 q 590 405 607 360 q 533 475 572 450 q 433 500 493 500 q 285 444 347 500 q 208 299 224 389 q 239 153 194 208 q 369 97 283 97 z "},"ď":{"ha":833,"x_min":49,"x_max":933,"o":"m 768 764 l 808 1014 l 933 1014 l 879 764 l 768 764 m 253 -14 q 98 61 147 -14 q 68 263 49 136 l 106 500 q 199 703 125 628 q 379 778 274 778 q 508 726 465 778 q 536 589 550 675 l 515 618 l 543 618 l 568 792 l 604 1014 l 729 1014 l 568 0 l 443 0 l 467 146 l 442 146 l 471 175 q 398 38 457 89 q 253 -14 339 -14 m 313 94 q 427 141 382 94 q 486 271 472 188 l 521 493 q 503 623 535 576 q 403 669 472 669 q 289 623 335 669 q 229 493 243 576 l 194 271 q 213 141 181 188 q 313 94 244 94 z "},"đ":{"ha":833,"x_min":86,"x_max":914,"o":"m 107 269 l 129 410 q 183 562 143 499 q 283 660 222 625 q 421 694 344 694 q 555 651 507 694 q 600 535 603 608 l 604 535 l 629 708 l 642 792 l 411 792 l 428 896 l 658 896 l 678 1014 l 803 1014 l 783 896 l 914 896 l 897 792 l 767 792 l 642 0 l 517 0 l 540 146 l 538 146 q 456 28 517 71 q 308 -14 396 -14 q 140 63 194 -14 q 107 269 86 139 m 233 278 q 254 142 219 189 q 368 94 289 94 q 497 143 446 94 q 561 278 547 192 l 581 403 q 559 538 594 489 q 446 586 524 586 q 317 539 367 586 q 253 403 267 492 l 233 278 z "},"e":{"ha":833,"x_min":92,"x_max":742,"o":"m 353 -14 q 203 22 263 -14 q 117 124 143 58 q 106 278 92 190 l 138 486 q 199 640 153 575 q 317 742 246 706 q 479 778 389 778 q 630 742 569 778 q 716 640 690 706 q 726 486 742 575 l 706 351 l 239 351 l 228 278 q 249 140 214 188 q 369 92 285 92 q 488 117 442 92 q 553 194 535 143 l 678 194 q 614 84 660 131 q 501 12 568 38 q 353 -14 433 -14 m 597 435 l 604 486 q 584 625 619 576 q 463 674 549 674 q 326 625 378 674 q 260 486 275 576 l 254 446 l 608 446 l 597 435 z "},"é":{"ha":833,"x_min":92,"x_max":742,"o":"m 353 -14 q 203 22 263 -14 q 117 124 143 58 q 106 278 92 190 l 138 486 q 199 640 153 575 q 317 742 246 706 q 479 778 389 778 q 630 742 569 778 q 716 640 690 706 q 726 486 742 575 l 706 351 l 239 351 l 228 278 q 249 140 214 188 q 369 92 285 92 q 488 117 442 92 q 553 194 535 143 l 678 194 q 614 84 660 131 q 501 12 568 38 q 353 -14 433 -14 m 597 435 l 604 486 q 584 625 619 576 q 463 674 549 674 q 326 625 378 674 q 260 486 275 576 l 254 446 l 608 446 l 597 435 m 413 896 l 590 1090 l 732 1090 l 547 896 l 413 896 z "},"ĕ":{"ha":833,"x_min":92,"x_max":750,"o":"m 353 -14 q 203 22 263 -14 q 117 124 143 58 q 106 278 92 190 l 138 486 q 199 640 153 575 q 317 742 246 706 q 479 778 389 778 q 630 742 569 778 q 716 640 690 706 q 726 486 742 575 l 706 351 l 239 351 l 228 278 q 249 140 214 188 q 369 92 285 92 q 488 117 442 92 q 553 194 535 143 l 678 194 q 614 84 660 131 q 501 12 568 38 q 353 -14 433 -14 m 597 435 l 604 486 q 584 625 619 576 q 463 674 549 674 q 326 625 378 674 q 260 486 275 576 l 254 446 l 608 446 l 597 435 m 496 889 q 344 944 396 889 q 306 1090 292 1000 l 403 1090 q 423 1003 394 1036 q 507 969 451 969 q 603 1003 564 969 q 650 1090 642 1036 l 750 1090 q 666 944 736 1000 q 496 889 596 889 z "},"ě":{"ha":833,"x_min":92,"x_max":781,"o":"m 353 -14 q 203 22 263 -14 q 117 124 143 58 q 106 278 92 190 l 138 486 q 199 640 153 575 q 317 742 246 706 q 479 778 389 778 q 630 742 569 778 q 716 640 690 706 q 726 486 742 575 l 706 351 l 239 351 l 228 278 q 249 140 214 188 q 369 92 285 92 q 488 117 442 92 q 553 194 535 143 l 678 194 q 614 84 660 131 q 501 12 568 38 q 353 -14 433 -14 m 597 435 l 604 486 q 584 625 619 576 q 463 674 549 674 q 326 625 378 674 q 260 486 275 576 l 254 446 l 608 446 l 597 435 m 442 896 l 278 1090 l 413 1090 l 510 982 l 638 1090 l 781 1090 l 557 896 l 442 896 z "},"ê":{"ha":833,"x_min":92,"x_max":749,"o":"m 353 -14 q 203 22 263 -14 q 117 124 143 58 q 106 278 92 190 l 138 486 q 199 640 153 575 q 317 742 246 706 q 479 778 389 778 q 630 742 569 778 q 716 640 690 706 q 726 486 742 575 l 706 351 l 239 351 l 228 278 q 249 140 214 188 q 369 92 285 92 q 488 117 442 92 q 553 194 535 143 l 678 194 q 614 84 660 131 q 501 12 568 38 q 353 -14 433 -14 m 597 435 l 604 486 q 584 625 619 576 q 463 674 549 674 q 326 625 378 674 q 260 486 275 576 l 254 446 l 608 446 l 597 435 m 246 896 l 469 1090 l 585 1090 l 749 896 l 614 896 l 518 1004 l 389 896 l 246 896 z "},"ế":{"ha":833,"x_min":92,"x_max":1006,"o":"m 353 -14 q 203 22 263 -14 q 117 124 143 58 q 106 278 92 190 l 138 486 q 199 640 153 575 q 317 742 246 706 q 479 778 389 778 q 630 742 569 778 q 716 640 690 706 q 726 486 742 575 l 706 351 l 239 351 l 228 278 q 249 140 214 188 q 369 92 285 92 q 488 117 442 92 q 553 194 535 143 l 678 194 q 614 84 660 131 q 501 12 568 38 q 353 -14 433 -14 m 597 435 l 604 486 q 584 625 619 576 q 463 674 549 674 q 326 625 378 674 q 260 486 275 576 l 254 446 l 608 446 l 597 435 m 671 1056 l 861 1250 l 1006 1250 l 808 1056 l 671 1056 m 246 896 l 469 1090 l 585 1090 l 749 896 l 614 896 l 518 1004 l 389 896 l 246 896 z "},"ệ":{"ha":833,"x_min":92,"x_max":754,"o":"m 251 896 l 475 1090 l 590 1090 l 754 896 l 619 896 l 524 1004 l 394 896 l 251 896 m 353 -14 q 203 22 263 -14 q 117 124 143 58 q 106 278 92 190 l 138 486 q 199 640 153 575 q 317 742 246 706 q 479 778 389 778 q 630 742 569 778 q 716 640 690 706 q 726 486 742 575 l 706 351 l 239 351 l 228 278 q 249 140 214 188 q 369 92 285 92 q 488 117 442 92 q 553 194 535 143 l 678 194 q 614 84 660 131 q 501 12 568 38 q 353 -14 433 -14 m 597 435 l 604 486 q 584 625 619 576 q 463 674 549 674 q 326 625 378 674 q 260 486 275 576 l 254 446 l 608 446 l 597 435 m 308 -296 q 240 -272 263 -296 q 224 -208 218 -249 q 261 -142 231 -167 q 338 -118 292 -118 q 406 -142 383 -118 q 421 -208 428 -167 q 385 -272 415 -249 q 308 -296 354 -296 z "},"ề":{"ha":833,"x_min":92,"x_max":878,"o":"m 353 -14 q 203 22 263 -14 q 117 124 143 58 q 106 278 92 190 l 138 486 q 199 640 153 575 q 317 742 246 706 q 479 778 389 778 q 630 742 569 778 q 716 640 690 706 q 726 486 742 575 l 706 351 l 239 351 l 228 278 q 249 140 214 188 q 369 92 285 92 q 488 117 442 92 q 553 194 535 143 l 678 194 q 614 84 660 131 q 501 12 568 38 q 353 -14 433 -14 m 597 435 l 604 486 q 584 625 619 576 q 463 674 549 674 q 326 625 378 674 q 260 486 275 576 l 254 446 l 608 446 l 597 435 m 751 1056 l 601 1250 l 735 1250 l 878 1056 l 751 1056 m 246 896 l 469 1090 l 585 1090 l 749 896 l 614 896 l 518 1004 l 389 896 l 246 896 z "},"ể":{"ha":833,"x_min":92,"x_max":899,"o":"m 353 -14 q 203 22 263 -14 q 117 124 143 58 q 106 278 92 190 l 138 486 q 199 640 153 575 q 317 742 246 706 q 479 778 389 778 q 630 742 569 778 q 716 640 690 706 q 726 486 742 575 l 706 351 l 239 351 l 228 278 q 249 140 214 188 q 369 92 285 92 q 488 117 442 92 q 553 194 535 143 l 678 194 q 614 84 660 131 q 501 12 568 38 q 353 -14 433 -14 m 597 435 l 604 486 q 584 625 619 576 q 463 674 549 674 q 326 625 378 674 q 260 486 275 576 l 254 446 l 608 446 l 597 435 m 679 1056 l 756 1140 q 774 1175 772 1158 q 742 1208 778 1208 l 674 1208 l 686 1292 l 776 1292 q 867 1265 836 1292 q 892 1193 899 1238 q 857 1125 886 1158 l 797 1056 l 679 1056 m 246 896 l 469 1090 l 585 1090 l 749 896 l 614 896 l 518 1004 l 389 896 l 246 896 z "},"ễ":{"ha":833,"x_min":92,"x_max":781,"o":"m 353 -14 q 203 22 263 -14 q 117 124 143 58 q 106 278 92 190 l 138 486 q 199 640 153 575 q 317 742 246 706 q 479 778 389 778 q 630 742 569 778 q 716 640 690 706 q 726 486 742 575 l 706 351 l 239 351 l 228 278 q 249 140 214 188 q 369 92 285 92 q 488 117 442 92 q 553 194 535 143 l 678 194 q 614 84 660 131 q 501 12 568 38 q 353 -14 433 -14 m 597 435 l 604 486 q 584 625 619 576 q 463 674 549 674 q 326 625 378 674 q 260 486 275 576 l 254 446 l 608 446 l 597 435 m 626 1128 q 560 1141 583 1128 q 522 1172 536 1154 q 495 1202 508 1189 q 458 1215 482 1215 q 410 1174 417 1215 l 404 1139 l 314 1139 l 318 1167 q 368 1256 326 1222 q 468 1289 410 1289 q 536 1276 513 1289 q 573 1245 560 1263 q 599 1215 586 1228 q 636 1201 613 1201 q 685 1243 678 1201 l 690 1278 l 781 1278 l 776 1250 q 726 1161 768 1194 q 626 1128 685 1128 m 246 896 l 469 1090 l 585 1090 l 749 896 l 614 896 l 518 1004 l 389 896 l 246 896 z "},"ë":{"ha":833,"x_min":92,"x_max":763,"o":"m 353 -14 q 203 22 263 -14 q 117 124 143 58 q 106 278 92 190 l 138 486 q 199 640 153 575 q 317 742 246 706 q 479 778 389 778 q 630 742 569 778 q 716 640 690 706 q 726 486 742 575 l 706 351 l 239 351 l 228 278 q 249 140 214 188 q 369 92 285 92 q 488 117 442 92 q 553 194 535 143 l 678 194 q 614 84 660 131 q 501 12 568 38 q 353 -14 433 -14 m 597 435 l 604 486 q 584 625 619 576 q 463 674 549 674 q 326 625 378 674 q 260 486 275 576 l 254 446 l 608 446 l 597 435 m 653 901 q 592 925 613 901 q 578 989 572 949 q 613 1055 585 1031 q 681 1079 640 1079 q 742 1055 721 1079 q 756 989 763 1031 q 722 925 750 949 q 653 901 693 901 m 344 901 q 284 925 304 901 q 269 989 264 949 q 304 1055 276 1031 q 372 1079 332 1079 q 433 1055 413 1079 q 447 989 454 1031 q 413 925 442 949 q 344 901 385 901 z "},"ė":{"ha":833,"x_min":92,"x_max":742,"o":"m 353 -14 q 203 22 263 -14 q 117 124 143 58 q 106 278 92 190 l 138 486 q 199 640 153 575 q 317 742 246 706 q 479 778 389 778 q 630 742 569 778 q 716 640 690 706 q 726 486 742 575 l 706 351 l 239 351 l 228 278 q 249 140 214 188 q 369 92 285 92 q 488 117 442 92 q 553 194 535 143 l 678 194 q 614 84 660 131 q 501 12 568 38 q 353 -14 433 -14 m 597 435 l 604 486 q 584 625 619 576 q 463 674 549 674 q 326 625 378 674 q 260 486 275 576 l 254 446 l 608 446 l 597 435 m 499 901 q 431 925 453 901 q 414 989 408 949 q 451 1055 421 1031 q 526 1079 481 1079 q 595 1055 572 1079 q 611 989 618 1031 q 575 925 606 949 q 499 901 544 901 z "},"ẹ":{"ha":833,"x_min":92,"x_max":742,"o":"m 353 -14 q 203 22 263 -14 q 117 124 143 58 q 106 278 92 190 l 138 486 q 199 640 153 575 q 317 742 246 706 q 479 778 389 778 q 630 742 569 778 q 716 640 690 706 q 726 486 742 575 l 706 351 l 239 351 l 228 278 q 249 140 214 188 q 369 92 285 92 q 488 117 442 92 q 553 194 535 143 l 678 194 q 614 84 660 131 q 501 12 568 38 q 353 -14 433 -14 m 597 435 l 604 486 q 584 625 619 576 q 463 674 549 674 q 326 625 378 674 q 260 486 275 576 l 254 446 l 608 446 l 597 435 m 308 -296 q 240 -272 263 -296 q 224 -208 218 -249 q 261 -142 231 -167 q 338 -118 292 -118 q 406 -142 383 -118 q 421 -208 428 -167 q 385 -272 415 -249 q 308 -296 354 -296 z "},"è":{"ha":833,"x_min":92,"x_max":742,"o":"m 353 -14 q 203 22 263 -14 q 117 124 143 58 q 106 278 92 190 l 138 486 q 199 640 153 575 q 317 742 246 706 q 479 778 389 778 q 630 742 569 778 q 716 640 690 706 q 726 486 742 575 l 706 351 l 239 351 l 228 278 q 249 140 214 188 q 369 92 285 92 q 488 117 442 92 q 553 194 535 143 l 678 194 q 614 84 660 131 q 501 12 568 38 q 353 -14 433 -14 m 597 435 l 604 486 q 584 625 619 576 q 463 674 549 674 q 326 625 378 674 q 260 486 275 576 l 254 446 l 608 446 l 597 435 m 456 896 l 326 1090 l 457 1090 l 579 896 l 456 896 z "},"ẻ":{"ha":833,"x_min":92,"x_max":742,"o":"m 353 -14 q 203 22 263 -14 q 117 124 143 58 q 106 278 92 190 l 138 486 q 199 640 153 575 q 317 742 246 706 q 479 778 389 778 q 630 742 569 778 q 716 640 690 706 q 726 486 742 575 l 706 351 l 239 351 l 228 278 q 249 140 214 188 q 369 92 285 92 q 488 117 442 92 q 553 194 535 143 l 678 194 q 614 84 660 131 q 501 12 568 38 q 353 -14 433 -14 m 597 435 l 604 486 q 584 625 619 576 q 463 674 549 674 q 326 625 378 674 q 260 486 275 576 l 254 446 l 608 446 l 597 435 m 431 896 l 514 983 q 532 1008 525 996 q 540 1028 539 1019 q 506 1056 544 1056 l 397 1056 l 413 1146 l 558 1146 q 639 1119 611 1146 q 660 1043 667 1092 q 647 1003 657 1022 q 624 968 638 983 l 557 896 l 431 896 z "},"ē":{"ha":833,"x_min":92,"x_max":742,"o":"m 353 -14 q 203 22 263 -14 q 117 124 143 58 q 106 278 92 190 l 138 486 q 199 640 153 575 q 317 742 246 706 q 479 778 389 778 q 630 742 569 778 q 716 640 690 706 q 726 486 742 575 l 706 351 l 239 351 l 228 278 q 249 140 214 188 q 369 92 285 92 q 488 117 442 92 q 553 194 535 143 l 678 194 q 614 84 660 131 q 501 12 568 38 q 353 -14 433 -14 m 597 435 l 604 486 q 584 625 619 576 q 463 674 549 674 q 326 625 378 674 q 260 486 275 576 l 254 446 l 608 446 l 597 435 m 281 931 l 297 1035 l 742 1035 l 725 931 l 281 931 z "},"ę":{"ha":833,"x_min":92,"x_max":742,"o":"m 413 -282 q 295 -245 336 -282 q 264 -153 254 -208 q 294 -85 268 -121 q 367 -14 321 -50 q 360 -14 364 -14 q 353 -14 356 -14 q 203 22 263 -14 q 117 124 143 58 q 106 278 92 190 l 138 486 q 199 640 153 575 q 317 742 246 706 q 479 778 389 778 q 630 742 569 778 q 716 640 690 706 q 726 486 742 575 l 706 351 l 239 351 l 228 278 q 249 140 214 188 q 369 92 285 92 q 488 117 442 92 q 553 194 535 143 l 678 194 q 619 90 661 135 q 519 19 578 46 l 494 1 q 416 -69 442 -37 q 385 -129 390 -100 q 398 -179 381 -160 q 450 -199 415 -199 l 533 -199 l 521 -282 l 413 -282 m 590 390 l 604 486 q 584 625 619 576 q 463 674 549 674 q 326 625 378 674 q 260 486 275 576 l 254 446 l 654 446 l 590 390 z "},"ẽ":{"ha":833,"x_min":92,"x_max":749,"o":"m 353 -14 q 203 22 263 -14 q 117 124 143 58 q 106 278 92 190 l 138 486 q 199 640 153 575 q 317 742 246 706 q 479 778 389 778 q 630 742 569 778 q 716 640 690 706 q 726 486 742 575 l 706 351 l 239 351 l 228 278 q 249 140 214 188 q 369 92 285 92 q 488 117 442 92 q 553 194 535 143 l 678 194 q 614 84 660 131 q 501 12 568 38 q 353 -14 433 -14 m 597 435 l 604 486 q 584 625 619 576 q 463 674 549 674 q 326 625 378 674 q 260 486 275 576 l 254 446 l 608 446 l 597 435 m 596 903 q 531 917 554 903 q 492 951 507 932 q 462 985 476 971 q 424 1000 447 1000 q 392 988 406 1000 q 374 951 378 976 l 368 910 l 278 910 l 283 951 q 335 1049 294 1014 q 431 1083 375 1083 q 496 1069 472 1083 q 534 1035 519 1054 q 563 1001 549 1015 q 601 986 578 986 q 634 998 621 986 q 651 1035 647 1010 l 658 1076 l 749 1076 l 742 1035 q 692 938 732 972 q 596 903 653 903 z "},"ə":{"ha":833,"x_min":94,"x_max":739,"o":"m 353 -14 q 203 22 263 -14 q 119 124 144 58 q 108 278 94 190 l 129 413 l 590 413 l 601 486 q 583 624 617 576 q 463 672 549 672 q 346 647 390 672 q 282 569 301 621 l 157 569 q 272 722 185 665 q 479 778 358 778 q 629 742 569 778 q 714 640 689 706 q 724 486 739 575 l 692 278 q 632 124 678 190 q 515 22 586 58 q 353 -14 443 -14 m 369 90 q 506 139 456 90 q 569 278 556 188 l 575 318 l 226 318 l 239 329 l 231 278 q 251 139 217 188 q 369 90 285 90 z "},"f":{"ha":833,"x_min":-65,"x_max":886,"o":"m -65 -250 l -47 -136 l 110 -136 q 200 -110 168 -136 q 240 -28 232 -83 l 335 574 l 113 574 l 131 688 l 353 688 l 369 792 q 417 910 381 861 q 511 987 453 960 q 644 1014 569 1014 l 886 1014 l 868 900 l 625 900 q 535 874 567 900 q 494 792 503 847 l 478 688 l 790 688 l 772 574 l 460 574 l 365 -28 q 276 -190 350 -131 q 90 -250 203 -250 l -65 -250 z "},"g":{"ha":833,"x_min":96,"x_max":767,"o":"m 125 -250 l 143 -136 l 386 -136 q 476 -110 444 -136 q 517 -28 507 -83 l 532 69 l 557 208 l 532 208 l 558 229 q 482 97 544 146 q 326 49 419 49 q 152 126 208 49 q 117 333 96 203 l 142 494 q 197 645 156 582 q 301 743 238 708 q 442 778 364 778 q 583 729 535 778 q 617 597 631 681 l 596 618 l 619 618 l 643 764 l 767 764 l 642 -28 q 552 -190 625 -131 q 367 -250 479 -250 l 125 -250 m 381 157 q 510 206 458 157 q 576 340 563 254 l 599 486 q 576 621 614 572 q 461 669 539 669 q 331 622 382 669 q 265 486 281 575 l 243 340 q 265 204 229 251 q 381 157 301 157 z "},"ǵ":{"ha":833,"x_min":96,"x_max":767,"o":"m 125 -250 l 143 -136 l 386 -136 q 476 -110 444 -136 q 517 -28 507 -83 l 532 69 l 557 208 l 532 208 l 558 229 q 482 97 544 146 q 326 49 419 49 q 152 126 208 49 q 117 333 96 203 l 142 494 q 197 645 156 582 q 301 743 238 708 q 442 778 364 778 q 583 729 535 778 q 617 597 631 681 l 596 618 l 619 618 l 643 764 l 767 764 l 642 -28 q 552 -190 625 -131 q 367 -250 479 -250 l 125 -250 m 381 157 q 510 206 458 157 q 576 340 563 254 l 599 486 q 576 621 614 572 q 461 669 539 669 q 331 622 382 669 q 265 486 281 575 l 243 340 q 265 204 229 251 q 381 157 301 157 m 408 896 l 586 1090 l 728 1090 l 543 896 l 408 896 z "},"ğ":{"ha":833,"x_min":96,"x_max":767,"o":"m 125 -250 l 143 -136 l 386 -136 q 476 -110 444 -136 q 517 -28 507 -83 l 532 69 l 557 208 l 532 208 l 558 229 q 482 97 544 146 q 326 49 419 49 q 152 126 208 49 q 117 333 96 203 l 142 494 q 197 645 156 582 q 301 743 238 708 q 442 778 364 778 q 583 729 535 778 q 617 597 631 681 l 596 618 l 619 618 l 643 764 l 767 764 l 642 -28 q 552 -190 625 -131 q 367 -250 479 -250 l 125 -250 m 381 157 q 510 206 458 157 q 576 340 563 254 l 599 486 q 576 621 614 572 q 461 669 539 669 q 331 622 382 669 q 265 486 281 575 l 243 340 q 265 204 229 251 q 381 157 301 157 m 492 889 q 340 944 392 889 q 301 1090 288 1000 l 399 1090 q 419 1003 390 1036 q 503 969 447 969 q 599 1003 560 969 q 646 1090 638 1036 l 746 1090 q 662 944 732 1000 q 492 889 592 889 z "},"ǧ":{"ha":833,"x_min":96,"x_max":776,"o":"m 125 -250 l 143 -136 l 386 -136 q 476 -110 444 -136 q 517 -28 507 -83 l 532 69 l 557 208 l 532 208 l 558 229 q 482 97 544 146 q 326 49 419 49 q 152 126 208 49 q 117 333 96 203 l 142 494 q 197 645 156 582 q 301 743 238 708 q 442 778 364 778 q 583 729 535 778 q 617 597 631 681 l 596 618 l 619 618 l 643 764 l 767 764 l 642 -28 q 552 -190 625 -131 q 367 -250 479 -250 l 125 -250 m 381 157 q 510 206 458 157 q 576 340 563 254 l 599 486 q 576 621 614 572 q 461 669 539 669 q 331 622 382 669 q 265 486 281 575 l 243 340 q 265 204 229 251 q 381 157 301 157 m 438 896 l 274 1090 l 408 1090 l 506 982 l 633 1090 l 776 1090 l 553 896 l 438 896 z "},"ĝ":{"ha":833,"x_min":96,"x_max":767,"o":"m 125 -250 l 143 -136 l 386 -136 q 476 -110 444 -136 q 517 -28 507 -83 l 532 69 l 557 208 l 532 208 l 558 229 q 482 97 544 146 q 326 49 419 49 q 152 126 208 49 q 117 333 96 203 l 142 494 q 197 645 156 582 q 301 743 238 708 q 442 778 364 778 q 583 729 535 778 q 617 597 631 681 l 596 618 l 619 618 l 643 764 l 767 764 l 642 -28 q 552 -190 625 -131 q 367 -250 479 -250 l 125 -250 m 381 157 q 510 206 458 157 q 576 340 563 254 l 599 486 q 576 621 614 572 q 461 669 539 669 q 331 622 382 669 q 265 486 281 575 l 243 340 q 265 204 229 251 q 381 157 301 157 m 242 896 l 465 1090 l 581 1090 l 744 896 l 610 896 l 514 1004 l 385 896 l 242 896 z "},"ģ":{"ha":833,"x_min":96,"x_max":767,"o":"m 125 -250 l 143 -136 l 386 -136 q 476 -110 444 -136 q 517 -28 507 -83 l 532 69 l 557 208 l 532 208 l 558 229 q 482 97 544 146 q 326 49 419 49 q 152 126 208 49 q 117 333 96 203 l 142 494 q 197 645 156 582 q 301 743 238 708 q 442 778 364 778 q 583 729 535 778 q 617 597 631 681 l 596 618 l 619 618 l 643 764 l 767 764 l 642 -28 q 552 -190 625 -131 q 367 -250 479 -250 l 125 -250 m 381 157 q 510 206 458 157 q 576 340 563 254 l 599 486 q 576 621 614 572 q 461 669 539 669 q 331 622 382 669 q 265 486 281 575 l 243 340 q 265 204 229 251 q 381 157 301 157 m 700 1222 l 538 896 l 372 896 l 604 1222 l 700 1222 z "},"ġ":{"ha":833,"x_min":96,"x_max":767,"o":"m 125 -250 l 143 -136 l 386 -136 q 476 -110 444 -136 q 517 -28 507 -83 l 532 69 l 557 208 l 532 208 l 558 229 q 482 97 544 146 q 326 49 419 49 q 152 126 208 49 q 117 333 96 203 l 142 494 q 197 645 156 582 q 301 743 238 708 q 442 778 364 778 q 583 729 535 778 q 617 597 631 681 l 596 618 l 619 618 l 643 764 l 767 764 l 642 -28 q 552 -190 625 -131 q 367 -250 479 -250 l 125 -250 m 381 157 q 510 206 458 157 q 576 340 563 254 l 599 486 q 576 621 614 572 q 461 669 539 669 q 331 622 382 669 q 265 486 281 575 l 243 340 q 265 204 229 251 q 381 157 301 157 m 494 901 q 426 925 449 901 q 410 989 404 949 q 447 1055 417 1031 q 522 1079 476 1079 q 591 1055 568 1079 q 607 989 614 1031 q 571 925 601 949 q 494 901 540 901 z "},"h":{"ha":833,"x_min":67,"x_max":749,"o":"m 67 0 l 228 1014 l 353 1014 l 313 764 l 289 618 l 315 618 l 285 589 q 362 728 300 679 q 519 778 424 778 q 692 707 635 778 q 729 514 749 636 l 647 0 l 522 0 l 601 500 q 578 627 614 582 q 467 672 542 672 q 336 624 389 672 q 268 486 283 575 l 192 0 l 67 0 z "},"ħ":{"ha":833,"x_min":64,"x_max":735,"o":"m 64 792 l 81 896 l 208 896 l 228 1014 l 353 1014 l 333 896 l 567 896 l 550 792 l 317 792 l 300 681 l 276 535 l 278 535 q 359 653 300 611 q 506 694 418 694 q 678 624 621 694 q 715 431 735 553 l 647 0 l 522 0 l 589 417 q 565 544 601 499 q 453 589 528 589 q 322 540 375 589 q 256 403 269 492 l 192 0 l 67 0 l 192 792 l 64 792 z "},"ĥ":{"ha":833,"x_min":38,"x_max":749,"o":"m 67 0 l 228 1014 l 353 1014 l 313 764 l 289 618 l 315 618 l 285 589 q 362 728 300 679 q 519 778 424 778 q 692 707 635 778 q 729 514 749 636 l 647 0 l 522 0 l 601 500 q 578 627 614 582 q 467 672 542 672 q 336 624 389 672 q 268 486 283 575 l 192 0 l 67 0 m 38 1118 l 261 1313 l 376 1313 l 540 1118 l 406 1118 l 310 1226 l 181 1118 l 38 1118 z "},"i":{"ha":833,"x_min":50,"x_max":721,"o":"m 50 0 l 68 114 l 339 114 l 424 650 l 188 650 l 206 764 l 567 764 l 464 114 l 721 114 l 703 0 l 50 0 m 519 901 q 451 925 474 901 q 435 989 429 949 q 472 1055 442 1031 q 547 1079 501 1079 q 616 1055 593 1079 q 632 989 639 1031 q 596 925 626 949 q 519 901 565 901 z "},"ı":{"ha":833,"x_min":50,"x_max":721,"o":"m 50 0 l 68 114 l 339 114 l 424 650 l 188 650 l 206 764 l 567 764 l 464 114 l 721 114 l 703 0 l 50 0 z "},"í":{"ha":833,"x_min":50,"x_max":753,"o":"m 50 0 l 68 114 l 339 114 l 424 650 l 188 650 l 206 764 l 567 764 l 464 114 l 721 114 l 703 0 l 50 0 m 433 896 l 611 1090 l 753 1090 l 568 896 l 433 896 z "},"ĭ":{"ha":833,"x_min":50,"x_max":771,"o":"m 50 0 l 68 114 l 339 114 l 424 650 l 188 650 l 206 764 l 567 764 l 464 114 l 721 114 l 703 0 l 50 0 m 517 889 q 365 944 417 889 q 326 1090 313 1000 l 424 1090 q 444 1003 415 1036 q 528 969 472 969 q 624 1003 585 969 q 671 1090 663 1036 l 771 1090 q 687 944 757 1000 q 517 889 617 889 z "},"î":{"ha":833,"x_min":50,"x_max":769,"o":"m 50 0 l 68 114 l 339 114 l 424 650 l 188 650 l 206 764 l 567 764 l 464 114 l 721 114 l 703 0 l 50 0 m 267 896 l 490 1090 l 606 1090 l 769 896 l 635 896 l 539 1004 l 410 896 l 267 896 z "},"ï":{"ha":833,"x_min":50,"x_max":783,"o":"m 50 0 l 68 114 l 339 114 l 424 650 l 188 650 l 206 764 l 567 764 l 464 114 l 721 114 l 703 0 l 50 0 m 674 901 q 613 925 633 901 q 599 989 593 949 q 633 1055 606 1031 q 701 1079 661 1079 q 763 1055 742 1079 q 776 989 783 1031 q 742 925 771 949 q 674 901 714 901 m 365 901 q 305 925 325 901 q 290 989 285 949 q 325 1055 297 1031 q 393 1079 353 1079 q 454 1055 433 1079 q 468 989 475 1031 q 434 925 463 949 q 365 901 406 901 z "},"ị":{"ha":833,"x_min":50,"x_max":721,"o":"m 50 0 l 68 114 l 339 114 l 424 650 l 188 650 l 206 764 l 567 764 l 464 114 l 721 114 l 703 0 l 50 0 m 519 901 q 451 925 474 901 q 435 989 429 949 q 472 1055 442 1031 q 547 1079 501 1079 q 616 1055 593 1079 q 632 989 639 1031 q 596 925 626 949 q 519 901 565 901 m 329 -296 q 261 -272 283 -296 q 244 -208 239 -249 q 282 -142 251 -167 q 358 -118 313 -118 q 426 -142 404 -118 q 442 -208 449 -167 q 406 -272 436 -249 q 329 -296 375 -296 z "},"ì":{"ha":833,"x_min":50,"x_max":721,"o":"m 50 0 l 68 114 l 339 114 l 424 650 l 188 650 l 206 764 l 567 764 l 464 114 l 721 114 l 703 0 l 50 0 m 476 896 l 347 1090 l 478 1090 l 600 896 l 476 896 z "},"ỉ":{"ha":833,"x_min":50,"x_max":721,"o":"m 50 0 l 68 114 l 339 114 l 424 650 l 188 650 l 206 764 l 567 764 l 464 114 l 721 114 l 703 0 l 50 0 m 456 896 l 539 983 q 557 1008 550 996 q 565 1028 564 1019 q 531 1056 569 1056 l 422 1056 l 438 1146 l 583 1146 q 664 1119 636 1146 q 685 1043 692 1092 q 672 1003 682 1022 q 649 968 663 983 l 582 896 l 456 896 z "},"ī":{"ha":833,"x_min":50,"x_max":763,"o":"m 50 0 l 68 114 l 339 114 l 424 650 l 188 650 l 206 764 l 567 764 l 464 114 l 721 114 l 703 0 l 50 0 m 301 931 l 318 1035 l 763 1035 l 746 931 l 301 931 z "},"į":{"ha":833,"x_min":50,"x_max":721,"o":"m 342 -282 q 224 -245 265 -282 q 193 -153 183 -208 q 233 -72 200 -112 q 338 14 265 -32 l 442 14 l 424 1 q 345 -69 371 -37 q 314 -129 319 -100 q 327 -179 310 -160 q 379 -199 344 -199 l 463 -199 l 450 -282 l 342 -282 m 50 0 l 68 114 l 339 114 l 424 650 l 188 650 l 206 764 l 567 764 l 464 114 l 721 114 l 703 0 l 50 0 m 519 901 q 451 925 474 901 q 435 989 429 949 q 472 1055 442 1031 q 547 1079 501 1079 q 616 1055 593 1079 q 632 989 639 1031 q 596 925 626 949 q 519 901 565 901 z "},"ĩ":{"ha":833,"x_min":50,"x_max":769,"o":"m 50 0 l 68 114 l 339 114 l 424 650 l 188 650 l 206 764 l 567 764 l 464 114 l 721 114 l 703 0 l 50 0 m 617 903 q 551 917 575 903 q 513 951 528 932 q 483 985 497 971 q 444 1000 468 1000 q 413 988 426 1000 q 394 951 399 976 l 389 910 l 299 910 l 304 951 q 356 1049 315 1014 q 451 1083 396 1083 q 517 1069 493 1083 q 555 1035 540 1054 q 584 1001 569 1015 q 622 986 599 986 q 655 998 642 986 q 672 1035 668 1010 l 679 1076 l 769 1076 l 763 1035 q 713 938 753 972 q 617 903 674 903 z "},"j":{"ha":833,"x_min":17,"x_max":736,"o":"m 17 -250 l 36 -135 l 215 -135 q 356 -88 301 -135 q 425 43 411 -42 l 521 650 l 201 650 l 219 764 l 664 764 l 550 43 q 488 -112 536 -46 q 365 -214 439 -178 q 196 -250 290 -250 l 17 -250 m 617 901 q 549 925 571 901 q 532 989 526 949 q 569 1055 539 1031 q 644 1079 599 1079 q 713 1055 690 1079 q 729 989 736 1031 q 693 925 724 949 q 617 901 663 901 z "},"ȷ":{"ha":833,"x_min":17,"x_max":664,"o":"m 17 -250 l 36 -135 l 215 -135 q 356 -88 301 -135 q 425 43 411 -42 l 521 650 l 201 650 l 219 764 l 664 764 l 550 43 q 488 -112 536 -46 q 365 -214 439 -178 q 196 -250 290 -250 l 17 -250 z "},"ĵ":{"ha":833,"x_min":17,"x_max":783,"o":"m 17 -250 l 36 -135 l 215 -135 q 356 -88 301 -135 q 425 43 411 -42 l 521 650 l 201 650 l 219 764 l 664 764 l 550 43 q 488 -112 536 -46 q 365 -214 439 -178 q 196 -250 290 -250 l 17 -250 m 281 896 l 504 1090 l 619 1090 l 783 896 l 649 896 l 553 1004 l 424 896 l 281 896 z "},"k":{"ha":833,"x_min":71,"x_max":815,"o":"m 71 0 l 232 1014 l 357 1014 l 267 449 l 397 449 l 669 764 l 815 764 l 501 396 l 699 0 l 556 0 l 388 340 l 250 340 l 196 0 l 71 0 z "},"ķ":{"ha":833,"x_min":71,"x_max":815,"o":"m 71 0 l 232 1014 l 357 1014 l 267 449 l 397 449 l 669 764 l 815 764 l 501 396 l 699 0 l 556 0 l 388 340 l 250 340 l 196 0 l 71 0 m 150 -333 l 314 -132 l 460 -132 l 282 -333 l 150 -333 z "},"ĸ":{"ha":833,"x_min":74,"x_max":815,"o":"m 74 0 l 194 764 l 319 764 l 269 449 l 397 449 l 669 764 l 815 764 l 501 396 l 699 0 l 556 0 l 388 340 l 253 340 l 199 0 l 74 0 z "},"l":{"ha":833,"x_min":138,"x_max":721,"o":"m 446 0 q 294 59 344 0 q 258 215 243 118 l 367 900 l 138 900 l 156 1014 l 510 1014 l 383 215 q 398 141 376 168 q 464 114 419 114 l 721 114 l 703 0 l 446 0 z "},"ĺ":{"ha":833,"x_min":138,"x_max":721,"o":"m 446 0 q 294 59 344 0 q 258 215 243 118 l 367 900 l 138 900 l 156 1014 l 510 1014 l 383 215 q 398 141 376 168 q 464 114 419 114 l 721 114 l 703 0 l 446 0 m 365 1125 l 543 1319 l 685 1319 l 500 1125 l 365 1125 z "},"ľ":{"ha":833,"x_min":138,"x_max":836,"o":"m 446 0 q 294 59 344 0 q 258 215 243 118 l 367 900 l 138 900 l 156 1014 l 510 1014 l 383 215 q 398 141 376 168 q 464 114 419 114 l 721 114 l 703 0 l 446 0 m 664 764 l 718 1014 l 836 1014 l 768 764 l 664 764 z "},"ļ":{"ha":833,"x_min":128,"x_max":721,"o":"m 446 0 q 294 59 344 0 q 258 215 243 118 l 367 900 l 138 900 l 156 1014 l 510 1014 l 383 215 q 398 141 376 168 q 464 114 419 114 l 721 114 l 703 0 l 446 0 m 128 -333 l 292 -132 l 438 -132 l 260 -333 l 128 -333 z "},"ŀ":{"ha":833,"x_min":110,"x_max":838,"o":"m 418 0 q 266 59 317 0 q 231 215 215 118 l 339 900 l 110 900 l 128 1014 l 482 1014 l 356 215 q 370 141 349 168 q 436 114 392 114 l 693 114 l 675 0 l 418 0 z "},"ł":{"ha":833,"x_min":138,"x_max":721,"o":"m 139 319 l 139 431 l 653 778 l 653 667 l 139 319 m 446 0 q 294 59 344 0 q 258 215 243 118 l 367 900 l 138 900 l 156 1014 l 510 1014 l 383 215 q 398 141 376 168 q 464 114 419 114 l 721 114 l 703 0 l 446 0 z "},"m":{"ha":833,"x_min":31,"x_max":788,"o":"m 31 0 l 151 764 l 261 764 l 247 672 l 272 672 l 247 639 q 298 740 258 703 q 396 778 338 778 q 487 731 460 778 q 500 597 514 683 l 475 672 l 533 672 l 501 639 q 553 740 513 703 q 653 778 594 778 q 756 724 725 778 q 772 581 788 669 l 681 0 l 565 0 l 657 582 q 649 656 664 629 q 594 682 633 682 q 531 656 557 682 q 499 583 506 631 l 406 0 l 306 0 l 397 582 q 388 656 406 631 q 332 682 371 682 q 269 656 293 682 q 239 583 246 631 l 146 0 l 31 0 z "},"n":{"ha":833,"x_min":67,"x_max":749,"o":"m 67 0 l 188 764 l 313 764 l 289 618 l 315 618 l 285 589 q 362 728 300 679 q 519 778 424 778 q 692 707 635 778 q 729 514 749 636 l 647 0 l 522 0 l 601 500 q 578 627 614 582 q 467 672 542 672 q 336 624 389 672 q 268 486 283 575 l 192 0 l 67 0 z "},"ń":{"ha":833,"x_min":67,"x_max":749,"o":"m 67 0 l 188 764 l 313 764 l 289 618 l 315 618 l 285 589 q 362 728 300 679 q 519 778 424 778 q 692 707 635 778 q 729 514 749 636 l 647 0 l 522 0 l 601 500 q 578 627 614 582 q 467 672 542 672 q 336 624 389 672 q 268 486 283 575 l 192 0 l 67 0 m 371 896 l 549 1090 l 690 1090 l 506 896 l 371 896 z "},"ŉ":{"ha":833,"x_min":-114,"x_max":749,"o":"m 67 0 l 188 764 l 313 764 l 289 618 l 315 618 l 285 589 q 362 728 300 679 q 519 778 424 778 q 692 707 635 778 q 729 514 749 636 l 647 0 l 522 0 l 601 500 q 578 627 614 582 q 467 672 542 672 q 336 624 389 672 q 268 486 283 575 l 192 0 l 67 0 m -114 896 l 50 1097 l 196 1097 l 18 896 l -114 896 z "},"ň":{"ha":833,"x_min":67,"x_max":781,"o":"m 67 0 l 188 764 l 313 764 l 289 618 l 315 618 l 285 589 q 362 728 300 679 q 519 778 424 778 q 692 707 635 778 q 729 514 749 636 l 647 0 l 522 0 l 601 500 q 578 627 614 582 q 467 672 542 672 q 336 624 389 672 q 268 486 283 575 l 192 0 l 67 0 m 442 896 l 278 1090 l 413 1090 l 510 982 l 638 1090 l 781 1090 l 557 896 l 442 896 z "},"ņ":{"ha":833,"x_min":67,"x_max":749,"o":"m 67 0 l 188 764 l 313 764 l 289 618 l 315 618 l 285 589 q 362 728 300 679 q 519 778 424 778 q 692 707 635 778 q 729 514 749 636 l 647 0 l 522 0 l 601 500 q 578 627 614 582 q 467 672 542 672 q 336 624 389 672 q 268 486 283 575 l 192 0 l 67 0 m 150 -333 l 314 -132 l 460 -132 l 282 -333 l 150 -333 z "},"ŋ":{"ha":833,"x_min":69,"x_max":746,"o":"m 232 -250 l 250 -136 l 338 -136 q 461 -94 411 -136 q 522 21 511 -51 l 599 500 q 576 627 611 582 q 467 672 542 672 q 338 624 389 672 q 271 486 286 575 l 194 0 l 69 0 l 190 764 l 315 764 l 292 618 l 318 618 l 288 589 q 363 728 303 679 q 519 778 424 778 q 690 707 635 778 q 726 514 746 636 l 647 21 q 590 -122 635 -61 q 475 -217 544 -183 q 319 -250 406 -250 l 232 -250 z "},"ñ":{"ha":833,"x_min":67,"x_max":749,"o":"m 67 0 l 188 764 l 313 764 l 289 618 l 315 618 l 285 589 q 362 728 300 679 q 519 778 424 778 q 692 707 635 778 q 729 514 749 636 l 647 0 l 522 0 l 601 500 q 578 627 614 582 q 467 672 542 672 q 336 624 389 672 q 268 486 283 575 l 192 0 l 67 0 m 596 903 q 531 917 554 903 q 492 951 507 932 q 462 985 476 971 q 424 1000 447 1000 q 392 988 406 1000 q 374 951 378 976 l 368 910 l 278 910 l 283 951 q 335 1049 294 1014 q 431 1083 375 1083 q 496 1069 472 1083 q 534 1035 519 1054 q 563 1001 549 1015 q 601 986 578 986 q 634 998 621 986 q 651 1035 647 1010 l 658 1076 l 749 1076 l 742 1035 q 692 938 732 972 q 596 903 653 903 z "},"o":{"ha":833,"x_min":92,"x_max":742,"o":"m 353 -14 q 202 21 263 -14 q 117 122 142 56 q 106 278 92 188 l 138 486 q 199 643 153 578 q 317 743 244 708 q 479 778 389 778 q 631 743 571 778 q 716 643 690 708 q 728 488 742 578 l 694 278 q 634 122 681 188 q 516 21 588 56 q 353 -14 444 -14 m 371 97 q 504 143 453 97 q 569 278 556 189 l 601 486 q 580 621 617 575 q 461 667 543 667 q 329 621 381 667 q 263 486 278 575 l 231 278 q 253 143 217 189 q 371 97 290 97 z "},"ó":{"ha":833,"x_min":92,"x_max":742,"o":"m 353 -14 q 202 21 263 -14 q 117 122 142 56 q 106 278 92 188 l 138 486 q 199 643 153 578 q 317 743 244 708 q 479 778 389 778 q 631 743 571 778 q 716 643 690 708 q 728 488 742 578 l 694 278 q 634 122 681 188 q 516 21 588 56 q 353 -14 444 -14 m 371 97 q 504 143 453 97 q 569 278 556 189 l 601 486 q 580 621 617 575 q 461 667 543 667 q 329 621 381 667 q 263 486 278 575 l 231 278 q 253 143 217 189 q 371 97 290 97 m 413 896 l 590 1090 l 732 1090 l 547 896 l 413 896 z "},"ŏ":{"ha":833,"x_min":92,"x_max":750,"o":"m 353 -14 q 202 21 263 -14 q 117 122 142 56 q 106 278 92 188 l 138 486 q 199 643 153 578 q 317 743 244 708 q 479 778 389 778 q 631 743 571 778 q 716 643 690 708 q 728 488 742 578 l 694 278 q 634 122 681 188 q 516 21 588 56 q 353 -14 444 -14 m 371 97 q 504 143 453 97 q 569 278 556 189 l 601 486 q 580 621 617 575 q 461 667 543 667 q 329 621 381 667 q 263 486 278 575 l 231 278 q 253 143 217 189 q 371 97 290 97 m 496 889 q 344 944 396 889 q 306 1090 292 1000 l 403 1090 q 423 1003 394 1036 q 507 969 451 969 q 603 1003 564 969 q 650 1090 642 1036 l 750 1090 q 666 944 736 1000 q 496 889 596 889 z "},"ô":{"ha":833,"x_min":92,"x_max":749,"o":"m 353 -14 q 202 21 263 -14 q 117 122 142 56 q 106 278 92 188 l 138 486 q 199 643 153 578 q 317 743 244 708 q 479 778 389 778 q 631 743 571 778 q 716 643 690 708 q 728 488 742 578 l 694 278 q 634 122 681 188 q 516 21 588 56 q 353 -14 444 -14 m 371 97 q 504 143 453 97 q 569 278 556 189 l 601 486 q 580 621 617 575 q 461 667 543 667 q 329 621 381 667 q 263 486 278 575 l 231 278 q 253 143 217 189 q 371 97 290 97 m 246 896 l 469 1090 l 585 1090 l 749 896 l 614 896 l 518 1004 l 389 896 l 246 896 z "},"ố":{"ha":833,"x_min":92,"x_max":1006,"o":"m 353 -14 q 202 21 263 -14 q 117 122 142 56 q 106 278 92 188 l 138 486 q 199 643 153 578 q 317 743 244 708 q 479 778 389 778 q 631 743 571 778 q 716 643 690 708 q 728 488 742 578 l 694 278 q 634 122 681 188 q 516 21 588 56 q 353 -14 444 -14 m 371 97 q 504 143 453 97 q 569 278 556 189 l 601 486 q 580 621 617 575 q 461 667 543 667 q 329 621 381 667 q 263 486 278 575 l 231 278 q 253 143 217 189 q 371 97 290 97 m 671 1056 l 861 1250 l 1006 1250 l 808 1056 l 671 1056 m 246 896 l 469 1090 l 585 1090 l 749 896 l 614 896 l 518 1004 l 389 896 l 246 896 z "},"ộ":{"ha":833,"x_min":92,"x_max":749,"o":"m 246 896 l 469 1090 l 585 1090 l 749 896 l 614 896 l 518 1004 l 389 896 l 246 896 m 353 -14 q 202 21 263 -14 q 117 122 142 56 q 106 278 92 188 l 138 486 q 199 643 153 578 q 317 743 244 708 q 479 778 389 778 q 631 743 571 778 q 716 643 690 708 q 728 488 742 578 l 694 278 q 634 122 681 188 q 516 21 588 56 q 353 -14 444 -14 m 371 97 q 504 143 453 97 q 569 278 556 189 l 601 486 q 580 621 617 575 q 461 667 543 667 q 329 621 381 667 q 263 486 278 575 l 231 278 q 253 143 217 189 q 371 97 290 97 m 322 -296 q 254 -272 276 -296 q 238 -208 232 -249 q 275 -142 244 -167 q 351 -118 306 -118 q 419 -142 397 -118 q 435 -208 442 -167 q 399 -272 429 -249 q 322 -296 368 -296 z "},"ồ":{"ha":833,"x_min":92,"x_max":878,"o":"m 353 -14 q 202 21 263 -14 q 117 122 142 56 q 106 278 92 188 l 138 486 q 199 643 153 578 q 317 743 244 708 q 479 778 389 778 q 631 743 571 778 q 716 643 690 708 q 728 488 742 578 l 694 278 q 634 122 681 188 q 516 21 588 56 q 353 -14 444 -14 m 371 97 q 504 143 453 97 q 569 278 556 189 l 601 486 q 580 621 617 575 q 461 667 543 667 q 329 621 381 667 q 263 486 278 575 l 231 278 q 253 143 217 189 q 371 97 290 97 m 751 1056 l 601 1250 l 735 1250 l 878 1056 l 751 1056 m 246 896 l 469 1090 l 585 1090 l 749 896 l 614 896 l 518 1004 l 389 896 l 246 896 z "},"ổ":{"ha":833,"x_min":92,"x_max":899,"o":"m 353 -14 q 202 21 263 -14 q 117 122 142 56 q 106 278 92 188 l 138 486 q 199 643 153 578 q 317 743 244 708 q 479 778 389 778 q 631 743 571 778 q 716 643 690 708 q 728 488 742 578 l 694 278 q 634 122 681 188 q 516 21 588 56 q 353 -14 444 -14 m 371 97 q 504 143 453 97 q 569 278 556 189 l 601 486 q 580 621 617 575 q 461 667 543 667 q 329 621 381 667 q 263 486 278 575 l 231 278 q 253 143 217 189 q 371 97 290 97 m 679 1056 l 756 1140 q 774 1175 772 1158 q 742 1208 778 1208 l 674 1208 l 686 1292 l 776 1292 q 867 1265 836 1292 q 892 1193 899 1238 q 857 1125 886 1158 l 797 1056 l 679 1056 m 246 896 l 469 1090 l 585 1090 l 749 896 l 614 896 l 518 1004 l 389 896 l 246 896 z "},"ỗ":{"ha":833,"x_min":92,"x_max":781,"o":"m 353 -14 q 202 21 263 -14 q 117 122 142 56 q 106 278 92 188 l 138 486 q 199 643 153 578 q 317 743 244 708 q 479 778 389 778 q 631 743 571 778 q 716 643 690 708 q 728 488 742 578 l 694 278 q 634 122 681 188 q 516 21 588 56 q 353 -14 444 -14 m 371 97 q 504 143 453 97 q 569 278 556 189 l 601 486 q 580 621 617 575 q 461 667 543 667 q 329 621 381 667 q 263 486 278 575 l 231 278 q 253 143 217 189 q 371 97 290 97 m 626 1128 q 560 1141 583 1128 q 522 1172 536 1154 q 495 1202 508 1189 q 458 1215 482 1215 q 410 1174 417 1215 l 404 1139 l 314 1139 l 318 1167 q 368 1256 326 1222 q 468 1289 410 1289 q 536 1276 513 1289 q 573 1245 560 1263 q 599 1215 586 1228 q 636 1201 613 1201 q 685 1243 678 1201 l 690 1278 l 781 1278 l 776 1250 q 726 1161 768 1194 q 626 1128 685 1128 m 246 896 l 469 1090 l 585 1090 l 749 896 l 614 896 l 518 1004 l 389 896 l 246 896 z "},"ö":{"ha":833,"x_min":92,"x_max":763,"o":"m 353 -14 q 202 21 263 -14 q 117 122 142 56 q 106 278 92 188 l 138 486 q 199 643 153 578 q 317 743 244 708 q 479 778 389 778 q 631 743 571 778 q 716 643 690 708 q 728 488 742 578 l 694 278 q 634 122 681 188 q 516 21 588 56 q 353 -14 444 -14 m 371 97 q 504 143 453 97 q 569 278 556 189 l 601 486 q 580 621 617 575 q 461 667 543 667 q 329 621 381 667 q 263 486 278 575 l 231 278 q 253 143 217 189 q 371 97 290 97 m 653 901 q 592 925 613 901 q 578 989 572 949 q 613 1055 585 1031 q 681 1079 640 1079 q 742 1055 721 1079 q 756 989 763 1031 q 722 925 750 949 q 653 901 693 901 m 344 901 q 284 925 304 901 q 269 989 264 949 q 304 1055 276 1031 q 372 1079 332 1079 q 433 1055 413 1079 q 447 989 454 1031 q 413 925 442 949 q 344 901 385 901 z "},"ọ":{"ha":833,"x_min":92,"x_max":742,"o":"m 353 -14 q 202 21 263 -14 q 117 122 142 56 q 106 278 92 188 l 138 486 q 199 643 153 578 q 317 743 244 708 q 479 778 389 778 q 631 743 571 778 q 716 643 690 708 q 728 488 742 578 l 694 278 q 634 122 681 188 q 516 21 588 56 q 353 -14 444 -14 m 371 97 q 504 143 453 97 q 569 278 556 189 l 601 486 q 580 621 617 575 q 461 667 543 667 q 329 621 381 667 q 263 486 278 575 l 231 278 q 253 143 217 189 q 371 97 290 97 m 322 -296 q 254 -272 276 -296 q 238 -208 232 -249 q 275 -142 244 -167 q 351 -118 306 -118 q 419 -142 397 -118 q 435 -208 442 -167 q 399 -272 429 -249 q 322 -296 368 -296 z "},"ò":{"ha":833,"x_min":92,"x_max":742,"o":"m 353 -14 q 202 21 263 -14 q 117 122 142 56 q 106 278 92 188 l 138 486 q 199 643 153 578 q 317 743 244 708 q 479 778 389 778 q 631 743 571 778 q 716 643 690 708 q 728 488 742 578 l 694 278 q 634 122 681 188 q 516 21 588 56 q 353 -14 444 -14 m 371 97 q 504 143 453 97 q 569 278 556 189 l 601 486 q 580 621 617 575 q 461 667 543 667 q 329 621 381 667 q 263 486 278 575 l 231 278 q 253 143 217 189 q 371 97 290 97 m 456 896 l 326 1090 l 457 1090 l 579 896 l 456 896 z "},"ỏ":{"ha":833,"x_min":92,"x_max":742,"o":"m 353 -14 q 202 21 263 -14 q 117 122 142 56 q 106 278 92 188 l 138 486 q 199 643 153 578 q 317 743 244 708 q 479 778 389 778 q 631 743 571 778 q 716 643 690 708 q 728 488 742 578 l 694 278 q 634 122 681 188 q 516 21 588 56 q 353 -14 444 -14 m 371 97 q 504 143 453 97 q 569 278 556 189 l 601 486 q 580 621 617 575 q 461 667 543 667 q 329 621 381 667 q 263 486 278 575 l 231 278 q 253 143 217 189 q 371 97 290 97 m 431 896 l 514 983 q 532 1008 525 996 q 540 1028 539 1019 q 506 1056 544 1056 l 397 1056 l 413 1146 l 558 1146 q 639 1119 611 1146 q 660 1043 667 1092 q 647 1003 657 1022 q 624 968 638 983 l 557 896 l 431 896 z "},"ơ":{"ha":833,"x_min":92,"x_max":829,"o":"m 592 646 l 606 736 l 653 736 q 691 749 676 736 q 708 785 706 761 l 725 889 l 829 889 l 813 778 q 757 682 803 718 q 646 646 711 646 l 592 646 m 353 -14 q 202 21 263 -14 q 117 122 142 56 q 106 278 92 188 l 138 486 q 199 643 153 578 q 317 743 244 708 q 479 778 389 778 q 631 743 571 778 q 716 643 690 708 q 728 488 742 578 l 694 278 q 634 122 681 188 q 516 21 588 56 q 353 -14 444 -14 m 371 97 q 504 143 453 97 q 569 278 556 189 l 601 486 q 580 621 617 575 q 461 667 543 667 q 329 621 381 667 q 263 486 278 575 l 231 278 q 253 143 217 189 q 371 97 290 97 z "},"ớ":{"ha":833,"x_min":92,"x_max":829,"o":"m 592 646 l 606 736 l 653 736 q 691 749 676 736 q 708 785 706 761 l 725 889 l 829 889 l 813 778 q 757 682 803 718 q 646 646 711 646 l 592 646 m 353 -14 q 202 21 263 -14 q 117 122 142 56 q 106 278 92 188 l 138 486 q 199 643 153 578 q 317 743 244 708 q 479 778 389 778 q 631 743 571 778 q 716 643 690 708 q 728 488 742 578 l 694 278 q 634 122 681 188 q 516 21 588 56 q 353 -14 444 -14 m 371 97 q 504 143 453 97 q 569 278 556 189 l 601 486 q 580 621 617 575 q 461 667 543 667 q 329 621 381 667 q 263 486 278 575 l 231 278 q 253 143 217 189 q 371 97 290 97 m 399 896 l 576 1090 l 718 1090 l 533 896 l 399 896 z "},"ợ":{"ha":833,"x_min":92,"x_max":829,"o":"m 592 646 l 606 736 l 653 736 q 691 749 676 736 q 708 785 706 761 l 725 889 l 829 889 l 813 778 q 757 682 803 718 q 646 646 711 646 l 592 646 m 353 -14 q 202 21 263 -14 q 117 122 142 56 q 106 278 92 188 l 138 486 q 199 643 153 578 q 317 743 244 708 q 479 778 389 778 q 631 743 571 778 q 716 643 690 708 q 728 488 742 578 l 694 278 q 634 122 681 188 q 516 21 588 56 q 353 -14 444 -14 m 371 97 q 504 143 453 97 q 569 278 556 189 l 601 486 q 580 621 617 575 q 461 667 543 667 q 329 621 381 667 q 263 486 278 575 l 231 278 q 253 143 217 189 q 371 97 290 97 m 322 -296 q 254 -272 276 -296 q 238 -208 232 -249 q 275 -142 244 -167 q 351 -118 306 -118 q 419 -142 397 -118 q 435 -208 442 -167 q 399 -272 429 -249 q 322 -296 368 -296 z "},"ờ":{"ha":833,"x_min":92,"x_max":829,"o":"m 592 646 l 606 736 l 653 736 q 691 749 676 736 q 708 785 706 761 l 725 889 l 829 889 l 813 778 q 757 682 803 718 q 646 646 711 646 l 592 646 m 353 -14 q 202 21 263 -14 q 117 122 142 56 q 106 278 92 188 l 138 486 q 199 643 153 578 q 317 743 244 708 q 479 778 389 778 q 631 743 571 778 q 716 643 690 708 q 728 488 742 578 l 694 278 q 634 122 681 188 q 516 21 588 56 q 353 -14 444 -14 m 371 97 q 504 143 453 97 q 569 278 556 189 l 601 486 q 580 621 617 575 q 461 667 543 667 q 329 621 381 667 q 263 486 278 575 l 231 278 q 253 143 217 189 q 371 97 290 97 m 442 896 l 313 1090 l 443 1090 l 565 896 l 442 896 z "},"ở":{"ha":833,"x_min":92,"x_max":829,"o":"m 592 646 l 606 736 l 653 736 q 691 749 676 736 q 708 785 706 761 l 725 889 l 829 889 l 813 778 q 757 682 803 718 q 646 646 711 646 l 592 646 m 353 -14 q 202 21 263 -14 q 117 122 142 56 q 106 278 92 188 l 138 486 q 199 643 153 578 q 317 743 244 708 q 479 778 389 778 q 631 743 571 778 q 716 643 690 708 q 728 488 742 578 l 694 278 q 634 122 681 188 q 516 21 588 56 q 353 -14 444 -14 m 371 97 q 504 143 453 97 q 569 278 556 189 l 601 486 q 580 621 617 575 q 461 667 543 667 q 329 621 381 667 q 263 486 278 575 l 231 278 q 253 143 217 189 q 371 97 290 97 m 431 896 l 514 983 q 532 1008 525 996 q 540 1028 539 1019 q 506 1056 544 1056 l 397 1056 l 413 1146 l 558 1146 q 639 1119 611 1146 q 660 1043 667 1092 q 647 1003 657 1022 q 624 968 638 983 l 557 896 l 431 896 z "},"ỡ":{"ha":833,"x_min":92,"x_max":829,"o":"m 592 646 l 606 736 l 653 736 q 691 749 676 736 q 708 785 706 761 l 725 889 l 829 889 l 813 778 q 757 682 803 718 q 646 646 711 646 l 592 646 m 353 -14 q 202 21 263 -14 q 117 122 142 56 q 106 278 92 188 l 138 486 q 199 643 153 578 q 317 743 244 708 q 479 778 389 778 q 631 743 571 778 q 716 643 690 708 q 728 488 742 578 l 694 278 q 634 122 681 188 q 516 21 588 56 q 353 -14 444 -14 m 371 97 q 504 143 453 97 q 569 278 556 189 l 601 486 q 580 621 617 575 q 461 667 543 667 q 329 621 381 667 q 263 486 278 575 l 231 278 q 253 143 217 189 q 371 97 290 97 m 582 903 q 517 917 540 903 q 478 951 493 932 q 448 985 463 971 q 410 1000 433 1000 q 378 988 392 1000 q 360 951 364 976 l 354 910 l 264 910 l 269 951 q 321 1049 281 1014 q 417 1083 361 1083 q 482 1069 458 1083 q 520 1035 506 1054 q 549 1001 535 1015 q 588 986 564 986 q 620 998 607 986 q 638 1035 633 1010 l 644 1076 l 735 1076 l 728 1035 q 678 938 718 972 q 582 903 639 903 z "},"ő":{"ha":833,"x_min":92,"x_max":847,"o":"m 353 -14 q 202 21 263 -14 q 117 122 142 56 q 106 278 92 188 l 138 486 q 199 643 153 578 q 317 743 244 708 q 479 778 389 778 q 631 743 571 778 q 716 643 690 708 q 728 488 742 578 l 694 278 q 634 122 681 188 q 516 21 588 56 q 353 -14 444 -14 m 371 97 q 504 143 453 97 q 569 278 556 189 l 601 486 q 580 621 617 575 q 461 667 543 667 q 329 621 381 667 q 263 486 278 575 l 231 278 q 253 143 217 189 q 371 97 290 97 m 533 896 l 717 1090 l 847 1090 l 657 896 l 533 896 m 282 896 l 465 1090 l 596 1090 l 406 896 l 282 896 z "},"ō":{"ha":833,"x_min":92,"x_max":742,"o":"m 353 -14 q 202 21 263 -14 q 117 122 142 56 q 106 278 92 188 l 138 486 q 199 643 153 578 q 317 743 244 708 q 479 778 389 778 q 631 743 571 778 q 716 643 690 708 q 728 488 742 578 l 694 278 q 634 122 681 188 q 516 21 588 56 q 353 -14 444 -14 m 371 97 q 504 143 453 97 q 569 278 556 189 l 601 486 q 580 621 617 575 q 461 667 543 667 q 329 621 381 667 q 263 486 278 575 l 231 278 q 253 143 217 189 q 371 97 290 97 m 281 931 l 297 1035 l 742 1035 l 725 931 l 281 931 z "},"ǫ":{"ha":833,"x_min":92,"x_max":742,"o":"m 411 -282 q 294 -245 335 -282 q 263 -153 253 -208 q 289 -90 267 -122 q 365 -14 311 -57 q 362 -14 364 -14 q 358 -14 360 -14 q 353 -14 356 -14 q 202 21 263 -14 q 117 122 142 56 q 106 278 92 188 l 138 486 q 199 643 153 578 q 317 743 244 708 q 479 778 389 778 q 631 743 571 778 q 716 643 690 708 q 728 488 742 578 l 694 278 q 638 128 681 192 q 531 29 596 65 l 493 1 q 415 -69 440 -37 q 383 -129 389 -100 q 397 -179 379 -160 q 449 -199 414 -199 l 532 -199 l 519 -282 l 411 -282 m 371 97 q 504 143 453 97 q 569 278 556 189 l 601 486 q 580 621 617 575 q 461 667 543 667 q 329 621 381 667 q 263 486 278 575 l 231 278 q 253 143 217 189 q 371 97 290 97 z "},"ø":{"ha":833,"x_min":-19,"x_max":853,"o":"m -19 -42 l 724 819 l 853 819 l 108 -42 l -19 -42 m 353 -14 q 202 21 263 -14 q 117 122 142 56 q 106 278 92 188 l 138 486 q 198 643 151 578 q 317 743 244 708 q 479 778 389 778 q 631 743 571 778 q 717 643 692 708 q 728 488 743 578 l 694 278 q 634 122 681 188 q 516 21 588 56 q 353 -14 444 -14 m 371 97 q 508 145 454 97 q 576 278 563 193 l 608 486 q 583 619 622 572 q 461 667 544 667 q 324 619 378 667 q 256 486 269 572 l 224 278 q 249 145 210 193 q 371 97 288 97 z "},"ǿ":{"ha":833,"x_min":-19,"x_max":853,"o":"m -19 -42 l 724 819 l 853 819 l 108 -42 l -19 -42 m 353 -14 q 202 21 263 -14 q 117 122 142 56 q 106 278 92 188 l 138 486 q 198 643 151 578 q 317 743 244 708 q 479 778 389 778 q 631 743 571 778 q 717 643 692 708 q 728 488 743 578 l 694 278 q 634 122 681 188 q 516 21 588 56 q 353 -14 444 -14 m 371 97 q 508 145 454 97 q 576 278 563 193 l 608 486 q 583 619 622 572 q 461 667 544 667 q 324 619 378 667 q 256 486 269 572 l 224 278 q 249 145 210 193 q 371 97 288 97 m 413 896 l 590 1090 l 732 1090 l 547 896 l 413 896 z "},"õ":{"ha":833,"x_min":92,"x_max":749,"o":"m 353 -14 q 202 21 263 -14 q 117 122 142 56 q 106 278 92 188 l 138 486 q 199 643 153 578 q 317 743 244 708 q 479 778 389 778 q 631 743 571 778 q 716 643 690 708 q 728 488 742 578 l 694 278 q 634 122 681 188 q 516 21 588 56 q 353 -14 444 -14 m 371 97 q 504 143 453 97 q 569 278 556 189 l 601 486 q 580 621 617 575 q 461 667 543 667 q 329 621 381 667 q 263 486 278 575 l 231 278 q 253 143 217 189 q 371 97 290 97 m 596 903 q 531 917 554 903 q 492 951 507 932 q 462 985 476 971 q 424 1000 447 1000 q 392 988 406 1000 q 374 951 378 976 l 368 910 l 278 910 l 283 951 q 335 1049 294 1014 q 431 1083 375 1083 q 496 1069 472 1083 q 534 1035 519 1054 q 563 1001 549 1015 q 601 986 578 986 q 634 998 621 986 q 651 1035 647 1010 l 658 1076 l 749 1076 l 742 1035 q 692 938 732 972 q 596 903 653 903 z "},"œ":{"ha":833,"x_min":4,"x_max":828,"o":"m 186 -14 q 49 47 93 -14 q 21 208 4 107 l 75 556 q 156 718 92 658 q 313 778 219 778 q 401 760 368 778 q 447 716 433 742 q 458 667 460 690 l 464 667 q 491 716 469 690 q 551 760 513 742 q 646 778 590 778 q 783 718 739 778 q 811 556 828 658 l 779 347 l 471 347 l 449 208 q 460 124 440 156 q 524 93 481 93 q 588 115 560 93 q 629 174 617 138 l 747 174 q 659 37 721 88 q 519 -14 597 -14 q 431 4 464 -14 q 385 48 399 22 q 374 97 372 74 l 368 97 q 340 48 363 74 q 280 4 318 22 q 186 -14 242 -14 m 218 93 q 291 124 261 93 q 329 208 321 156 l 383 556 q 372 640 392 608 q 308 671 351 671 q 233 640 264 671 q 193 556 201 608 l 139 208 q 152 124 131 156 q 218 93 174 93 m 486 449 l 676 449 l 693 556 q 680 640 701 608 q 614 671 658 671 q 541 640 571 671 q 503 556 511 608 l 486 449 z "},"p":{"ha":833,"x_min":26,"x_max":749,"o":"m 26 -250 l 188 764 l 313 764 l 289 618 l 314 618 l 285 589 q 365 727 299 676 q 525 778 431 778 q 694 702 640 778 q 728 494 749 626 l 693 271 q 639 119 679 183 q 538 21 599 56 q 399 -14 476 -14 q 256 38 306 -14 q 219 175 206 89 l 240 146 l 213 146 l 188 -28 l 151 -250 l 26 -250 m 375 94 q 505 142 454 94 q 569 278 556 189 l 601 486 q 581 622 617 575 q 465 669 544 669 q 336 621 389 669 q 268 486 283 572 l 236 278 q 260 143 222 192 q 375 94 299 94 z "},"þ":{"ha":833,"x_min":19,"x_max":742,"o":"m 19 -250 l 72 82 l 197 82 l 144 -250 l 19 -250 m 390 -14 q 247 37 296 -14 q 213 175 199 88 l 233 146 l 208 146 l 185 0 l 60 0 l 221 1014 l 346 1014 l 310 792 l 279 618 l 307 618 l 278 589 q 358 726 292 675 q 517 778 424 778 q 687 701 632 778 q 721 493 742 625 l 686 269 q 631 119 672 182 q 528 21 590 56 q 390 -14 467 -14 m 367 94 q 497 142 446 94 q 563 278 549 189 l 594 486 q 573 622 610 575 q 457 669 536 669 q 328 621 381 669 q 261 486 276 572 l 229 278 q 253 143 215 192 q 367 94 290 94 z "},"q":{"ha":833,"x_min":83,"x_max":765,"o":"m 479 -250 l 515 -28 l 546 146 l 518 146 l 547 175 q 468 38 533 89 q 308 -14 403 -14 q 138 63 193 -14 q 104 271 83 139 l 139 494 q 194 646 153 582 q 297 744 235 710 q 435 778 358 778 q 578 727 529 778 q 613 589 626 676 l 592 618 l 617 618 l 640 764 l 765 764 l 604 -250 l 479 -250 m 368 94 q 498 143 446 94 q 564 278 550 192 l 596 486 q 574 621 611 572 q 458 669 536 669 q 328 622 379 669 q 263 486 278 575 l 231 278 q 253 142 217 189 q 368 94 289 94 z "},"r":{"ha":833,"x_min":93,"x_max":779,"o":"m 93 0 l 214 764 l 336 764 l 313 618 l 342 618 l 288 528 q 371 715 307 651 q 540 778 435 778 q 720 702 661 778 q 760 497 779 626 l 751 451 l 626 451 l 632 486 q 611 624 647 576 q 494 672 575 672 q 363 624 415 672 q 294 486 310 575 l 218 0 l 93 0 z "},"ŕ":{"ha":833,"x_min":93,"x_max":779,"o":"m 93 0 l 214 764 l 336 764 l 313 618 l 342 618 l 288 528 q 371 715 307 651 q 540 778 435 778 q 720 702 661 778 q 760 497 779 626 l 751 451 l 626 451 l 632 486 q 611 624 647 576 q 494 672 575 672 q 363 624 415 672 q 294 486 310 575 l 218 0 l 93 0 m 440 896 l 618 1090 l 760 1090 l 575 896 l 440 896 z "},"ř":{"ha":833,"x_min":93,"x_max":808,"o":"m 93 0 l 214 764 l 336 764 l 313 618 l 342 618 l 288 528 q 371 715 307 651 q 540 778 435 778 q 720 702 661 778 q 760 497 779 626 l 751 451 l 626 451 l 632 486 q 611 624 647 576 q 494 672 575 672 q 363 624 415 672 q 294 486 310 575 l 218 0 l 93 0 m 469 896 l 306 1090 l 440 1090 l 538 982 l 665 1090 l 808 1090 l 585 896 l 469 896 z "},"ŗ":{"ha":833,"x_min":-79,"x_max":779,"o":"m 93 0 l 214 764 l 336 764 l 313 618 l 342 618 l 288 528 q 371 715 307 651 q 540 778 435 778 q 720 702 661 778 q 760 497 779 626 l 751 451 l 626 451 l 632 486 q 611 624 647 576 q 494 672 575 672 q 363 624 415 672 q 294 486 310 575 l 218 0 l 93 0 m -79 -333 l 85 -132 l 231 -132 l 53 -333 l -79 -333 z "},"s":{"ha":833,"x_min":82,"x_max":739,"o":"m 322 -14 q 143 41 204 -14 q 86 188 82 96 l 211 188 q 247 122 214 147 q 340 97 279 97 l 399 97 q 513 128 472 97 q 563 210 554 160 q 542 288 569 258 q 453 328 514 318 l 353 344 q 196 413 243 363 q 164 560 149 463 q 254 720 179 663 q 460 778 329 778 l 513 778 q 681 725 622 778 q 739 585 739 672 l 614 585 q 581 644 611 621 q 494 667 551 667 l 442 667 q 334 639 371 667 q 289 558 297 611 q 305 488 282 511 q 386 454 328 464 l 486 438 q 655 367 606 418 q 689 215 704 315 q 594 48 671 110 q 381 -14 517 -14 l 322 -14 z "},"ś":{"ha":833,"x_min":82,"x_max":746,"o":"m 322 -14 q 143 41 204 -14 q 86 188 82 96 l 211 188 q 247 122 214 147 q 340 97 279 97 l 399 97 q 513 128 472 97 q 563 210 554 160 q 542 288 569 258 q 453 328 514 318 l 353 344 q 196 413 243 363 q 164 560 149 463 q 254 720 179 663 q 460 778 329 778 l 513 778 q 681 725 622 778 q 739 585 739 672 l 614 585 q 581 644 611 621 q 494 667 551 667 l 442 667 q 334 639 371 667 q 289 558 297 611 q 305 488 282 511 q 386 454 328 464 l 486 438 q 655 367 606 418 q 689 215 704 315 q 594 48 671 110 q 381 -14 517 -14 l 322 -14 m 426 896 l 604 1090 l 746 1090 l 561 896 l 426 896 z "},"š":{"ha":833,"x_min":82,"x_max":794,"o":"m 322 -14 q 143 41 204 -14 q 86 188 82 96 l 211 188 q 247 122 214 147 q 340 97 279 97 l 399 97 q 513 128 472 97 q 563 210 554 160 q 542 288 569 258 q 453 328 514 318 l 353 344 q 196 413 243 363 q 164 560 149 463 q 254 720 179 663 q 460 778 329 778 l 513 778 q 681 725 622 778 q 739 585 739 672 l 614 585 q 581 644 611 621 q 494 667 551 667 l 442 667 q 334 639 371 667 q 289 558 297 611 q 305 488 282 511 q 386 454 328 464 l 486 438 q 655 367 606 418 q 689 215 704 315 q 594 48 671 110 q 381 -14 517 -14 l 322 -14 m 456 896 l 292 1090 l 426 1090 l 524 982 l 651 1090 l 794 1090 l 571 896 l 456 896 z "},"ş":{"ha":833,"x_min":82,"x_max":739,"o":"m 299 -282 l 299 -206 l 396 -206 q 445 -190 426 -206 q 464 -156 464 -174 q 426 -114 464 -132 q 318 -96 388 -96 l 367 36 l 446 36 l 417 -49 q 492 -67 453 -53 q 557 -106 531 -81 q 583 -167 583 -131 q 538 -248 583 -214 q 417 -282 492 -282 l 299 -282 m 322 -14 q 143 41 204 -14 q 86 188 82 96 l 211 188 q 247 122 214 147 q 340 97 279 97 l 399 97 q 513 128 472 97 q 563 210 554 160 q 542 288 569 258 q 453 328 514 318 l 353 344 q 196 413 243 363 q 164 560 149 463 q 254 720 179 663 q 460 778 329 778 l 513 778 q 681 725 622 778 q 739 585 739 672 l 614 585 q 581 644 611 621 q 494 667 551 667 l 442 667 q 334 639 371 667 q 289 558 297 611 q 305 488 282 511 q 386 454 328 464 l 486 438 q 655 367 606 418 q 689 215 704 315 q 594 48 671 110 q 381 -14 517 -14 l 322 -14 z "},"ŝ":{"ha":833,"x_min":82,"x_max":763,"o":"m 322 -14 q 143 41 204 -14 q 86 188 82 96 l 211 188 q 247 122 214 147 q 340 97 279 97 l 399 97 q 513 128 472 97 q 563 210 554 160 q 542 288 569 258 q 453 328 514 318 l 353 344 q 196 413 243 363 q 164 560 149 463 q 254 720 179 663 q 460 778 329 778 l 513 778 q 681 725 622 778 q 739 585 739 672 l 614 585 q 581 644 611 621 q 494 667 551 667 l 442 667 q 334 639 371 667 q 289 558 297 611 q 305 488 282 511 q 386 454 328 464 l 486 438 q 655 367 606 418 q 689 215 704 315 q 594 48 671 110 q 381 -14 517 -14 l 322 -14 m 260 896 l 483 1090 l 599 1090 l 763 896 l 628 896 l 532 1004 l 403 896 l 260 896 z "},"ș":{"ha":833,"x_min":82,"x_max":739,"o":"m 322 -14 q 143 41 204 -14 q 86 188 82 96 l 211 188 q 247 122 214 147 q 340 97 279 97 l 399 97 q 513 128 472 97 q 563 210 554 160 q 542 288 569 258 q 453 328 514 318 l 353 344 q 196 413 243 363 q 164 560 149 463 q 254 720 179 663 q 460 778 329 778 l 513 778 q 681 725 622 778 q 739 585 739 672 l 614 585 q 581 644 611 621 q 494 667 551 667 l 442 667 q 334 639 371 667 q 289 558 297 611 q 305 488 282 511 q 386 454 328 464 l 486 438 q 655 367 606 418 q 689 215 704 315 q 594 48 671 110 q 381 -14 517 -14 l 322 -14 m 135 -333 l 299 -132 l 444 -132 l 267 -333 l 135 -333 z "},"ß":{"ha":833,"x_min":-183,"x_max":792,"o":"m -183 -250 l -165 -136 l -68 -136 q 22 -110 -10 -136 q 63 -28 54 -83 l 185 742 q 245 892 199 828 q 363 992 292 957 q 522 1028 433 1028 q 673 998 611 1028 q 763 910 735 968 q 778 769 792 853 q 728 646 767 700 q 629 561 689 592 q 496 532 569 531 l 499 553 q 633 522 579 554 q 710 431 686 490 q 721 289 733 371 q 660 139 707 204 q 540 37 613 74 q 376 0 467 0 l 285 0 l 303 114 l 381 114 q 520 163 464 114 q 589 293 576 213 q 562 419 603 374 q 436 465 521 465 l 375 465 l 392 574 l 450 574 q 580 622 528 574 q 643 744 632 671 q 618 869 656 825 q 504 914 581 914 q 375 868 428 914 q 310 742 322 822 l 188 -28 q 98 -190 171 -131 q -87 -250 25 -250 l -183 -250 z "},"ſ":{"ha":833,"x_min":-65,"x_max":886,"o":"m -65 -250 l -47 -136 l 110 -136 q 200 -110 168 -136 q 240 -28 232 -83 l 369 792 q 417 910 381 861 q 511 987 453 960 q 644 1014 569 1014 l 886 1014 l 868 900 l 625 900 q 535 874 567 900 q 494 792 503 847 l 365 -28 q 276 -190 350 -131 q 90 -250 203 -250 l -65 -250 z "},"t":{"ha":833,"x_min":118,"x_max":782,"o":"m 439 0 q 294 53 340 0 q 263 201 247 106 l 333 650 l 118 650 l 136 764 l 351 764 l 385 972 l 510 972 l 476 764 l 782 764 l 764 650 l 458 650 l 388 201 q 457 114 374 114 l 665 114 l 647 0 l 439 0 z "},"ŧ":{"ha":833,"x_min":110,"x_max":782,"o":"m 110 332 l 126 436 l 668 436 l 651 332 l 110 332 m 439 0 q 294 53 340 0 q 263 201 247 106 l 333 650 l 118 650 l 136 764 l 351 764 l 385 972 l 510 972 l 476 764 l 782 764 l 764 650 l 458 650 l 388 201 q 457 114 374 114 l 665 114 l 647 0 l 439 0 z "},"ť":{"ha":833,"x_min":118,"x_max":881,"o":"m 588 861 l 747 1078 l 881 1078 l 707 861 l 588 861 m 439 0 q 294 53 340 0 q 263 201 247 106 l 333 650 l 118 650 l 136 764 l 351 764 l 385 972 l 510 972 l 476 764 l 782 764 l 764 650 l 458 650 l 388 201 q 457 114 374 114 l 665 114 l 647 0 l 439 0 z "},"ţ":{"ha":833,"x_min":118,"x_max":782,"o":"m 368 -282 l 368 -206 l 465 -206 q 515 -190 496 -206 q 533 -156 533 -174 q 495 -114 533 -132 q 388 -96 457 -96 l 436 36 l 515 36 l 486 -49 q 561 -67 522 -53 q 626 -106 600 -81 q 653 -167 653 -131 q 607 -248 653 -214 q 486 -282 561 -282 l 368 -282 m 439 0 q 294 53 340 0 q 263 201 247 106 l 333 650 l 118 650 l 136 764 l 351 764 l 385 972 l 510 972 l 476 764 l 782 764 l 764 650 l 458 650 l 388 201 q 457 114 374 114 l 665 114 l 647 0 l 439 0 z "},"ț":{"ha":833,"x_min":118,"x_max":782,"o":"m 439 0 q 294 53 340 0 q 263 201 247 106 l 333 650 l 118 650 l 136 764 l 351 764 l 385 972 l 510 972 l 476 764 l 782 764 l 764 650 l 458 650 l 388 201 q 457 114 374 114 l 665 114 l 647 0 l 439 0 m 150 -333 l 314 -132 l 460 -132 l 282 -333 l 150 -333 z "},"u":{"ha":833,"x_min":86,"x_max":768,"o":"m 351 -14 q 153 65 219 -14 q 108 278 86 143 l 185 764 l 310 764 l 233 278 q 256 144 219 192 q 369 96 293 96 q 500 144 447 96 q 567 278 553 192 l 643 764 l 768 764 l 692 278 q 631 123 678 189 q 512 22 583 57 q 351 -14 440 -14 z "},"ú":{"ha":833,"x_min":86,"x_max":768,"o":"m 351 -14 q 153 65 219 -14 q 108 278 86 143 l 185 764 l 310 764 l 233 278 q 256 144 219 192 q 369 96 293 96 q 500 144 447 96 q 567 278 553 192 l 643 764 l 768 764 l 692 278 q 631 123 678 189 q 512 22 583 57 q 351 -14 440 -14 m 413 896 l 590 1090 l 732 1090 l 547 896 l 413 896 z "},"ŭ":{"ha":833,"x_min":86,"x_max":768,"o":"m 351 -14 q 153 65 219 -14 q 108 278 86 143 l 185 764 l 310 764 l 233 278 q 256 144 219 192 q 369 96 293 96 q 500 144 447 96 q 567 278 553 192 l 643 764 l 768 764 l 692 278 q 631 123 678 189 q 512 22 583 57 q 351 -14 440 -14 m 496 889 q 344 944 396 889 q 306 1090 292 1000 l 403 1090 q 423 1003 394 1036 q 507 969 451 969 q 603 1003 564 969 q 650 1090 642 1036 l 750 1090 q 666 944 736 1000 q 496 889 596 889 z "},"û":{"ha":833,"x_min":86,"x_max":768,"o":"m 351 -14 q 153 65 219 -14 q 108 278 86 143 l 185 764 l 310 764 l 233 278 q 256 144 219 192 q 369 96 293 96 q 500 144 447 96 q 567 278 553 192 l 643 764 l 768 764 l 692 278 q 631 123 678 189 q 512 22 583 57 q 351 -14 440 -14 m 246 896 l 469 1090 l 585 1090 l 749 896 l 614 896 l 518 1004 l 389 896 l 246 896 z "},"ü":{"ha":833,"x_min":86,"x_max":768,"o":"m 351 -14 q 153 65 219 -14 q 108 278 86 143 l 185 764 l 310 764 l 233 278 q 256 144 219 192 q 369 96 293 96 q 500 144 447 96 q 567 278 553 192 l 643 764 l 768 764 l 692 278 q 631 123 678 189 q 512 22 583 57 q 351 -14 440 -14 m 653 901 q 592 925 613 901 q 578 989 572 949 q 613 1055 585 1031 q 681 1079 640 1079 q 742 1055 721 1079 q 756 989 763 1031 q 722 925 750 949 q 653 901 693 901 m 344 901 q 284 925 304 901 q 269 989 264 949 q 304 1055 276 1031 q 372 1079 332 1079 q 433 1055 413 1079 q 447 989 454 1031 q 413 925 442 949 q 344 901 385 901 z "},"ụ":{"ha":833,"x_min":86,"x_max":768,"o":"m 351 -14 q 153 65 219 -14 q 108 278 86 143 l 185 764 l 310 764 l 233 278 q 256 144 219 192 q 369 96 293 96 q 500 144 447 96 q 567 278 553 192 l 643 764 l 768 764 l 692 278 q 631 123 678 189 q 512 22 583 57 q 351 -14 440 -14 m 308 -296 q 240 -272 263 -296 q 224 -208 218 -249 q 261 -142 231 -167 q 338 -118 292 -118 q 406 -142 383 -118 q 421 -208 428 -167 q 385 -272 415 -249 q 308 -296 354 -296 z "},"ù":{"ha":833,"x_min":86,"x_max":768,"o":"m 351 -14 q 153 65 219 -14 q 108 278 86 143 l 185 764 l 310 764 l 233 278 q 256 144 219 192 q 369 96 293 96 q 500 144 447 96 q 567 278 553 192 l 643 764 l 768 764 l 692 278 q 631 123 678 189 q 512 22 583 57 q 351 -14 440 -14 m 456 896 l 326 1090 l 457 1090 l 579 896 l 456 896 z "},"ủ":{"ha":833,"x_min":86,"x_max":768,"o":"m 351 -14 q 153 65 219 -14 q 108 278 86 143 l 185 764 l 310 764 l 233 278 q 256 144 219 192 q 369 96 293 96 q 500 144 447 96 q 567 278 553 192 l 643 764 l 768 764 l 692 278 q 631 123 678 189 q 512 22 583 57 q 351 -14 440 -14 m 431 896 l 514 983 q 532 1008 525 996 q 540 1028 539 1019 q 506 1056 544 1056 l 397 1056 l 413 1146 l 558 1146 q 639 1119 611 1146 q 660 1043 667 1092 q 647 1003 657 1022 q 624 968 638 983 l 557 896 l 431 896 z "},"ư":{"ha":833,"x_min":86,"x_max":918,"o":"m 108 278 l 185 764 l 310 764 l 233 278 q 256 144 219 192 q 369 96 293 96 q 500 144 447 96 q 567 278 553 192 l 643 764 l 740 764 q 778 776 764 764 q 797 813 793 789 l 814 917 l 918 917 l 900 806 q 855 710 890 746 q 754 674 819 674 l 692 278 q 631 123 678 189 q 512 22 583 57 q 351 -14 440 -14 q 153 65 219 -14 q 108 278 86 143 z "},"ứ":{"ha":833,"x_min":86,"x_max":918,"o":"m 108 278 l 185 764 l 310 764 l 233 278 q 256 144 219 192 q 369 96 293 96 q 500 144 447 96 q 567 278 553 192 l 643 764 l 740 764 q 778 776 764 764 q 797 813 793 789 l 814 917 l 918 917 l 900 806 q 855 710 890 746 q 754 674 819 674 l 692 278 q 631 123 678 189 q 512 22 583 57 q 351 -14 440 -14 q 153 65 219 -14 q 108 278 86 143 m 413 896 l 590 1090 l 732 1090 l 547 896 l 413 896 z "},"ự":{"ha":833,"x_min":86,"x_max":918,"o":"m 108 278 l 185 764 l 310 764 l 233 278 q 256 144 219 192 q 369 96 293 96 q 500 144 447 96 q 567 278 553 192 l 643 764 l 740 764 q 778 776 764 764 q 797 813 793 789 l 814 917 l 918 917 l 900 806 q 855 710 890 746 q 754 674 819 674 l 692 278 q 631 123 678 189 q 512 22 583 57 q 351 -14 440 -14 q 153 65 219 -14 q 108 278 86 143 m 307 -296 q 239 -272 261 -296 q 222 -208 217 -249 q 260 -142 229 -167 q 336 -118 290 -118 q 404 -142 382 -118 q 419 -208 426 -167 q 383 -272 414 -249 q 307 -296 353 -296 z "},"ừ":{"ha":833,"x_min":86,"x_max":918,"o":"m 108 278 l 185 764 l 310 764 l 233 278 q 256 144 219 192 q 369 96 293 96 q 500 144 447 96 q 567 278 553 192 l 643 764 l 740 764 q 778 776 764 764 q 797 813 793 789 l 814 917 l 918 917 l 900 806 q 855 710 890 746 q 754 674 819 674 l 692 278 q 631 123 678 189 q 512 22 583 57 q 351 -14 440 -14 q 153 65 219 -14 q 108 278 86 143 m 456 896 l 326 1090 l 457 1090 l 579 896 l 456 896 z "},"ử":{"ha":833,"x_min":86,"x_max":918,"o":"m 108 278 l 185 764 l 310 764 l 233 278 q 256 144 219 192 q 369 96 293 96 q 500 144 447 96 q 567 278 553 192 l 643 764 l 740 764 q 778 776 764 764 q 797 813 793 789 l 814 917 l 918 917 l 900 806 q 855 710 890 746 q 754 674 819 674 l 692 278 q 631 123 678 189 q 512 22 583 57 q 351 -14 440 -14 q 153 65 219 -14 q 108 278 86 143 m 431 896 l 514 983 q 532 1008 525 996 q 540 1028 539 1019 q 506 1056 544 1056 l 397 1056 l 413 1146 l 558 1146 q 639 1119 611 1146 q 660 1043 667 1092 q 647 1003 657 1022 q 624 968 638 983 l 557 896 l 431 896 z "},"ữ":{"ha":833,"x_min":86,"x_max":918,"o":"m 108 278 l 185 764 l 310 764 l 233 278 q 256 144 219 192 q 369 96 293 96 q 500 144 447 96 q 567 278 553 192 l 643 764 l 740 764 q 778 776 764 764 q 797 813 793 789 l 814 917 l 918 917 l 900 806 q 855 710 890 746 q 754 674 819 674 l 692 278 q 631 123 678 189 q 512 22 583 57 q 351 -14 440 -14 q 153 65 219 -14 q 108 278 86 143 m 596 903 q 531 917 554 903 q 492 951 507 932 q 462 985 476 971 q 424 1000 447 1000 q 392 988 406 1000 q 374 951 378 976 l 368 910 l 278 910 l 283 951 q 335 1049 294 1014 q 431 1083 375 1083 q 496 1069 472 1083 q 534 1035 519 1054 q 563 1001 549 1015 q 601 986 578 986 q 634 998 621 986 q 651 1035 647 1010 l 658 1076 l 749 1076 l 742 1035 q 692 938 732 972 q 596 903 653 903 z "},"ű":{"ha":833,"x_min":86,"x_max":847,"o":"m 351 -14 q 153 65 219 -14 q 108 278 86 143 l 185 764 l 310 764 l 233 278 q 256 144 219 192 q 369 96 293 96 q 500 144 447 96 q 567 278 553 192 l 643 764 l 768 764 l 692 278 q 631 123 678 189 q 512 22 583 57 q 351 -14 440 -14 m 533 896 l 717 1090 l 847 1090 l 657 896 l 533 896 m 282 896 l 465 1090 l 596 1090 l 406 896 l 282 896 z "},"ū":{"ha":833,"x_min":86,"x_max":768,"o":"m 351 -14 q 153 65 219 -14 q 108 278 86 143 l 185 764 l 310 764 l 233 278 q 256 144 219 192 q 369 96 293 96 q 500 144 447 96 q 567 278 553 192 l 643 764 l 768 764 l 692 278 q 631 123 678 189 q 512 22 583 57 q 351 -14 440 -14 m 281 931 l 297 1035 l 742 1035 l 725 931 l 281 931 z "},"ų":{"ha":833,"x_min":86,"x_max":768,"o":"m 411 -282 q 294 -245 335 -282 q 263 -153 253 -208 q 289 -90 267 -122 q 365 -14 311 -57 q 362 -14 364 -14 q 358 -14 360 -14 q 353 -14 356 -14 q 151 64 217 -14 q 108 278 86 142 l 185 764 l 310 764 l 233 278 q 255 143 219 189 q 371 97 290 97 q 503 143 453 97 q 567 278 553 189 l 643 764 l 768 764 l 692 278 q 637 128 678 192 q 531 29 596 65 l 493 1 q 415 -69 440 -37 q 383 -129 389 -100 q 397 -179 379 -160 q 449 -199 414 -199 l 532 -199 l 519 -282 l 411 -282 z "},"ů":{"ha":833,"x_min":86,"x_max":768,"o":"m 351 -14 q 153 65 219 -14 q 108 278 86 143 l 185 764 l 310 764 l 233 278 q 256 144 219 192 q 369 96 293 96 q 500 144 447 96 q 567 278 553 192 l 643 764 l 768 764 l 692 278 q 631 123 678 189 q 512 22 583 57 q 351 -14 440 -14 m 489 844 q 376 888 414 844 q 347 1003 338 932 q 411 1117 358 1074 q 539 1161 464 1161 q 653 1117 614 1161 q 681 1003 692 1074 q 617 888 671 932 q 489 844 564 844 m 501 918 q 565 941 539 918 q 597 1003 592 964 q 585 1065 604 1042 q 528 1089 565 1089 q 464 1065 490 1089 q 431 1003 438 1042 q 444 941 425 964 q 501 918 464 918 z "},"ũ":{"ha":833,"x_min":86,"x_max":768,"o":"m 351 -14 q 153 65 219 -14 q 108 278 86 143 l 185 764 l 310 764 l 233 278 q 256 144 219 192 q 369 96 293 96 q 500 144 447 96 q 567 278 553 192 l 643 764 l 768 764 l 692 278 q 631 123 678 189 q 512 22 583 57 q 351 -14 440 -14 m 596 903 q 531 917 554 903 q 492 951 507 932 q 462 985 476 971 q 424 1000 447 1000 q 392 988 406 1000 q 374 951 378 976 l 368 910 l 278 910 l 283 951 q 335 1049 294 1014 q 431 1083 375 1083 q 496 1069 472 1083 q 534 1035 519 1054 q 563 1001 549 1015 q 601 986 578 986 q 634 998 621 986 q 651 1035 647 1010 l 658 1076 l 749 1076 l 742 1035 q 692 938 732 972 q 596 903 653 903 z "},"v":{"ha":833,"x_min":143,"x_max":810,"o":"m 271 0 l 143 764 l 267 764 l 349 250 q 361 162 356 204 q 369 96 367 119 q 399 162 379 119 q 440 250 418 204 l 679 764 l 810 764 l 440 0 l 271 0 z "},"w":{"ha":833,"x_min":108,"x_max":844,"o":"m 110 0 l 108 764 l 215 764 l 206 222 q 204 156 204 192 q 203 97 204 121 q 221 156 210 121 q 242 222 232 192 l 414 764 l 536 764 l 535 222 q 535 156 535 192 q 535 97 536 121 q 553 156 542 121 q 574 222 564 192 l 739 764 l 844 764 l 596 0 l 458 0 l 460 528 q 460 606 460 567 q 460 667 460 644 q 442 606 454 644 q 417 528 429 567 l 247 0 l 110 0 z "},"ẃ":{"ha":833,"x_min":108,"x_max":844,"o":"m 110 0 l 108 764 l 215 764 l 206 222 q 204 156 204 192 q 203 97 204 121 q 221 156 210 121 q 242 222 232 192 l 414 764 l 536 764 l 535 222 q 535 156 535 192 q 535 97 536 121 q 553 156 542 121 q 574 222 564 192 l 739 764 l 844 764 l 596 0 l 458 0 l 460 528 q 460 606 460 567 q 460 667 460 644 q 442 606 454 644 q 417 528 429 567 l 247 0 l 110 0 m 413 896 l 590 1090 l 732 1090 l 547 896 l 413 896 z "},"ŵ":{"ha":833,"x_min":108,"x_max":844,"o":"m 110 0 l 108 764 l 215 764 l 206 222 q 204 156 204 192 q 203 97 204 121 q 221 156 210 121 q 242 222 232 192 l 414 764 l 536 764 l 535 222 q 535 156 535 192 q 535 97 536 121 q 553 156 542 121 q 574 222 564 192 l 739 764 l 844 764 l 596 0 l 458 0 l 460 528 q 460 606 460 567 q 460 667 460 644 q 442 606 454 644 q 417 528 429 567 l 247 0 l 110 0 m 246 896 l 469 1090 l 585 1090 l 749 896 l 614 896 l 518 1004 l 389 896 l 246 896 z "},"ẅ":{"ha":833,"x_min":108,"x_max":844,"o":"m 110 0 l 108 764 l 215 764 l 206 222 q 204 156 204 192 q 203 97 204 121 q 221 156 210 121 q 242 222 232 192 l 414 764 l 536 764 l 535 222 q 535 156 535 192 q 535 97 536 121 q 553 156 542 121 q 574 222 564 192 l 739 764 l 844 764 l 596 0 l 458 0 l 460 528 q 460 606 460 567 q 460 667 460 644 q 442 606 454 644 q 417 528 429 567 l 247 0 l 110 0 m 653 901 q 592 925 613 901 q 578 989 572 949 q 613 1055 585 1031 q 681 1079 640 1079 q 742 1055 721 1079 q 756 989 763 1031 q 722 925 750 949 q 653 901 693 901 m 344 901 q 284 925 304 901 q 269 989 264 949 q 304 1055 276 1031 q 372 1079 332 1079 q 433 1055 413 1079 q 447 989 454 1031 q 413 925 442 949 q 344 901 385 901 z "},"ẁ":{"ha":833,"x_min":108,"x_max":844,"o":"m 110 0 l 108 764 l 215 764 l 206 222 q 204 156 204 192 q 203 97 204 121 q 221 156 210 121 q 242 222 232 192 l 414 764 l 536 764 l 535 222 q 535 156 535 192 q 535 97 536 121 q 553 156 542 121 q 574 222 564 192 l 739 764 l 844 764 l 596 0 l 458 0 l 460 528 q 460 606 460 567 q 460 667 460 644 q 442 606 454 644 q 417 528 429 567 l 247 0 l 110 0 m 456 896 l 326 1090 l 457 1090 l 579 896 l 456 896 z "},"x":{"ha":833,"x_min":15,"x_max":801,"o":"m 15 0 l 342 397 l 153 764 l 297 764 l 406 528 q 420 494 413 513 q 431 465 428 476 q 449 494 438 476 q 471 528 460 513 l 653 764 l 801 764 l 496 388 l 696 0 l 551 0 l 433 250 q 419 285 426 265 q 407 318 411 306 q 386 285 399 306 q 361 250 374 265 l 164 0 l 15 0 z "},"y":{"ha":833,"x_min":97,"x_max":768,"o":"m 125 -250 l 143 -136 l 386 -136 q 476 -110 444 -136 q 517 -28 508 -83 l 533 76 l 557 215 l 531 215 l 561 244 q 485 106 547 156 q 326 56 422 56 q 155 126 213 56 q 117 319 97 197 l 188 764 l 313 764 l 244 333 q 267 207 231 253 q 379 161 304 161 q 510 210 457 161 q 578 347 564 258 l 643 764 l 768 764 l 642 -28 q 553 -190 626 -131 q 367 -250 479 -250 l 125 -250 z "},"ý":{"ha":833,"x_min":97,"x_max":768,"o":"m 125 -250 l 143 -136 l 386 -136 q 476 -110 444 -136 q 517 -28 508 -83 l 533 76 l 557 215 l 531 215 l 561 244 q 485 106 547 156 q 326 56 422 56 q 155 126 213 56 q 117 319 97 197 l 188 764 l 313 764 l 244 333 q 267 207 231 253 q 379 161 304 161 q 510 210 457 161 q 578 347 564 258 l 643 764 l 768 764 l 642 -28 q 553 -190 626 -131 q 367 -250 479 -250 l 125 -250 m 413 896 l 590 1090 l 732 1090 l 547 896 l 413 896 z "},"ŷ":{"ha":833,"x_min":97,"x_max":768,"o":"m 125 -250 l 143 -136 l 386 -136 q 476 -110 444 -136 q 517 -28 508 -83 l 533 76 l 557 215 l 531 215 l 561 244 q 485 106 547 156 q 326 56 422 56 q 155 126 213 56 q 117 319 97 197 l 188 764 l 313 764 l 244 333 q 267 207 231 253 q 379 161 304 161 q 510 210 457 161 q 578 347 564 258 l 643 764 l 768 764 l 642 -28 q 553 -190 626 -131 q 367 -250 479 -250 l 125 -250 m 246 896 l 469 1090 l 585 1090 l 749 896 l 614 896 l 518 1004 l 389 896 l 246 896 z "},"ÿ":{"ha":833,"x_min":97,"x_max":768,"o":"m 125 -250 l 143 -136 l 386 -136 q 476 -110 444 -136 q 517 -28 508 -83 l 533 76 l 557 215 l 531 215 l 561 244 q 485 106 547 156 q 326 56 422 56 q 155 126 213 56 q 117 319 97 197 l 188 764 l 313 764 l 244 333 q 267 207 231 253 q 379 161 304 161 q 510 210 457 161 q 578 347 564 258 l 643 764 l 768 764 l 642 -28 q 553 -190 626 -131 q 367 -250 479 -250 l 125 -250 m 653 901 q 592 925 613 901 q 578 989 572 949 q 613 1055 585 1031 q 681 1079 640 1079 q 742 1055 721 1079 q 756 989 763 1031 q 722 925 750 949 q 653 901 693 901 m 344 901 q 284 925 304 901 q 269 989 264 949 q 304 1055 276 1031 q 372 1079 332 1079 q 433 1055 413 1079 q 447 989 454 1031 q 413 925 442 949 q 344 901 385 901 z "},"ỵ":{"ha":833,"x_min":97,"x_max":768,"o":"m 125 -250 l 143 -136 l 386 -136 q 476 -110 444 -136 q 517 -28 508 -83 l 533 76 l 557 215 l 531 215 l 561 244 q 485 106 547 156 q 326 56 422 56 q 155 126 213 56 q 117 319 97 197 l 188 764 l 313 764 l 244 333 q 267 207 231 253 q 379 161 304 161 q 510 210 457 161 q 578 347 564 258 l 643 764 l 768 764 l 642 -28 q 553 -190 626 -131 q 367 -250 479 -250 l 125 -250 m 636 -351 q 568 -328 590 -351 q 551 -264 546 -304 q 589 -198 558 -222 q 665 -174 619 -174 q 733 -198 711 -174 q 749 -264 756 -222 q 713 -328 743 -304 q 636 -351 682 -351 z "},"ỳ":{"ha":833,"x_min":97,"x_max":768,"o":"m 125 -250 l 143 -136 l 386 -136 q 476 -110 444 -136 q 517 -28 508 -83 l 533 76 l 557 215 l 531 215 l 561 244 q 485 106 547 156 q 326 56 422 56 q 155 126 213 56 q 117 319 97 197 l 188 764 l 313 764 l 244 333 q 267 207 231 253 q 379 161 304 161 q 510 210 457 161 q 578 347 564 258 l 643 764 l 768 764 l 642 -28 q 553 -190 626 -131 q 367 -250 479 -250 l 125 -250 m 456 896 l 326 1090 l 457 1090 l 579 896 l 456 896 z "},"ỷ":{"ha":833,"x_min":97,"x_max":768,"o":"m 125 -250 l 143 -136 l 386 -136 q 476 -110 444 -136 q 517 -28 508 -83 l 533 76 l 557 215 l 531 215 l 561 244 q 485 106 547 156 q 326 56 422 56 q 155 126 213 56 q 117 319 97 197 l 188 764 l 313 764 l 244 333 q 267 207 231 253 q 379 161 304 161 q 510 210 457 161 q 578 347 564 258 l 643 764 l 768 764 l 642 -28 q 553 -190 626 -131 q 367 -250 479 -250 l 125 -250 m 431 896 l 514 983 q 532 1008 525 996 q 540 1028 539 1019 q 506 1056 544 1056 l 397 1056 l 413 1146 l 558 1146 q 639 1119 611 1146 q 660 1043 667 1092 q 647 1003 657 1022 q 624 968 638 983 l 557 896 l 431 896 z "},"ȳ":{"ha":833,"x_min":97,"x_max":768,"o":"m 125 -250 l 143 -136 l 386 -136 q 476 -110 444 -136 q 517 -28 508 -83 l 533 76 l 557 215 l 531 215 l 561 244 q 485 106 547 156 q 326 56 422 56 q 155 126 213 56 q 117 319 97 197 l 188 764 l 313 764 l 244 333 q 267 207 231 253 q 379 161 304 161 q 510 210 457 161 q 578 347 564 258 l 643 764 l 768 764 l 642 -28 q 553 -190 626 -131 q 367 -250 479 -250 l 125 -250 m 281 931 l 297 1035 l 742 1035 l 725 931 l 281 931 z "},"ỹ":{"ha":833,"x_min":97,"x_max":768,"o":"m 125 -250 l 143 -136 l 386 -136 q 476 -110 444 -136 q 517 -28 508 -83 l 533 76 l 557 215 l 531 215 l 561 244 q 485 106 547 156 q 326 56 422 56 q 155 126 213 56 q 117 319 97 197 l 188 764 l 313 764 l 244 333 q 267 207 231 253 q 379 161 304 161 q 510 210 457 161 q 578 347 564 258 l 643 764 l 768 764 l 642 -28 q 553 -190 626 -131 q 367 -250 479 -250 l 125 -250 m 596 903 q 531 917 554 903 q 492 951 507 932 q 462 985 476 971 q 424 1000 447 1000 q 392 988 406 1000 q 374 951 378 976 l 368 910 l 278 910 l 283 951 q 335 1049 294 1014 q 431 1083 375 1083 q 496 1069 472 1083 q 534 1035 519 1054 q 563 1001 549 1015 q 601 986 578 986 q 634 998 621 986 q 651 1035 647 1010 l 658 1076 l 749 1076 l 742 1035 q 692 938 732 972 q 596 903 653 903 z "},"z":{"ha":833,"x_min":64,"x_max":753,"o":"m 64 0 l 83 125 l 589 650 l 178 650 l 196 764 l 753 764 l 733 639 l 219 114 l 665 114 l 647 0 l 64 0 z "},"ź":{"ha":833,"x_min":64,"x_max":753,"o":"m 64 0 l 83 125 l 589 650 l 178 650 l 196 764 l 753 764 l 733 639 l 219 114 l 665 114 l 647 0 l 64 0 m 413 896 l 590 1090 l 732 1090 l 547 896 l 413 896 z "},"ž":{"ha":833,"x_min":64,"x_max":781,"o":"m 64 0 l 83 125 l 589 650 l 178 650 l 196 764 l 753 764 l 733 639 l 219 114 l 665 114 l 647 0 l 64 0 m 442 896 l 278 1090 l 413 1090 l 510 982 l 638 1090 l 781 1090 l 557 896 l 442 896 z "},"ż":{"ha":833,"x_min":64,"x_max":753,"o":"m 64 0 l 83 125 l 589 650 l 178 650 l 196 764 l 753 764 l 733 639 l 219 114 l 665 114 l 647 0 l 64 0 m 499 901 q 431 925 453 901 q 414 989 408 949 q 451 1055 421 1031 q 526 1079 481 1079 q 595 1055 572 1079 q 611 989 618 1031 q 575 925 606 949 q 499 901 544 901 z "},"ª":{"ha":833,"x_min":292,"x_max":675,"o":"m 557 632 l 569 708 l 565 708 l 596 903 q 580 953 601 935 q 517 972 558 972 q 453 957 481 972 q 418 917 425 942 l 349 917 q 410 999 364 969 q 525 1028 457 1028 q 637 994 599 1028 q 665 903 675 961 l 622 632 l 557 632 m 418 625 q 324 658 356 625 q 300 744 292 690 q 352 831 308 799 q 464 863 396 863 l 604 863 l 596 807 l 456 807 q 397 790 419 807 q 369 744 374 774 q 385 696 364 714 q 444 678 406 678 q 533 703 499 678 q 575 771 568 728 l 590 771 l 581 708 l 565 708 q 506 647 544 669 q 418 625 467 625 z "},"º":{"ha":833,"x_min":307,"x_max":665,"o":"m 453 618 q 344 658 381 618 q 317 764 307 699 l 335 875 q 395 981 346 940 q 517 1021 444 1021 q 627 981 589 1021 q 654 875 665 940 l 636 764 q 576 658 626 699 q 453 618 525 618 m 463 674 q 532 699 503 674 q 567 764 561 724 l 585 875 q 570 940 592 915 q 508 965 549 965 q 440 940 468 965 q 404 875 411 915 l 386 764 q 401 699 381 724 q 463 674 422 674 z "},"А":{"ha":833,"x_min":8,"x_max":703,"o":"m 8 0 l 433 1014 l 601 1014 l 703 0 l 581 0 l 557 269 l 250 269 l 140 0 l 8 0 m 292 375 l 547 375 l 518 688 q 508 836 511 776 q 504 914 504 896 q 477 836 499 896 q 419 689 456 776 l 292 375 z "},"Б":{"ha":833,"x_min":69,"x_max":794,"o":"m 69 0 l 231 1014 l 794 1014 l 776 900 l 338 900 l 289 594 l 457 594 q 618 558 554 594 q 709 454 682 521 q 722 297 736 388 q 660 140 708 207 q 535 37 611 74 q 363 0 460 0 l 69 0 m 213 114 l 381 114 q 523 163 467 114 q 593 297 579 213 q 566 432 607 383 q 439 481 525 481 l 271 481 l 213 114 z "},"В":{"ha":833,"x_min":68,"x_max":790,"o":"m 68 0 l 229 1014 l 517 1014 q 723 944 656 1014 q 771 751 790 875 q 722 631 760 682 q 627 551 685 579 q 494 525 569 524 l 497 546 q 632 515 578 547 q 710 424 686 483 q 719 282 733 364 q 660 132 706 196 q 542 34 614 68 q 376 0 469 0 l 68 0 m 208 113 l 381 113 q 526 159 468 113 q 597 286 583 206 q 567 422 610 369 q 438 474 525 474 l 265 474 l 208 113 m 282 582 l 446 582 q 580 625 526 582 q 646 742 633 668 q 618 858 657 815 q 499 901 579 901 l 333 901 l 282 582 z "},"Г":{"ha":833,"x_min":92,"x_max":843,"o":"m 92 0 l 253 1014 l 843 1014 l 825 900 l 360 900 l 217 0 l 92 0 z "},"Ѓ":{"ha":833,"x_min":92,"x_max":843,"o":"m 92 0 l 253 1014 l 843 1014 l 825 900 l 360 900 l 217 0 l 92 0 m 456 1125 l 633 1319 l 775 1319 l 590 1125 l 456 1125 z "},"Ґ":{"ha":833,"x_min":92,"x_max":864,"o":"m 92 0 l 253 1014 l 725 1014 l 746 1146 l 864 1146 l 825 900 l 360 900 l 217 0 l 92 0 z "},"Д":{"ha":833,"x_min":-57,"x_max":801,"o":"m -57 -194 l -10 107 l 53 107 q 98 182 74 135 q 144 289 122 229 q 176 414 165 349 l 282 1014 l 801 1014 l 657 107 l 754 107 l 707 -194 l 596 -194 l 626 0 l 85 0 l 54 -194 l -57 -194 m 183 107 l 532 107 l 658 903 l 383 903 l 299 414 q 267 282 288 343 q 224 176 246 221 q 183 107 201 131 z "},"Е":{"ha":833,"x_min":78,"x_max":822,"o":"m 78 0 l 239 1014 l 822 1014 l 804 900 l 344 900 l 294 586 l 706 586 l 688 474 l 276 474 l 219 114 l 679 114 l 661 0 l 78 0 z "},"Ё":{"ha":833,"x_min":78,"x_max":826,"o":"m 78 0 l 239 1014 l 822 1014 l 804 900 l 344 900 l 294 586 l 706 586 l 688 474 l 276 474 l 219 114 l 679 114 l 661 0 l 78 0 m 717 1135 q 656 1158 676 1135 q 642 1222 636 1182 q 677 1288 649 1264 q 746 1313 706 1313 q 806 1288 786 1313 q 819 1222 826 1264 q 785 1158 814 1182 q 717 1135 757 1135 m 408 1135 q 348 1158 368 1135 q 333 1222 328 1182 q 369 1288 340 1264 q 438 1313 397 1313 q 498 1288 478 1313 q 511 1222 518 1264 q 477 1158 506 1182 q 408 1135 449 1135 z "},"Ж":{"ha":833,"x_min":-44,"x_max":903,"o":"m -44 0 l 222 526 l 131 1014 l 258 1014 l 331 564 l 392 564 l 464 1014 l 569 1014 l 497 564 l 554 564 l 769 1014 l 903 1014 l 657 517 l 756 0 l 629 0 l 549 475 l 483 475 l 408 0 l 303 0 l 378 475 l 318 475 l 86 0 l -44 0 z "},"З":{"ha":833,"x_min":42,"x_max":800,"o":"m 339 -14 q 119 60 196 -14 q 53 257 42 133 l 178 257 q 224 140 175 183 q 357 97 272 97 q 514 147 451 97 q 590 278 576 197 q 555 409 603 360 q 414 458 507 458 l 289 458 l 307 572 l 431 572 q 533 597 488 572 q 609 662 579 621 q 647 754 639 703 q 616 874 660 832 q 486 917 572 917 q 342 869 401 917 q 271 743 283 821 l 146 743 q 208 893 160 829 q 333 992 257 957 q 503 1028 408 1028 q 724 961 649 1028 q 781 771 800 894 q 731 647 769 701 q 632 561 692 592 q 499 532 572 531 l 501 553 q 635 522 582 554 q 713 428 689 489 q 724 286 736 368 q 658 131 710 199 q 524 25 606 64 q 339 -14 442 -14 z "},"И":{"ha":833,"x_min":64,"x_max":808,"o":"m 64 0 l 225 1014 l 346 1014 l 256 444 q 236 338 247 394 q 215 231 225 282 q 196 146 204 181 l 642 1014 l 808 1014 l 647 0 l 526 0 l 617 569 q 636 677 625 621 q 658 784 647 733 q 678 868 669 835 l 231 0 l 64 0 z "},"Й":{"ha":833,"x_min":64,"x_max":808,"o":"m 64 0 l 225 1014 l 346 1014 l 256 444 q 236 338 247 394 q 215 231 225 282 q 196 146 204 181 l 642 1014 l 808 1014 l 647 0 l 526 0 l 617 569 q 636 677 625 621 q 658 784 647 733 q 678 868 669 835 l 231 0 l 64 0 m 532 1118 q 380 1174 432 1118 q 342 1319 328 1229 l 439 1319 q 459 1232 431 1265 q 543 1199 488 1199 q 639 1232 600 1199 q 686 1319 678 1265 l 786 1319 q 702 1174 772 1229 q 532 1118 632 1118 z "},"К":{"ha":833,"x_min":67,"x_max":864,"o":"m 67 0 l 228 1014 l 353 1014 l 283 579 l 431 579 l 725 1014 l 864 1014 l 535 522 l 717 0 l 578 0 l 417 469 l 267 469 l 192 0 l 67 0 z "},"Ќ":{"ha":833,"x_min":67,"x_max":864,"o":"m 449 1125 l 626 1319 l 768 1319 l 583 1125 l 449 1125 m 67 0 l 228 1014 l 353 1014 l 283 579 l 431 579 l 725 1014 l 864 1014 l 535 522 l 717 0 l 578 0 l 417 469 l 267 469 l 192 0 l 67 0 z "},"Л":{"ha":833,"x_min":-35,"x_max":803,"o":"m -35 -7 l -15 110 l 10 110 q 106 165 71 110 q 164 353 142 219 l 278 1014 l 803 1014 l 642 0 l 517 0 l 660 900 l 383 900 l 289 353 q 230 149 268 229 q 135 31 192 69 q -3 -7 78 -7 l -35 -7 z "},"М":{"ha":833,"x_min":44,"x_max":828,"o":"m 44 0 l 206 1014 l 367 1014 l 419 686 q 433 598 426 642 q 442 531 439 554 q 469 598 451 554 q 508 688 488 642 l 661 1014 l 828 1014 l 667 0 l 544 0 l 603 368 q 630 511 614 433 q 665 669 646 589 q 703 822 685 749 q 738 951 722 896 l 494 444 l 363 444 l 276 951 q 270 826 275 897 q 259 674 265 754 q 244 515 253 594 q 225 368 236 436 l 167 0 l 44 0 z "},"Н":{"ha":833,"x_min":68,"x_max":804,"o":"m 68 0 l 229 1014 l 354 1014 l 285 581 l 610 581 l 679 1014 l 804 1014 l 643 0 l 518 0 l 592 467 l 267 467 l 193 0 l 68 0 z "},"О":{"ha":833,"x_min":92,"x_max":782,"o":"m 353 -14 q 202 21 263 -14 q 117 122 142 56 q 106 278 92 188 l 178 736 q 239 893 193 828 q 356 993 285 958 q 518 1028 428 1028 q 670 993 610 1028 q 756 893 731 958 q 767 738 782 828 l 694 278 q 634 122 681 188 q 516 21 588 56 q 353 -14 444 -14 m 371 99 q 504 145 453 99 q 569 278 556 192 l 642 736 q 619 869 656 822 q 500 915 582 915 q 368 869 419 915 q 303 736 317 822 l 231 278 q 253 145 217 192 q 371 99 290 99 z "},"П":{"ha":833,"x_min":69,"x_max":803,"o":"m 69 0 l 231 1014 l 803 1014 l 642 0 l 517 0 l 660 900 l 338 900 l 194 0 l 69 0 z "},"Р":{"ha":833,"x_min":67,"x_max":831,"o":"m 67 0 l 228 1014 l 554 1014 q 713 977 649 1014 q 803 874 776 940 q 817 715 831 807 q 753 558 803 625 q 629 453 704 490 q 460 417 554 417 l 258 417 l 192 0 l 67 0 m 275 529 l 476 529 q 616 580 558 529 q 688 715 674 631 q 660 851 701 801 q 536 901 618 901 l 335 901 l 275 529 z "},"С":{"ha":833,"x_min":92,"x_max":789,"o":"m 358 -14 q 205 21 267 -14 q 117 122 143 56 q 106 278 92 188 l 178 736 q 240 893 193 828 q 359 993 286 958 q 524 1028 432 1028 q 676 992 615 1028 q 763 892 736 957 q 775 736 789 826 l 650 736 q 626 869 664 822 q 506 915 588 915 q 370 869 424 915 q 303 738 317 824 l 231 278 q 256 145 217 192 q 376 99 294 99 q 511 145 458 99 q 578 278 564 192 l 703 278 q 642 123 689 189 q 522 22 594 57 q 358 -14 450 -14 z "},"Т":{"ha":833,"x_min":158,"x_max":857,"o":"m 293 0 l 436 901 l 158 901 l 176 1015 l 857 1015 l 839 901 l 561 901 l 418 0 l 293 0 z "},"У":{"ha":833,"x_min":169,"x_max":864,"o":"m 204 0 l 347 263 l 169 1014 l 303 1014 l 407 518 q 422 428 418 471 q 426 365 426 386 q 449 428 433 386 q 486 518 464 471 l 725 1014 l 864 1014 l 338 0 l 204 0 z "},"Ў":{"ha":833,"x_min":169,"x_max":864,"o":"m 204 0 l 347 263 l 169 1014 l 303 1014 l 407 518 q 422 428 418 471 q 426 365 426 386 q 449 428 433 386 q 486 518 464 471 l 725 1014 l 864 1014 l 338 0 l 204 0 m 532 1118 q 380 1174 432 1118 q 342 1319 328 1229 l 439 1319 q 459 1232 431 1265 q 543 1199 488 1199 q 639 1232 600 1199 q 686 1319 678 1265 l 786 1319 q 702 1174 772 1229 q 532 1118 632 1118 z "},"Ф":{"ha":833,"x_min":56,"x_max":819,"o":"m 292 -35 l 307 63 q 164 99 222 63 q 81 199 106 135 q 69 351 56 264 l 121 676 q 181 833 136 767 q 296 935 226 899 q 451 972 365 972 l 467 1069 l 583 1069 l 568 972 q 712 935 654 972 q 794 833 769 899 q 804 676 819 767 l 753 351 q 693 199 739 264 q 578 99 647 135 q 424 63 510 63 l 408 -35 l 292 -35 m 324 168 l 435 867 q 342 844 383 867 q 274 778 301 821 q 238 676 247 736 l 186 351 q 209 217 172 267 q 324 168 246 168 m 440 168 q 533 190 493 168 q 601 253 574 213 q 636 351 628 294 l 688 676 q 666 816 703 765 q 551 867 629 867 l 440 168 z "},"Х":{"ha":833,"x_min":-6,"x_max":863,"o":"m -6 0 l 367 517 l 171 1014 l 310 1014 l 419 714 q 438 663 428 690 q 454 621 449 636 q 480 663 464 636 q 513 714 496 690 l 719 1014 l 863 1014 l 510 519 l 717 0 l 579 0 l 456 322 q 437 373 446 346 q 424 417 428 400 q 397 374 414 400 q 364 324 379 347 l 139 0 l -6 0 z "},"Ч":{"ha":833,"x_min":128,"x_max":801,"o":"m 515 0 l 578 390 q 508 381 558 386 q 388 376 458 376 q 192 456 257 376 q 149 668 128 535 l 204 1014 l 329 1014 l 274 668 q 303 537 261 586 q 426 488 344 488 q 537 492 493 488 q 594 501 581 497 l 676 1014 l 801 1014 l 640 0 l 515 0 z "},"Ц":{"ha":833,"x_min":69,"x_max":781,"o":"m 582 -194 l 613 0 l 69 0 l 231 1014 l 356 1014 l 213 111 l 513 111 l 656 1014 l 781 1014 l 638 111 l 742 111 l 693 -194 l 582 -194 z "},"Ш":{"ha":833,"x_min":31,"x_max":844,"o":"m 31 0 l 189 1014 l 306 1014 l 160 94 l 322 94 l 468 1014 l 568 1014 l 422 94 l 583 94 l 729 1014 l 844 1014 l 683 0 l 31 0 z "},"Щ":{"ha":833,"x_min":28,"x_max":833,"o":"m 596 -194 l 626 0 l 28 0 l 189 1014 l 301 1014 l 157 106 l 318 106 l 463 1014 l 560 1014 l 415 106 l 576 106 l 721 1014 l 833 1014 l 689 106 l 754 106 l 707 -194 l 596 -194 z "},"Џ":{"ha":833,"x_min":69,"x_max":803,"o":"m 265 -174 l 293 0 l 69 0 l 231 1014 l 356 1014 l 213 114 l 535 114 l 678 1014 l 803 1014 l 642 0 l 418 0 l 390 -174 l 265 -174 z "},"Ь":{"ha":833,"x_min":69,"x_max":764,"o":"m 69 0 l 231 1014 l 356 1014 l 289 597 l 492 597 q 646 560 583 597 q 736 456 708 522 q 750 299 764 389 q 687 142 736 210 q 563 38 638 75 q 397 0 489 0 l 69 0 m 213 114 l 408 114 q 549 165 490 114 q 621 299 607 215 q 592 433 635 382 q 467 483 549 483 l 271 483 l 213 114 z "},"Ъ":{"ha":833,"x_min":75,"x_max":764,"o":"m 126 0 l 269 900 l 75 900 l 93 1014 l 413 1014 l 346 597 l 492 597 q 646 560 583 597 q 736 456 708 522 q 750 299 764 389 q 687 142 736 210 q 563 38 638 75 q 397 0 489 0 l 126 0 m 269 114 l 408 114 q 549 165 490 114 q 621 299 607 215 q 592 433 635 382 q 467 483 549 483 l 328 483 l 269 114 z "},"Ы":{"ha":833,"x_min":29,"x_max":843,"o":"m 29 0 l 190 1014 l 307 1014 l 240 597 l 297 597 q 485 526 424 597 q 528 333 547 456 l 517 263 q 414 70 497 140 q 203 0 331 0 l 29 0 m 164 110 l 221 110 q 340 151 294 110 q 397 264 386 192 l 408 333 q 387 447 419 407 q 281 488 354 488 l 224 488 l 164 110 m 565 0 l 726 1014 l 843 1014 l 682 0 l 565 0 z "},"Љ":{"ha":833,"x_min":-69,"x_max":821,"o":"m -69 -7 l -51 104 l -26 104 q 37 149 10 104 q 78 269 64 193 l 203 1014 l 600 1014 l 533 597 l 617 597 q 769 538 717 597 q 806 382 821 479 l 779 215 q 693 59 764 118 q 522 0 622 0 l 328 0 l 472 910 l 296 910 l 188 269 q 140 122 174 185 q 58 26 106 60 q -49 -7 10 -7 l -69 -7 m 456 104 l 539 104 q 624 135 589 104 q 668 215 660 165 l 694 382 q 676 463 701 432 q 600 493 650 493 l 517 493 l 456 104 z "},"Њ":{"ha":833,"x_min":13,"x_max":821,"o":"m 13 0 l 174 1014 l 285 1014 l 218 597 l 422 597 l 489 1014 l 600 1014 l 533 597 l 617 597 q 770 539 719 597 q 806 382 821 481 l 779 215 q 694 58 764 117 q 522 0 625 0 l 328 0 l 406 493 l 201 493 l 124 0 l 13 0 m 456 104 l 539 104 q 626 134 592 104 q 668 215 660 164 l 694 382 q 677 464 701 435 q 600 493 653 493 l 517 493 l 456 104 z "},"Ѕ":{"ha":833,"x_min":63,"x_max":797,"o":"m 358 -14 q 136 60 210 -14 q 81 264 63 135 l 206 264 q 238 143 193 188 q 376 99 283 99 q 520 142 464 99 q 589 261 576 185 q 573 372 599 326 q 492 436 547 418 l 361 479 q 218 585 264 511 q 186 758 172 658 q 246 901 200 840 q 364 995 292 961 q 526 1029 436 1029 q 728 955 660 1029 q 779 757 797 881 l 654 757 q 628 874 667 832 q 508 917 590 917 q 376 878 428 917 q 314 769 325 839 q 330 658 304 706 q 413 592 356 611 l 544 547 q 685 440 640 515 q 714 264 729 365 q 652 118 701 181 q 527 21 603 56 q 358 -14 451 -14 z "},"Є":{"ha":833,"x_min":94,"x_max":786,"o":"m 358 -14 q 206 21 267 -14 q 119 122 144 56 q 108 278 94 188 l 181 736 q 242 893 196 828 q 360 993 288 958 q 524 1028 432 1028 q 675 992 615 1028 q 760 892 735 957 q 772 736 786 826 l 647 736 q 625 869 661 822 q 507 917 589 917 q 372 870 425 917 q 306 738 319 824 l 279 568 l 592 568 l 574 454 l 261 454 l 233 278 q 257 144 219 192 q 376 97 294 97 q 510 144 458 97 q 575 278 561 192 l 700 278 q 640 123 686 189 q 522 22 593 57 q 358 -14 450 -14 z "},"Э":{"ha":833,"x_min":86,"x_max":779,"o":"m 347 -14 q 197 22 257 -14 q 111 123 136 57 q 100 278 86 189 l 225 278 q 248 144 211 192 q 365 97 285 97 q 500 144 447 97 q 567 278 553 192 l 594 454 l 282 454 l 300 568 l 613 568 l 639 738 q 615 870 653 824 q 496 917 578 917 q 363 869 415 917 q 297 736 311 822 l 172 736 q 232 892 186 826 q 350 992 278 957 q 513 1028 422 1028 q 667 993 606 1028 q 753 893 728 958 q 764 736 779 828 l 692 278 q 631 122 678 188 q 513 21 585 56 q 347 -14 440 -14 z "},"І":{"ha":833,"x_min":85,"x_max":788,"o":"m 85 0 l 103 114 l 310 114 l 435 900 l 228 900 l 246 1014 l 788 1014 l 769 900 l 563 900 l 438 114 l 644 114 l 626 0 l 85 0 z "},"Ї":{"ha":833,"x_min":85,"x_max":799,"o":"m 85 0 l 103 114 l 310 114 l 435 900 l 228 900 l 246 1014 l 788 1014 l 769 900 l 563 900 l 438 114 l 644 114 l 626 0 l 85 0 m 689 1135 q 628 1158 649 1135 q 614 1222 608 1182 q 649 1288 621 1264 q 718 1313 678 1313 q 778 1288 758 1313 q 792 1222 799 1264 q 758 1158 786 1182 q 689 1135 729 1135 m 381 1135 q 320 1158 340 1135 q 306 1222 300 1182 q 341 1288 313 1264 q 410 1313 369 1313 q 470 1288 450 1313 q 483 1222 490 1264 q 449 1158 478 1182 q 381 1135 421 1135 z "},"Ј":{"ha":833,"x_min":25,"x_max":788,"o":"m 311 -14 q 95 68 165 -14 q 47 292 25 150 l 172 292 q 199 148 158 199 q 329 97 240 97 q 476 148 418 97 q 547 292 533 199 l 644 900 l 401 900 l 419 1014 l 788 1014 l 672 292 q 609 128 658 197 q 484 23 560 60 q 311 -14 408 -14 z "},"Ћ":{"ha":833,"x_min":82,"x_max":769,"o":"m 92 0 l 235 904 l 82 904 l 100 1014 l 544 1014 l 526 904 l 360 904 l 304 550 l 329 574 q 574 688 453 688 q 721 620 672 688 q 751 439 769 553 l 682 0 l 557 0 l 622 411 q 611 539 636 496 q 528 582 586 582 q 447 561 489 582 q 357 496 404 540 l 285 431 l 217 0 l 92 0 z "},"Ю":{"ha":833,"x_min":22,"x_max":857,"o":"m 476 -14 q 319 57 369 -14 q 288 250 268 128 l 321 465 l 211 465 l 138 0 l 22 0 l 183 1014 l 299 1014 l 229 576 l 339 576 l 368 764 q 460 958 388 888 q 642 1028 533 1028 q 805 957 753 1028 q 838 764 857 886 l 757 250 q 663 57 738 128 q 476 -14 588 -14 m 494 94 q 592 135 554 94 q 642 250 629 175 l 722 764 q 710 879 735 839 q 625 919 685 919 q 528 879 565 919 q 478 764 490 839 l 397 250 q 410 135 385 175 q 494 94 435 94 z "},"Я":{"ha":833,"x_min":17,"x_max":801,"o":"m 17 0 l 331 492 l 336 435 q 217 486 265 447 q 150 585 169 525 q 142 722 131 646 q 204 875 156 810 q 326 977 253 940 q 490 1014 400 1014 l 801 1014 l 640 0 l 515 0 l 583 431 l 422 431 l 157 0 l 17 0 m 415 542 l 601 542 l 658 903 l 472 903 q 340 853 396 903 q 271 722 285 804 q 298 592 258 642 q 415 542 338 542 z "},"Ђ":{"ha":833,"x_min":82,"x_max":769,"o":"m 260 -250 l 278 -136 l 375 -136 q 499 -94 449 -136 q 560 21 549 -51 l 622 411 q 611 539 636 496 q 528 582 586 582 q 447 561 489 582 q 357 496 404 540 l 285 431 l 217 0 l 92 0 l 235 904 l 82 904 l 100 1014 l 544 1014 l 526 904 l 360 904 l 304 550 l 329 574 q 574 688 453 688 q 721 620 672 688 q 751 439 769 553 l 685 21 q 627 -122 672 -61 q 513 -217 582 -183 q 357 -250 443 -250 l 260 -250 z "},"Ү":{"ha":833,"x_min":149,"x_max":885,"o":"m 293 0 l 353 379 l 149 1014 l 275 1014 l 410 597 q 427 538 421 563 q 435 503 433 514 q 453 538 440 514 q 489 597 467 563 l 753 1014 l 885 1014 l 478 379 l 418 0 l 293 0 z "},"Ө":{"ha":833,"x_min":86,"x_max":786,"o":"m 353 -14 q 151 65 217 -14 q 108 279 86 143 l 181 736 q 241 893 196 828 q 357 993 286 958 q 518 1028 428 1028 q 720 950 654 1028 q 764 736 786 872 l 692 279 q 631 123 678 189 q 514 22 585 57 q 353 -14 443 -14 m 371 96 q 503 143 453 96 q 568 279 554 190 l 597 464 l 261 464 l 232 279 q 254 143 218 190 q 371 96 290 96 m 279 575 l 615 575 l 640 736 q 619 872 654 825 q 501 918 583 918 q 369 872 419 918 q 304 736 318 825 l 279 575 z "},"а":{"ha":833,"x_min":85,"x_max":767,"o":"m 310 -14 q 140 63 196 -14 q 106 269 85 139 l 140 493 q 195 645 154 582 q 298 743 236 708 q 436 778 360 778 q 579 726 531 778 q 614 589 628 675 l 593 618 l 621 618 l 642 764 l 767 764 l 646 0 l 521 0 l 544 146 l 519 146 l 549 175 q 469 37 535 88 q 310 -14 404 -14 m 369 94 q 499 143 447 94 q 565 278 551 192 l 597 486 q 575 621 613 572 q 460 669 538 669 q 330 622 381 669 q 264 486 279 575 l 232 278 q 254 142 218 189 q 369 94 290 94 z "},"б":{"ha":833,"x_min":86,"x_max":774,"o":"m 353 -14 q 152 66 218 -14 q 108 285 86 146 l 164 632 q 301 915 193 815 q 579 1014 408 1014 l 774 1014 l 753 889 l 558 889 q 377 823 446 889 q 289 632 308 757 l 275 542 l 294 542 l 271 514 q 346 642 285 596 q 500 688 407 688 q 676 610 621 688 q 710 396 732 532 l 692 285 q 632 125 678 192 q 515 22 586 58 q 353 -14 444 -14 m 371 97 q 502 146 451 97 q 567 285 553 194 l 585 396 q 565 535 600 486 q 449 583 529 583 q 317 535 368 583 q 251 396 267 488 l 233 285 q 255 146 219 194 q 371 97 290 97 z "},"в":{"ha":833,"x_min":69,"x_max":754,"o":"m 69 0 l 190 764 l 521 764 q 697 710 640 764 q 739 561 754 657 q 665 434 726 482 q 514 386 603 386 l 515 397 q 664 349 613 397 q 703 218 715 300 q 608 58 686 115 q 404 0 529 0 l 69 0 m 210 110 l 422 110 q 530 139 489 110 q 579 221 571 168 q 556 304 588 275 q 457 333 524 333 l 244 333 l 210 110 m 261 442 l 469 442 q 567 469 528 442 q 613 547 606 497 q 592 626 621 597 q 504 654 564 654 l 296 654 l 261 442 z "}}}
